<svg width="158" height="200" viewBox="0 0 158 200" fill="none" xmlns="http://www.w3.org/2000/svg">
<path d="M143.155 150.301C143.972 152.053 143.74 155.403 142.337 156.602C142.019 156.886 141.636 157.088 141.221 157.189C140.806 157.29 140.372 157.287 139.958 157.181C139.545 157.074 139.164 156.867 138.85 156.579C138.536 156.29 138.298 155.928 138.159 155.526C136.817 151.131 135.645 146.705 134.412 142.279C134.319 141.941 134.412 141.511 134.18 141.25C133.652 140.435 133.44 139.456 133.585 138.496C133.73 137.537 134.221 136.664 134.967 136.04C137.542 137.961 137.819 142.187 142.445 141.972C142.445 143.509 142.353 144.861 142.445 146.244C142.449 147.627 142.689 148.999 143.155 150.301Z" fill="#D1D3D4"/>
<path d="M88.9237 105.689C88.2606 105.427 87.3817 104.152 87.5205 103.691C88.1679 102.227 88.9527 100.828 89.8642 99.5109L90.5736 99.8182C90.5736 101.232 90.5736 102.646 90.5736 104.044C90.5736 105.443 90.2497 106.18 88.9237 105.689Z" fill="#D1D3D4"/>
<path d="M104.374 68.4223C103.098 68.7992 101.8 69.102 100.489 69.329C83.3883 72.4025 64.2527 71.7109 50.5756 61.0151L52.5801 53.531L46.7515 58.6331L38.8876 51.6562C52.3026 41.0371 54.045 24.271 62.8495 10.7475C70.0196 -0.271121 86.1947 -1.08561 97.4046 3.63226C105.222 6.9639 111.482 13.1255 114.921 20.8748C118.714 29.5729 118.591 39.4389 117.82 48.89C116.941 59.509 113.688 65.5639 104.374 68.4223Z" fill="white"/>
<path d="M83.512 71.6495C72.1479 71.6495 59.9356 69.2522 50.1134 61.553C49.9938 61.4614 49.9037 61.3369 49.8544 61.1949C49.805 61.0528 49.7986 60.8995 49.8358 60.7538L51.1927 55.7133L47.2608 59.2017C47.1216 59.3281 46.9402 59.3981 46.7519 59.3981C46.5637 59.3981 46.3822 59.3281 46.2431 59.2017L38.3791 52.2402C38.293 52.1663 38.2248 52.0741 38.1794 51.9703C38.134 51.8666 38.1127 51.754 38.117 51.6408C38.1164 51.5274 38.1426 51.4154 38.1935 51.314C38.2444 51.2125 38.3186 51.1244 38.41 51.0569C46.6902 44.4949 50.3755 35.6892 54.2921 26.3764C56.4433 20.804 59.0906 15.4346 62.2023 10.3326C67.7379 1.8189 82.0626 -3.68271 97.6672 2.92538C105.68 6.3429 112.086 12.6729 115.585 20.6289C119.486 29.5729 119.316 39.5619 118.545 49.013C117.589 60.7692 113.673 66.4245 104.575 69.16C103.267 69.5401 101.939 69.8479 100.597 70.082C94.9604 71.1125 89.2426 71.6371 83.512 71.6495ZM51.4549 60.7385C66.088 71.88 86.0871 71.1731 100.35 68.5914C101.635 68.3622 102.906 68.0646 104.159 67.7C112.532 65.1797 116.14 59.9086 117.034 48.9054C117.79 39.6848 117.975 29.8956 114.212 21.2436C110.867 13.6476 104.748 7.60414 97.0967 4.33921C85.8558 -0.394028 70.205 0.850756 63.4975 11.1624C60.441 16.1793 57.8352 21.4556 55.7107 26.9297C52.01 35.766 48.1705 44.8944 40.0753 51.6562L46.7519 57.5728L52.0717 52.9625C52.1956 52.8471 52.3542 52.7756 52.523 52.7591C52.6917 52.7427 52.8612 52.7821 53.0052 52.8714C53.1493 52.9606 53.2597 53.0947 53.3195 53.2529C53.3793 53.411 53.3851 53.5844 53.3361 53.7462L51.4549 60.7385Z" fill="#0B0B0B"/>
<path d="M34.8323 179.238C32.6582 179.238 16.4677 180.99 8.88129 184.755C1.29489 188.52 -0.370417 188.797 1.17153 193.868C2.71349 198.94 16.0514 200.185 26.2128 198.264C32.7621 196.932 39.0795 194.648 44.963 191.486L34.8323 179.238Z" fill="white"/>
<path d="M16.8069 199.816C9.22054 199.816 1.7729 198.202 0.523923 194.068C-1.01803 188.843 0.770636 187.921 6.86135 184.971L8.57291 184.125C16.2827 180.299 32.504 178.47 34.7861 178.547C34.8885 178.547 34.9898 178.569 35.083 178.611C35.1761 178.653 35.259 178.715 35.3258 178.793L45.4718 191.087C45.5353 191.166 45.5806 191.258 45.6045 191.356C45.6285 191.454 45.6306 191.556 45.6106 191.656C45.5956 191.756 45.5571 191.851 45.4982 191.934C45.4392 192.017 45.3615 192.085 45.2714 192.132C39.3273 195.337 32.9419 197.652 26.3208 199.001C23.1813 199.563 19.9966 199.836 16.8069 199.816ZM34.5085 179.945C31.4246 180.038 16.2981 181.866 9.20512 185.386L7.47813 186.231C1.41826 189.197 0.631863 189.581 1.86542 193.669C3.23776 198.187 16.0205 199.478 26.1203 197.588C32.3115 196.313 38.295 194.187 43.899 191.271L34.5085 179.945Z" fill="#0B0B0B"/>
<path d="M32.658 179.208C31.2338 179.556 29.9937 180.426 29.1849 181.645C28.3761 182.864 28.0581 184.342 28.2943 185.785C29.0036 191.164 40.414 191.394 41.077 191.409C41.7401 191.425 32.658 179.208 32.658 179.208Z" fill="white"/>
<path d="M117.265 191.517C117.604 191.686 120.703 195.713 134.226 197.326C147.749 198.94 152.73 201.829 155.814 194.744C158.898 187.66 156.754 183.096 150.093 181.067C143.432 179.039 125.052 177.364 121.444 180.745C117.835 184.125 117.265 191.517 117.265 191.517Z" fill="white"/>
<path d="M149.169 200C146.683 199.889 144.209 199.597 141.767 199.124C139.562 198.771 137.049 198.356 134.15 198.018C128.491 197.341 120.935 195.789 116.988 192.209L116.865 192.101C116.753 192.042 116.664 191.949 116.608 191.836C116.553 191.723 116.535 191.595 116.556 191.471C116.556 191.148 117.188 183.787 120.951 180.237C124.944 176.487 143.818 178.424 150.248 180.391C151.686 180.706 153.039 181.325 154.218 182.205C155.396 183.085 156.371 184.206 157.079 185.493C158.266 188.013 158.035 191.225 156.416 195.021C154.797 198.817 152.607 200 149.169 200ZM118.006 191.225C121.691 194.514 128.907 195.974 134.32 196.619C137.249 196.973 139.763 197.387 142.029 197.741C150.047 199.032 153.054 199.524 155.198 194.468C156.647 191.056 156.878 188.228 155.876 186.092C155.251 184.988 154.397 184.028 153.37 183.279C152.344 182.529 151.169 182.005 149.924 181.743C143.155 179.684 125.253 178.239 121.969 181.267C118.977 184.018 118.16 189.827 118.006 191.225Z" fill="#0B0B0B"/>
<path d="M112.948 188.628C112.948 188.628 119.116 193.73 123.171 193.131C127.226 192.531 132.931 190.319 130.649 185.893C128.367 181.467 113.688 178.854 113.688 178.854L112.948 188.628Z" fill="white"/>
<path d="M39.2114 145.722C39.2114 145.722 45.6722 170.894 69.2949 175.704C92.9176 180.514 105.13 179.223 113.503 163.333C121.875 147.443 116.324 137.73 116.324 137.73L41.7865 136.194L39.2114 145.722Z" fill="white"/>
<path d="M88.8007 178.931C82.1815 178.744 75.5966 177.91 69.1409 176.441C45.3177 171.601 38.5177 146.167 38.456 145.921C38.4251 145.79 38.4251 145.653 38.456 145.522L41.0465 136.055C41.0886 135.889 41.1864 135.742 41.3238 135.638C41.4612 135.535 41.63 135.481 41.8021 135.487L116.34 137.023C116.475 137.024 116.607 137.06 116.723 137.128C116.839 137.195 116.936 137.291 117.003 137.408C117.234 137.823 122.647 147.689 114.181 163.763C108.26 174.935 100.335 178.931 88.8007 178.931ZM39.998 145.722C40.661 148.027 47.7077 170.51 69.4493 174.92C92.1314 179.53 104.405 178.931 112.824 162.964C119.964 149.394 116.695 140.389 115.908 138.468L42.4497 137.039L39.998 145.722Z" fill="#0B0B0B"/>
<path d="M121.953 145.952C121.953 145.952 134.165 106.626 132.561 81.9611C130.958 57.296 114.814 55.498 109.216 55.037C103.619 54.576 73.9827 50.0425 62.8652 63.0743C51.7477 76.1061 32.1958 137.131 32.1958 137.131L121.953 145.952Z" fill="#D8A041"/>
<path d="M77.9144 55.0986L79.8418 68.2687C81.1542 70.2464 83.1451 71.6793 85.4415 72.2988C87.7379 72.9184 90.1821 72.6821 92.3162 71.6342C100.643 68.1765 100.797 61.8297 100.797 61.8297L96.8496 37.5181C90.6202 31.1962 86.2749 23.2744 84.2981 14.6356C84.2981 14.6356 76.943 27.4215 66.2881 30.2953C66.6743 36.0907 67.5512 41.8434 68.9094 47.4917C70.7598 53.9 77.6985 55.0218 77.9144 55.0986Z" fill="white"/>
<path d="M87.7216 73.3706C86.0122 73.3313 84.3372 72.8837 82.8373 72.0654C81.3374 71.2471 80.0565 70.0821 79.1021 68.6681C79.0438 68.5805 79.0069 68.4805 78.9941 68.3762L77.1438 55.7286C75.0736 55.3039 73.1531 54.3409 71.577 52.9374C70.0008 51.534 68.8253 49.7399 68.1696 47.7374C66.7891 42.0351 65.9018 36.2254 65.5175 30.372C65.5079 30.1959 65.5594 30.022 65.6633 29.8793C65.7672 29.7366 65.9171 29.6338 66.088 29.5882C76.3111 26.8374 83.5583 14.4203 83.6354 14.2206C83.712 14.087 83.827 13.9795 83.9656 13.9118C84.1041 13.8441 84.2599 13.8194 84.4127 13.8409C84.5655 13.8625 84.7083 13.9292 84.8226 14.0325C84.937 14.1358 85.0176 14.2709 85.054 14.4203C86.9948 22.8773 91.2238 30.6426 97.2817 36.8725C97.4107 36.9963 97.4971 37.1577 97.5284 37.3335L101.476 61.6451C101.476 62.0754 101.229 68.6835 92.5325 72.2795C91.0181 72.96 89.3823 73.331 87.7216 73.3706ZM80.4898 67.992C81.7201 69.7798 83.56 71.0614 85.6674 71.5985C87.7748 72.1356 90.0062 71.8916 91.9465 70.9118C99.6563 67.7 99.9493 61.8756 99.9493 61.8142L96.0481 37.8867C90.2882 31.9305 86.167 24.5944 84.0826 16.5872C81.8005 20.0449 75.5864 28.3127 67.1211 30.8945C67.5049 36.4319 68.3559 41.9274 69.6653 47.3225C71.0377 52.0404 75.4014 53.7308 77.8685 54.3148C77.9966 54.34 78.1209 54.3813 78.2386 54.4377C78.3379 54.4964 78.4227 54.5766 78.4868 54.6723C78.5508 54.7681 78.5925 54.877 78.6086 54.9909L80.4898 67.992Z" fill="#0B0B0B"/>
<path d="M91.6224 37.8867C91.7287 36.6522 92.2378 35.4863 93.0719 34.5673C93.8843 33.7515 94.8276 33.0763 95.8628 32.5695C96.4021 32.2388 97.0072 32.0291 97.636 31.9548C98.0808 31.9569 98.5208 32.0456 98.9313 32.2161C99.9382 32.5214 100.802 33.1755 101.368 34.0602C101.725 34.8292 101.894 35.672 101.861 36.519C101.91 37.4328 101.827 38.3488 101.614 39.2391C101.39 40.1272 100.991 40.962 100.44 41.6951C99.8893 42.4282 99.1979 43.0449 98.406 43.5096C97.6142 43.9742 96.7376 44.2775 95.8273 44.4018C94.9169 44.5261 93.9908 44.4689 93.1027 44.2336" fill="white"/>
<path d="M94.8758 45.2327C94.2094 45.2299 93.5461 45.1421 92.9021 44.9714C92.7064 44.9175 92.54 44.7887 92.439 44.6132C92.3379 44.4377 92.3104 44.2296 92.3624 44.034C92.3854 43.9352 92.4286 43.8422 92.4893 43.7607C92.5499 43.6793 92.6268 43.6112 92.7151 43.5607C92.8034 43.5103 92.9011 43.4785 93.0023 43.4674C93.1035 43.4562 93.2058 43.466 93.303 43.4961C94.9005 43.8956 96.591 43.6644 98.0214 42.8507C99.4331 42.0052 100.457 40.6428 100.874 39.0549C101.058 38.228 101.136 37.381 101.105 36.5346C101.138 35.8146 100.995 35.0976 100.689 34.4446C100.22 33.7098 99.5039 33.1652 98.669 32.9078C98.352 32.7722 98.0116 32.6991 97.6667 32.6926C97.1563 32.761 96.667 32.9393 96.2327 33.2151C95.2726 33.6825 94.3972 34.3057 93.6422 35.0593C92.9268 35.8524 92.4886 36.8553 92.3933 37.9176C92.3701 38.1186 92.2712 38.3034 92.1167 38.4346C91.9621 38.5658 91.7634 38.6337 91.5606 38.6246C91.3575 38.605 91.1699 38.5075 91.0375 38.3527C90.9051 38.1978 90.8384 37.9977 90.8513 37.7947C90.9751 36.3941 91.5545 35.072 92.5012 34.0296C93.3658 33.1412 94.3778 32.4082 95.4926 31.8628C96.133 31.4687 96.8558 31.2268 97.6051 31.1559C98.1342 31.1579 98.6579 31.2623 99.147 31.4632C100.333 31.828 101.347 32.6087 102 33.6608C102.417 34.5388 102.623 35.5018 102.601 36.4731C102.633 37.4542 102.539 38.4353 102.323 39.3929C101.904 41.0557 100.938 42.5307 99.58 43.5834C98.2221 44.636 96.5499 45.2057 94.8296 45.2019L94.8758 45.2327Z" fill="#0B0B0B"/>
<path d="M79.7032 34.1217C79.7032 34.1217 75.9717 41.4675 77.1898 42.5125C78.408 43.5575 81.3531 42.4049 81.3531 42.4049" fill="white"/>
<path d="M78.7316 43.7111C78.0014 43.7532 77.28 43.5354 76.6962 43.0964C75.293 41.8977 77.1896 37.3796 79.0091 33.7836C79.1015 33.6026 79.2621 33.4655 79.4557 33.4021C79.6493 33.3388 79.8601 33.3544 80.0422 33.4455C80.1336 33.4895 80.2151 33.5515 80.2819 33.6276C80.3488 33.7037 80.3995 33.7924 80.4312 33.8885C80.4629 33.9846 80.4748 34.0861 80.4662 34.1869C80.4577 34.2877 80.4288 34.3857 80.3814 34.4751C78.6853 37.8253 77.4517 41.3291 77.7447 41.9899C78.2998 42.4356 80.0268 42.0975 81.0753 41.6979C81.2655 41.6225 81.4779 41.6255 81.6659 41.7062C81.8538 41.7869 82.0019 41.9387 82.0776 42.1282C82.1532 42.3178 82.1503 42.5295 82.0693 42.7168C81.9883 42.9041 81.836 43.0517 81.6458 43.1271C80.712 43.4758 79.7281 43.6729 78.7316 43.7111Z" fill="#0B0B0B"/>
<path d="M85.5808 33.9794C86.2089 33.9284 86.6598 33.1738 86.5878 32.2941C86.5159 31.4143 85.9484 30.7425 85.3203 30.7935C84.6922 30.8445 84.2413 31.5991 84.3133 32.4788C84.3852 33.3586 84.9527 34.0304 85.5808 33.9794Z" fill="#0B0B0B"/>
<path d="M73.8107 35.6224C74.4391 35.5758 74.8953 34.8244 74.8295 33.9441C74.7637 33.0639 74.2009 32.3882 73.5725 32.4348C72.944 32.4815 72.4879 33.2329 72.5537 34.1131C72.6195 34.9933 73.1823 35.6691 73.8107 35.6224Z" fill="#0B0B0B"/>
<path d="M80.6747 49.5816C78.4615 49.5279 76.2791 49.0532 74.2447 48.1831C74.1521 48.1402 74.069 48.0795 74.0002 48.0043C73.9313 47.9292 73.8782 47.8412 73.8438 47.7454C73.8093 47.6496 73.7943 47.548 73.7996 47.4463C73.8049 47.3447 73.8304 47.2452 73.8746 47.1535C73.9161 47.0618 73.9756 46.9792 74.0495 46.9108C74.1235 46.8423 74.2105 46.7894 74.3054 46.755C74.4002 46.7206 74.5011 46.7055 74.6019 46.7106C74.7027 46.7157 74.8015 46.7409 74.8923 46.7847C74.8923 46.7847 80.428 49.2589 84.2828 47.2457C85.311 46.6324 86.1783 45.7846 86.8136 44.772C87.4489 43.7595 87.834 42.6111 87.9372 41.4213C87.9741 41.2176 88.0906 41.0367 88.2612 40.9185C88.4318 40.8004 88.6425 40.7546 88.847 40.7913C89.0515 40.828 89.233 40.9441 89.3515 41.1141C89.4701 41.2842 89.516 41.4942 89.4792 41.698C89.3362 43.1211 88.8562 44.4901 88.0788 45.6923C87.3015 46.8945 86.2489 47.8957 85.0075 48.6134C83.6635 49.2819 82.1764 49.6142 80.6747 49.5816Z" fill="#0B0B0B"/>
<path d="M77.9147 55.0986C77.9147 55.0986 86.4108 55.8055 90.8516 52.3478C90.8516 52.3478 87.1047 64.1655 79.2253 64.1348L77.9147 55.0986Z" fill="#0B0B0B"/>
<path d="M79.1789 64.9032C78.9909 64.9024 78.8091 64.8358 78.6654 64.715C78.5216 64.5942 78.425 64.4269 78.3925 64.2423L77.0664 55.2215C77.0464 55.1061 77.0537 54.9876 77.0878 54.8754C77.1218 54.7633 77.1816 54.6606 77.2625 54.5755C77.3433 54.4905 77.443 54.4254 77.5535 54.3855C77.664 54.3456 77.7823 54.3319 77.8991 54.3456C77.9762 54.3456 86.1485 54.9756 90.2347 51.7331C90.3658 51.6346 90.5254 51.5813 90.6896 51.5813C90.8537 51.5813 91.0134 51.6346 91.1445 51.7331C91.2797 51.8263 91.3822 51.9595 91.4375 52.1139C91.4928 52.2683 91.4982 52.4361 91.4528 52.5936C91.3449 53.0547 87.5054 64.9032 79.1789 64.9032ZM78.7317 55.9284L79.8111 63.3356C84.6991 62.89 87.8447 57.2962 89.2324 54.1151C85.9014 55.457 82.3215 56.0752 78.7317 55.9284Z" fill="#0B0B0B"/>
<path d="M124.914 61.3685C131.683 62.7055 152.545 129.201 142.985 136.255C128.075 147.258 82.5408 132.229 82.5408 132.229L87.1666 112.666C87.1666 112.666 120.026 114.202 120.627 107.502C121.228 100.802 102.262 69.2674 104.914 64.6725C107.567 60.0776 124.914 61.3685 124.914 61.3685Z" fill="#D8A041"/>
<path d="M90.4967 119.32C85.0295 119.544 79.5539 119.173 74.1675 118.214C70.1897 117.171 66.0987 116.619 61.986 116.569C56.5602 116.722 51.2043 117.831 46.1656 119.843C45.9575 119.903 45.7705 120.02 45.6259 120.181C45.1325 120.857 46.2581 121.518 47.1679 121.564C49.338 121.655 51.5098 121.427 53.6132 120.888C48.3754 122.705 43.4068 125.217 38.8414 128.356C38.3325 128.71 37.7466 129.278 37.9933 129.893C38.24 130.508 39.2731 130.4 39.9515 130.108L51.8092 124.975C48.741 126.135 45.8859 127.791 43.3593 129.878C43.0046 130.17 42.6037 130.585 42.6962 131.046C42.8504 131.829 44.0377 131.706 44.7624 131.353C48.3835 129.66 51.846 127.649 55.1089 125.344L47.723 130.738C47.6305 131.338 48.2473 131.845 48.8486 131.875C49.4494 131.849 50.0312 131.658 50.5293 131.322L58.7171 126.819L53.5978 130.246C52.796 130.784 51.8708 131.66 52.2409 132.552C52.611 133.443 54.23 133.32 55.3248 132.874C59.5254 131.149 63.9059 129.897 68.3851 129.14C69.9609 128.668 71.5851 128.374 73.2269 128.264C75.7063 128.592 78.152 129.138 80.5357 129.893L91.4527 132.613" fill="white"/>
<path d="M53.5517 133.873C53.22 133.88 52.8901 133.822 52.5802 133.704C52.3589 133.613 52.1578 133.479 51.9884 133.31C51.8191 133.142 51.6848 132.941 51.5934 132.721C51.4409 132.314 51.4409 131.867 51.5934 131.46L50.9149 131.829C50.3011 132.234 49.5848 132.458 48.8487 132.475C48.5717 132.457 48.3013 132.382 48.0546 132.255C47.8079 132.128 47.59 131.952 47.4147 131.737C47.23 131.501 47.1128 131.22 47.0755 130.923C46.4279 131.261 45.7648 131.568 45.1172 131.875C44.7632 132.067 44.3718 132.18 43.9699 132.206C43.568 132.233 43.1651 132.172 42.7889 132.029C42.6003 131.936 42.4364 131.799 42.3105 131.631C42.1846 131.463 42.1002 131.268 42.0641 131.061C42.0172 130.816 42.0305 130.564 42.103 130.326C42.1756 130.088 42.3051 129.871 42.4805 129.693L40.2755 130.646C39.6198 130.951 38.8775 131.016 38.1784 130.83C38.0003 130.765 37.838 130.663 37.7025 130.53C37.5669 130.398 37.4611 130.238 37.392 130.062C37.0528 129.278 37.392 128.418 38.4868 127.711C41.5422 125.621 44.7776 123.806 48.1548 122.286H47.0755C46.6481 122.273 46.2304 122.156 45.8593 121.944C45.4882 121.732 45.1751 121.433 44.9476 121.072C44.8454 120.867 44.8028 120.637 44.8246 120.409C44.8464 120.181 44.9317 119.963 45.0709 119.781C45.295 119.517 45.5887 119.32 45.919 119.212C51.0315 117.152 56.4734 116.023 61.9861 115.878C65.625 115.887 69.2494 116.335 72.7798 117.215L74.3218 117.537C79.6638 118.479 85.0913 118.85 90.5122 118.644C90.6936 118.644 90.8678 118.715 90.9975 118.841C91.1272 118.967 91.2021 119.139 91.2061 119.32C91.2082 119.413 91.1918 119.505 91.1581 119.592C91.1243 119.678 91.0738 119.757 91.0093 119.824C90.9449 119.892 90.8678 119.945 90.7825 119.983C90.6972 120.02 90.6054 120.04 90.5122 120.042C84.9926 120.259 79.4658 119.878 74.0288 118.905L72.4868 118.598C69.0483 117.733 65.517 117.289 61.9707 117.276C56.6287 117.424 51.3555 118.517 46.397 120.503H46.2582C46.5039 120.688 46.7992 120.795 47.1063 120.811C49.1839 120.9 51.2631 120.678 53.2741 120.15C53.4498 120.106 53.6354 120.132 53.7931 120.22C53.9508 120.309 54.0685 120.454 54.1222 120.626C54.1762 120.802 54.1598 120.991 54.0763 121.154C53.9929 121.318 53.849 121.443 53.675 121.502C48.5237 123.281 43.6376 125.747 39.1498 128.833C38.6718 129.155 38.5485 129.417 38.5485 129.463C38.5485 129.509 39.0419 129.54 39.5816 129.309L48.7408 125.344C49.6351 124.914 50.5449 124.514 51.47 124.161C51.6442 124.099 51.8354 124.106 52.0045 124.181C52.1736 124.255 52.3078 124.391 52.3798 124.56C52.4464 124.732 52.4435 124.922 52.3715 125.092C52.2995 125.261 52.1642 125.396 51.9943 125.467L49.3421 126.62C47.3314 127.613 45.4428 128.835 43.714 130.262C43.3131 130.6 43.2977 130.754 43.2977 130.754C43.668 130.805 44.0451 130.741 44.3771 130.569C47.9521 128.887 51.3728 126.897 54.6002 124.622C54.7518 124.513 54.9405 124.467 55.1254 124.496C55.3102 124.525 55.4761 124.625 55.587 124.776C55.6928 124.928 55.7358 125.115 55.7071 125.298C55.6784 125.481 55.5802 125.646 55.4328 125.759L48.6174 130.907C48.7105 130.997 48.8289 131.056 48.9567 131.076C49.4292 131.041 49.8827 130.876 50.2673 130.6L58.4551 126.097C58.6138 126.011 58.7995 125.988 58.9743 126.034C59.1491 126.08 59.2998 126.19 59.3957 126.343C59.4936 126.498 59.5258 126.685 59.4854 126.864C59.4449 127.043 59.335 127.198 59.1798 127.296L54.0605 130.723C53.4283 131.153 52.7961 131.768 52.9657 132.26C52.9849 132.311 53.0158 132.357 53.056 132.394C53.0961 132.432 53.1444 132.459 53.197 132.475C53.8425 132.597 54.5104 132.5 55.0936 132.198C59.3404 130.443 63.7737 129.174 68.3081 128.418C68.8324 128.325 69.3567 128.187 69.8501 128.049C70.9623 127.7 72.1228 127.529 73.2887 127.542C75.0762 127.707 76.8367 128.088 78.5313 128.679C79.3023 128.894 80.0732 129.125 80.7671 129.294L91.6841 132.029C91.7736 132.051 91.8579 132.09 91.932 132.144C92.0062 132.198 92.0688 132.267 92.1162 132.345C92.1635 132.424 92.1947 132.511 92.2079 132.602C92.2211 132.693 92.216 132.785 92.193 132.874C92.1733 132.965 92.1353 133.05 92.0813 133.125C92.0273 133.2 91.9585 133.263 91.879 133.311C91.7995 133.358 91.7112 133.389 91.6193 133.401C91.5274 133.413 91.4341 133.407 91.3449 133.381L80.4279 130.661C79.6877 130.477 78.8859 130.246 78.1304 130.016C76.5377 129.47 74.8872 129.109 73.2115 128.94C72.1648 128.936 71.1241 129.097 70.1276 129.417C69.5725 129.555 69.0329 129.693 68.4623 129.801C64.035 130.543 59.7056 131.78 55.5562 133.489C54.9159 133.734 54.2373 133.864 53.5517 133.873Z" fill="#0B0B0B"/>
<path d="M66.2879 68.6989C64.4375 70.4969 59.2874 99.219 57.36 112.789L66.2879 68.6989Z" fill="white"/>
<path d="M57.3608 113.495H57.2528C57.1614 113.484 57.0731 113.455 56.9931 113.409C56.9132 113.363 56.8432 113.302 56.7872 113.229C56.7312 113.156 56.6904 113.073 56.6671 112.984C56.6438 112.895 56.6385 112.803 56.6515 112.712C58.0855 102.738 63.5286 70.4045 65.7952 68.1455C65.8573 68.0662 65.9357 68.001 66.0251 67.9543C66.1145 67.9076 66.2129 67.8805 66.3136 67.8747C66.4144 67.8689 66.5153 67.8846 66.6094 67.9208C66.7036 67.957 66.789 68.0128 66.8598 68.0845C66.9306 68.1562 66.9852 68.2421 67.0201 68.3365C67.0549 68.4309 67.0691 68.5316 67.0618 68.6319C67.0544 68.7323 67.0257 68.8299 66.9774 68.9182C66.9292 69.0066 66.8626 69.0837 66.7821 69.1444C65.2401 70.8194 60.2288 97.5591 58.0546 112.835C58.0431 113.011 57.9654 113.177 57.8369 113.3C57.7084 113.422 57.5385 113.492 57.3608 113.495Z" fill="#0B0B0B"/>
<path d="M107.304 139.39H107.211L91.2984 136.317C91.1227 136.288 90.963 136.198 90.8473 136.063C90.7316 135.928 90.6675 135.756 90.6663 135.579L90.5275 116.508C90.5268 116.314 90.5996 116.127 90.7311 115.985C90.8626 115.843 91.0432 115.755 91.2368 115.739L119.979 113.357L108.229 69.7439C108.177 69.5442 108.206 69.3323 108.31 69.1539C108.414 68.9755 108.584 68.8452 108.784 68.7911C108.882 68.7657 108.985 68.7599 109.085 68.774C109.186 68.788 109.282 68.8217 109.37 68.8731C109.457 68.9245 109.533 68.9926 109.594 69.0734C109.655 69.1543 109.7 69.2464 109.725 69.3444L121.721 113.911C121.746 114.02 121.747 114.134 121.724 114.244C121.702 114.354 121.656 114.458 121.591 114.549C121.526 114.64 121.442 114.717 121.344 114.774C121.247 114.83 121.139 114.866 121.027 114.879L92.0849 117.276L92.2082 134.995L107.504 137.93C107.709 137.951 107.897 138.051 108.027 138.21C108.157 138.368 108.219 138.572 108.198 138.775C108.178 138.979 108.077 139.167 107.918 139.296C107.759 139.426 107.555 139.487 107.35 139.467L107.304 139.39Z" fill="#0B0B0B"/>
<path d="M18.7804 144.339L4.93372 107.41L61.4617 108.517L74.1519 150.639L18.7804 144.339Z" fill="white"/>
<path d="M74.1521 151.408H74.0596L18.6881 145.107C18.5464 145.094 18.4115 145.041 18.2994 144.954C18.1872 144.867 18.1027 144.749 18.0559 144.615L4.17832 107.733C4.13107 107.617 4.11475 107.491 4.13097 107.367C4.14718 107.243 4.19537 107.126 4.27083 107.026C4.33262 106.913 4.42787 106.821 4.5437 106.763C4.65952 106.705 4.79034 106.684 4.91846 106.703L61.4464 107.81C61.6106 107.813 61.7694 107.868 61.8997 107.968C62.0301 108.067 62.1252 108.206 62.1711 108.363L74.846 150.47C74.8853 150.593 74.8932 150.723 74.8689 150.849C74.8447 150.975 74.7891 151.093 74.7072 151.193C74.5559 151.331 74.3577 151.408 74.1521 151.408ZM19.3203 143.616L73.0573 149.763L60.953 109.27L6.10576 108.194L19.3203 143.616Z" fill="#0B0B0B"/>
<path d="M21.7877 144.677C21.7877 144.677 6.44526 157.094 11.8729 168.481C17.3006 179.869 115.184 192.87 115.184 192.87L119.609 177.994C119.609 177.994 42.7736 138.868 21.7877 144.677Z" fill="white"/>
<path d="M115.23 193.638H115.137C111.113 193.1 16.73 180.437 11.179 168.804C5.62794 157.17 20.662 144.6 21.3096 144.077C21.392 144.013 21.4863 143.966 21.5871 143.939C42.6194 138.099 116.849 175.704 119.994 177.302C120.158 177.382 120.288 177.516 120.361 177.682C120.435 177.848 120.447 178.035 120.395 178.209L115.97 193.085C115.926 193.246 115.829 193.387 115.695 193.487C115.561 193.587 115.397 193.64 115.23 193.638ZM22.1577 145.368C20.7391 146.567 7.70958 157.97 12.5667 168.143C16.8533 177.102 87.1663 188.29 114.675 192.024L118.73 178.393C111.668 174.843 41.8946 140.205 22.1577 145.368Z" fill="#0B0B0B"/>
<path d="M124.744 138.96C124.744 138.96 48.6174 169.695 29.7439 177.733L40.7226 194.637C40.7226 194.637 111.02 193.269 131.173 175.658C151.327 158.047 149.985 128.771 124.744 138.96Z" fill="white"/>
<path d="M40.7225 195.421C40.5935 195.42 40.4667 195.388 40.3535 195.326C40.2404 195.264 40.1446 195.175 40.0749 195.067L29.0962 178.163C29.0324 178.072 28.9908 177.968 28.9748 177.859C28.9587 177.749 28.9686 177.638 29.0037 177.533C29.0318 177.423 29.0856 177.321 29.1606 177.235C29.2356 177.15 29.3298 177.083 29.4355 177.041C48.0931 169.05 123.649 138.622 124.451 138.268C133.425 134.642 140.502 135.687 143.864 141.111C149.754 150.639 142.322 166.975 131.682 176.273C123.202 183.68 105.299 189.151 78.4849 192.547C58.5784 195.067 40.9076 195.436 40.738 195.436L40.7225 195.421ZM30.8849 178.086L41.1235 193.868C47.0445 193.715 111.76 191.609 130.665 175.105C143.247 164.101 146.978 149.056 142.553 141.91C139.577 137.1 133.301 136.317 125.036 139.682C124.281 139.974 50.8532 169.572 30.8849 178.086Z" fill="#0B0B0B"/>
<path d="M18.5033 129.586C18.4238 130.023 18.2385 130.434 17.9636 130.784L16.4216 132.982C16.4664 132.75 16.564 132.532 16.707 132.344C16.85 132.156 17.0345 132.003 17.2462 131.898C17.458 131.792 17.6912 131.737 17.9279 131.735C18.1646 131.734 18.3984 131.787 18.6112 131.891C19.0339 132.115 19.3852 132.452 19.625 132.865C19.8649 133.278 19.9838 133.75 19.9681 134.227C19.9371 135.179 19.7115 136.115 19.3051 136.977C18.2566 139.698 15.882 143.678 12.428 141.588C10.0996 140.189 9.45202 135.241 9.11279 132.797C8.46517 127.941 9.94545 121.733 16.1904 122.686C16.0085 125.068 15.1172 127.342 13.6307 129.217C14.6947 128.249 18.7963 126.727 18.5033 129.586Z" fill="white"/>
<path d="M14.3709 142.894C13.5776 142.877 12.8042 142.643 12.1351 142.218C9.52919 140.681 8.85074 135.687 8.4961 132.997C8.06435 129.924 8.49609 125.805 10.7473 123.546C11.4837 122.849 12.3812 122.344 13.3604 122.076C14.3395 121.808 15.3699 121.785 16.36 122.009C16.5372 122.036 16.6976 122.128 16.8092 122.268C16.9207 122.408 16.9751 122.584 16.9614 122.762C16.8323 124.368 16.3924 125.934 15.6662 127.373C16.4741 127.087 17.3562 127.087 18.1641 127.373C18.5591 127.571 18.8766 127.894 19.0665 128.292C19.2564 128.69 19.3078 129.14 19.2127 129.57C19.1387 130.128 18.9209 130.658 18.5805 131.107L18.9505 131.23C19.4993 131.505 19.9585 131.93 20.275 132.455C20.5916 132.98 20.7525 133.584 20.7392 134.196C20.7125 135.257 20.4712 136.303 20.0299 137.269C19.3668 138.975 17.9174 141.88 15.5736 142.74C15.1842 142.858 14.7776 142.91 14.3709 142.894ZM15.034 123.316C14.4271 123.293 13.8219 123.393 13.2549 123.61C12.6878 123.826 12.1705 124.155 11.7342 124.576C9.80675 126.466 9.51377 130.031 9.88384 132.736C10.1922 135.087 10.8399 139.805 12.8598 141.019C13.1839 141.244 13.5556 141.391 13.9459 141.45C14.3363 141.508 14.7349 141.477 15.1111 141.357C16.4217 140.912 17.7632 139.175 18.7192 136.747C19.0806 135.969 19.2849 135.129 19.3206 134.273C19.337 133.931 19.2595 133.592 19.0965 133.291C18.9334 132.991 18.691 132.74 18.3954 132.567C18.2711 132.514 18.1374 132.487 18.0022 132.487C17.8671 132.487 17.7333 132.514 17.609 132.567L17.0693 133.381C16.9779 133.509 16.8472 133.604 16.6969 133.651C16.5467 133.698 16.3851 133.695 16.2367 133.643C16.0881 133.589 15.9619 133.487 15.8781 133.353C15.7943 133.219 15.7577 133.062 15.7741 132.905C15.8078 132.627 15.9009 132.36 16.0473 132.122C16.1936 131.883 16.3896 131.678 16.6222 131.522L17.3777 130.4C17.5796 130.14 17.7265 129.842 17.8095 129.524C17.8095 128.879 17.6399 128.771 17.5628 128.74C16.9612 128.665 16.3504 128.715 15.7691 128.886C15.1878 129.058 14.6487 129.349 14.1859 129.739C14.0569 129.861 13.8858 129.929 13.7079 129.929C13.53 129.929 13.3589 129.861 13.2299 129.739C13.0963 129.618 13.0127 129.452 12.9956 129.273C12.9785 129.094 13.0291 128.915 13.1374 128.771C14.399 127.191 15.2088 125.301 15.4811 123.3L15.034 123.316Z" fill="#0B0B0B"/>
</svg>
