<svg width="46" height="56" viewBox="0 0 46 56" fill="none" xmlns="http://www.w3.org/2000/svg">
<path d="M44.8438 6.5625C41.8283 6.5625 39.375 4.10922 39.375 1.09375C39.375 0.489781 38.8852 0 38.2812 0H7.65625C7.05228 0 6.5625 0.489781 6.5625 1.09375C6.5625 4.10922 4.10922 6.5625 1.09375 6.5625C0.489781 6.5625 0 7.05228 0 7.65625V25.5052C0 39.4151 9.06664 51.8793 22.6546 55.954C22.7571 55.9846 22.8629 56 22.9688 56C23.0746 56 23.1806 55.9846 23.283 55.9538C36.5766 51.9661 45.9375 39.7194 45.9375 25.5052V7.65625C45.9375 7.05228 45.4477 6.5625 44.8438 6.5625ZM43.75 25.5052C43.75 38.5698 35.4133 49.884 22.9688 53.7625C10.6234 49.9149 2.1875 38.4982 2.1875 25.5052V8.67212C5.53558 8.19109 8.19109 5.53558 8.67212 2.1875H37.2654C37.7464 5.53558 40.4019 8.19109 43.75 8.67212V25.5052Z" fill="#D8A041"/>
<path d="M40.9076 10.1161C38.6267 9.11717 36.8203 7.31084 35.8214 5.02994C35.6471 4.63203 35.254 4.375 34.8195 4.375H27.3416C26.7376 4.375 26.2478 4.86478 26.2478 5.46875C26.2478 6.07272 26.7376 6.5625 27.3416 6.5625H34.128C35.2835 8.82448 37.113 10.6539 39.375 11.8095V25.5052C39.375 36.2089 32.9493 45.4445 22.9688 49.1415C12.9882 45.4444 6.5625 36.2089 6.5625 25.5052V11.8095C8.82448 10.6539 10.6539 8.82448 11.8095 6.5625H28.9062C29.5102 6.5625 30 6.07272 30 5.46875C30 4.86478 29.5102 4.375 28.9062 4.375H11.118C10.6835 4.375 10.2904 4.63214 10.1161 5.02994C9.11717 7.31084 7.31084 9.11717 5.02994 10.1161C4.63214 10.2904 4.375 10.6836 4.375 11.118V25.5052C4.375 37.2316 11.6278 47.4516 22.6039 51.3358C22.7219 51.3776 22.8453 51.3985 22.9688 51.3985C23.0922 51.3985 23.2156 51.3776 23.3336 51.3358C34.3005 47.4549 41.5625 37.2411 41.5625 25.5052V11.118C41.5625 10.6835 41.3054 10.2904 40.9076 10.1161Z" fill="#D8A041"/>
<path d="M43.8803 6.39563C44.3077 5.96863 45 5.96863 45.4272 6.39563C45.8543 6.82285 45.8543 7.51541 45.4272 7.94252L7.51554 45.0001C7.30193 45.2136 7.02215 45.3204 6.74215 45.3204C6.46215 45.3204 6.18237 45.2136 5.96865 45.0002C5.54154 44.573 5.54154 43.8804 5.96865 43.4533L6.74215 42.6798L43.8803 6.39563Z" fill="white"/>
<path d="M22.9688 15.9688C17.5409 15.9688 13.125 20.3847 13.125 25.8125C13.125 31.2403 17.5409 35.6562 22.9688 35.6562C28.3966 35.6562 32.8125 31.2403 32.8125 25.8125C32.8125 20.3847 28.3966 15.9688 22.9688 15.9688ZM22.9688 33.4688C18.7471 33.4688 15.3125 30.0342 15.3125 25.8125C15.3125 21.5908 18.7471 18.1562 22.9688 18.1562C27.1904 18.1562 30.625 21.5908 30.625 25.8125C30.625 30.0342 27.1904 33.4688 22.9688 33.4688Z" fill="#D8A041"/>
<path d="M28.1171 22.8515C27.6899 22.4245 26.9976 22.4245 26.5702 22.8515L21.875 27.5469L20.4609 26.1329C20.0337 25.7059 19.3413 25.7059 18.914 26.1329C18.4869 26.56 18.4869 27.2525 18.914 27.6798L21.1015 29.8672C21.3152 30.0806 21.595 30.1875 21.875 30.1875C22.155 30.1875 22.4348 30.0806 22.6484 29.8671L28.1171 24.3984C28.5442 23.9713 28.5442 23.2787 28.1171 22.8515Z" fill="#D8A041"/>
</svg>
