<svg width="49" height="56" viewBox="0 0 49 56" fill="none" xmlns="http://www.w3.org/2000/svg">
<path d="M48.7742 16.2581C48.7742 12.2738 45.5326 9.03226 41.5484 9.03226C41.5347 9.03226 41.5215 9.03226 41.5078 9.03226C41.05 3.97499 36.7875 0 31.6129 0C28.8371 0 26.2606 1.12727 24.3871 3.12865C22.5136 1.12727 19.9371 0 17.1613 0C12.0074 0 7.75769 3.94456 7.27564 9.03226C7.25844 9.03226 7.24212 9.03226 7.22581 9.03226C3.24156 9.03226 0 12.2738 0 16.2581C0 19.284 1.87128 21.8772 4.51613 22.952V46.0645H6.32258V23.4217C6.61895 23.4587 6.91973 23.4839 7.22581 23.4839H8.12903V40.6452H9.93548V23.4839H11.7419V35.2258H13.5484V21.6774H7.22581C4.23696 21.6774 1.80645 19.2469 1.80645 16.2581C1.80645 13.2692 4.23696 10.8387 7.22581 10.8387C7.45426 10.8387 7.70256 10.8586 8.0051 10.9018L9.03226 10.9759V9.93548C9.03226 5.45287 12.6796 1.80645 17.1613 1.80645C19.7391 1.80645 22.1092 2.99679 23.6647 5.07447L24.3871 6.03988L25.1095 5.07535C26.665 2.99679 29.0351 1.80645 31.6129 1.80645C36.0946 1.80645 39.7419 5.45287 39.7428 9.90461L39.7384 11.0491L40.7691 10.9027C41.0716 10.8586 41.3199 10.8387 41.5484 10.8387C44.5372 10.8387 46.9677 13.2692 46.9677 16.2581C46.9677 19.2469 44.5372 21.6774 41.5484 21.6774H35.2258V35.2258H37.0323V23.4839H38.8387V40.6452H40.6452V23.4839H41.5484C41.8545 23.4839 42.1552 23.4587 42.4516 23.4217V46.0645H44.2581V22.952C46.9029 21.8772 48.7742 19.284 48.7742 16.2581V16.2581Z" fill="#D8A041"/>
<path d="M35.2258 37.0322H37.0323V38.8387H35.2258V37.0322Z" fill="#D8A041"/>
<path d="M11.7419 37.0322H13.5484V38.8387H11.7419V37.0322Z" fill="#D8A041"/>
<path d="M34.3226 18.9678C34.3226 13.4898 29.8651 9.03229 24.3871 9.03229C18.9091 9.03229 14.4516 13.4898 14.4516 18.9678C14.4516 22.7143 16.5597 26.1248 19.871 27.8148V31.2389L16.2581 34.8518V52.3871H18.0645V35.5998L19.871 33.7934V38.8387H21.6774V26.6522L21.1354 26.4159C18.173 25.1206 16.2581 22.197 16.2581 18.9678C16.2581 14.4852 19.9054 10.8387 24.3871 10.8387C28.8688 10.8387 32.5161 14.4852 32.5161 18.9678C32.5161 22.197 30.6012 25.1206 27.6388 26.4159L27.0968 26.6522V38.8387H28.9032V33.7934L30.7097 35.5998V52.3871H32.5161V34.8518L28.9032 31.2389V27.8148C32.2145 26.1248 34.3226 22.7143 34.3226 18.9678Z" fill="#D8A041"/>
<path d="M24.5025 15.5027C25.383 15.5027 26.2633 15.507 27.1436 15.5C27.4021 15.4981 27.5866 15.5749 27.7515 15.7657C28.4476 16.5791 29.1596 17.3812 29.8657 18.1878C30.0573 18.4067 30.0441 18.5941 29.8247 18.7945C28.1686 20.308 26.5125 21.8215 24.8563 23.335C24.6161 23.5543 24.3838 23.555 24.1452 23.3372L19.1767 18.7967C18.9532 18.5933 18.9426 18.4069 19.14 18.1808C19.8571 17.3597 20.5743 16.5376 21.2918 15.7145C21.4239 15.5609 21.5885 15.5015 21.7939 15.502C22.6977 15.5039 23.6 15.5027 24.5025 15.5027ZM25.5947 21.5405C25.6251 21.5178 25.6579 21.4975 25.6856 21.4724C26.6099 20.6286 27.5337 19.7842 28.4571 18.9394C28.4801 18.9184 28.5176 18.9044 28.5142 18.8621C28.5023 18.8595 28.4902 18.8577 28.478 18.8568C27.8884 18.8568 27.299 18.8568 26.7094 18.8549C26.6262 18.8549 26.5969 18.8858 26.5715 18.9515C26.3881 19.4283 26.1991 19.9033 26.0147 20.3798C25.8667 20.7617 25.7226 21.1445 25.577 21.527C25.563 21.5367 25.5506 21.5541 25.5654 21.5632C25.5802 21.5724 25.5863 21.5502 25.5947 21.5405V21.5405ZM23.4028 21.5405C23.4115 21.5502 23.4136 21.5748 23.4321 21.5632C23.4506 21.5516 23.4345 21.5369 23.4205 21.5273C23.4157 21.5036 23.4095 21.4802 23.402 21.4572C23.0748 20.6184 22.7458 19.7799 22.4218 18.9399C22.3927 18.8648 22.3465 18.8559 22.2743 18.8559C21.6982 18.8576 21.1218 18.8559 20.5454 18.8576C20.524 18.8576 20.4926 18.8409 20.4788 18.8817C20.492 18.8945 20.5053 18.9092 20.5214 18.9233C21.4552 19.7766 22.3884 20.6292 23.3211 21.4811C23.347 21.5024 23.3743 21.5221 23.4028 21.5403V21.5405ZM24.4945 21.9431C24.5233 21.8854 24.5381 21.8613 24.5474 21.8359C24.919 20.8832 25.2913 19.9305 25.6645 18.9778C25.7033 18.8791 25.6838 18.8532 25.5686 18.8537C24.869 18.8573 24.1695 18.8556 23.4697 18.8556C23.2865 18.8556 23.2863 18.8556 23.3465 19.0104L24.1457 21.0505C24.2591 21.3377 24.3695 21.6241 24.4945 21.9429V21.9431ZM25.5276 18.0763C25.1909 17.5983 24.8637 17.1344 24.5355 16.6685C24.4842 16.596 24.4665 16.6649 24.4478 16.6909C24.2599 16.9534 24.0737 17.2166 23.8891 17.4804C23.7524 17.6751 23.6166 17.8705 23.4734 18.0758L25.5276 18.0763ZM28.6873 18.0821L27.4608 16.6835C27.28 17.1447 27.1101 17.5787 26.9396 18.0118C26.9164 18.0707 26.9491 18.0816 27.0031 18.0816C27.5527 18.0818 28.1022 18.0821 28.6862 18.0821H28.6873ZM20.315 18.0821C20.8964 18.0821 21.4466 18.0821 21.9961 18.0821C22.0679 18.0821 22.0753 18.0579 22.0537 18.0002C21.8902 17.5893 21.7286 17.1774 21.569 16.7646C21.5426 16.697 21.5182 16.7016 21.4762 16.7504C21.3813 16.861 21.2858 16.9711 21.1897 17.0807C20.9051 17.4065 20.6202 17.7319 20.3139 18.0821H20.315ZM25.2789 16.2888L26.2004 17.5985C26.3659 17.1783 26.5239 16.7774 26.6798 16.3772C26.6933 16.3427 26.7364 16.2883 26.6402 16.2886C26.1965 16.2891 25.7528 16.2888 25.2789 16.2888ZM23.7183 16.2888C23.3254 16.2888 22.9615 16.2871 22.5978 16.29C22.4992 16.29 22.366 16.2482 22.3132 16.3127C22.2796 16.354 22.3563 16.4733 22.3885 16.5559C22.5206 16.8974 22.6562 17.2385 22.7979 17.5983L23.7183 16.2888Z" fill="#D8A041"/>
<path d="M23.4839 28H25.2903V52.3871H23.4839V28Z" fill="#D8A041"/>
<path d="M23.4839 54.1935H25.2903V56H23.4839V54.1935Z" fill="#D8A041"/>
<path d="M27.0968 40.6451H28.9032V42.4516H27.0968V40.6451Z" fill="#D8A041"/>
<path d="M19.871 40.6451H21.6774V42.4516H19.871V40.6451Z" fill="#D8A041"/>
<path d="M38.8387 42.4516H40.6452V44.2581H38.8387V42.4516Z" fill="#D8A041"/>
<path d="M42.4516 47.871H44.2581V49.6774H42.4516V47.871Z" fill="#D8A041"/>
<path d="M4.51613 47.871H6.32258V49.6774H4.51613V47.871Z" fill="#D8A041"/>
<path d="M8.12903 42.4516H9.93548V44.2581H8.12903V42.4516Z" fill="#D8A041"/>
<path d="M30.7097 54.1935H32.5161V56H30.7097V54.1935Z" fill="#D8A041"/>
<path d="M16.2581 54.1935H18.0645V56H16.2581V54.1935Z" fill="#D8A041"/>
</svg>
