<svg width="56" height="56" viewBox="0 0 56 56" fill="none" xmlns="http://www.w3.org/2000/svg">
<path d="M44.1259 24.5456C41.7934 23.2977 39.1675 22.7228 36.5323 22.8833C35.9292 22.92 35.4702 23.4386 35.507 24.0416C35.5437 24.6446 36.0622 25.1035 36.6652 25.0668C41.2574 24.787 45.6722 27.2007 47.9126 31.2158C48.8712 32.9339 49.3984 34.8741 49.4375 36.8267C49.4495 37.4306 49.9489 37.9105 50.5529 37.8984C50.7382 37.8947 50.9119 37.8451 51.0632 37.7606C51.4049 37.57 51.6328 37.2015 51.6245 36.783C51.5785 34.4735 50.9554 32.1798 49.8228 30.15C48.4926 27.766 46.5226 25.828 44.1259 24.5456Z" fill="#D8A041"/>
<path d="M39.1204 22.8596L39.0468 22.8595C38.4428 22.8595 37.953 23.3492 37.953 23.9532C37.953 24.5573 38.4428 25.047 39.0468 25.047L39.1101 25.0471C39.1119 25.0471 39.1135 25.0471 39.1154 25.0471C39.7171 25.0471 40.2062 24.5608 40.209 23.9585C40.2118 23.3544 39.7244 22.8624 39.1204 22.8596Z" fill="#D8A041"/>
<path d="M38.1473 49.0896C33.5551 49.3693 29.1404 46.9555 26.9 42.9405C25.9414 41.2224 25.4142 39.2823 25.3751 37.3296C25.3631 36.7258 24.8637 36.2459 24.2598 36.258C23.656 36.27 23.1759 36.7694 23.1881 37.3733C23.2342 39.6829 23.8572 41.9765 24.9898 44.0064C26.32 46.3904 28.2899 48.3282 30.6867 49.6107C33.0192 50.8587 35.6451 51.4335 38.2804 51.2731C38.4496 51.2628 38.6075 51.2144 38.7463 51.137C39.1019 50.9385 39.332 50.5485 39.3057 50.1148C39.2687 49.512 38.7503 49.0529 38.1473 49.0896Z" fill="#D8A041"/>
<path d="M35.7658 49.1094L35.7024 49.1091C35.0956 49.108 34.6065 49.5936 34.6038 50.1978C34.6009 50.8018 35.0885 51.2938 35.6925 51.2967L35.7658 51.2969C36.3697 51.2969 36.8595 50.8071 36.8595 50.2031C36.8595 49.5991 36.3697 49.1094 35.7658 49.1094Z" fill="#D8A041"/>
<path d="M42.3728 19.159C42.2397 18.8418 42.0766 18.5429 41.8868 18.2656H44.7343C47.5085 18.2656 49.7655 16.0085 49.7655 13.2344C49.7655 10.4602 47.5085 8.20311 44.7343 8.20311H35.9756C36.5324 7.39352 36.8593 6.41407 36.8593 5.35937C36.8593 2.58518 34.6022 0.328125 31.8281 0.328125H5.03124C2.25706 0.328125 0 2.58518 0 5.35937C0 8.13355 2.25706 10.3906 5.03124 10.3906H13.79C13.2331 11.2002 12.9062 12.1796 12.9062 13.2344C12.9062 14.2891 13.233 15.2685 13.79 16.0781H10.9375C8.1633 16.0781 5.90624 18.3352 5.90624 21.1093C5.90624 22.7026 6.65152 24.1244 7.811 25.0468C6.65152 25.9693 5.90624 27.3911 5.90624 28.9843C5.90624 30.5776 6.65152 31.9993 7.811 32.9218C6.65152 33.8443 5.90624 35.266 5.90624 36.8593C5.90624 38.4526 6.65152 39.8743 7.811 40.7968C6.65152 41.7193 5.90624 43.141 5.90624 44.7343C5.90624 47.5085 8.1633 49.7655 10.9375 49.7655H23.8273C27.2229 53.3975 32.0536 55.6719 37.4063 55.6719C47.6589 55.6719 56 47.3307 56 37.0782C56 28.5451 50.2217 21.3372 42.3728 19.159ZM44.7343 10.3906C46.3024 10.3906 47.578 11.6664 47.578 13.2344C47.578 14.8023 46.3024 16.0781 44.7343 16.0781H37.7343H17.9375C16.3694 16.0781 15.0937 14.8023 15.0937 13.2344C15.0937 11.6664 16.3694 10.3906 17.9375 10.3906H44.7343ZM5.03124 8.20311C3.46313 8.20311 2.1875 6.92736 2.1875 5.35937C2.1875 3.79137 3.46313 2.51562 5.03124 2.51562H31.8281C33.3962 2.51562 34.6718 3.79137 34.6718 5.35937C34.6718 6.92736 33.3962 8.20311 31.8281 8.20311H5.03124ZM10.9375 18.2656H37.7343C38.1749 18.2656 38.5967 18.368 38.9752 18.5513C38.4578 18.5079 37.9348 18.4845 37.4063 18.4845C32.2717 18.4845 27.6167 20.5767 24.2486 23.9531H10.9375C9.36948 23.9531 8.09373 22.6773 8.09373 21.1093C8.09373 19.5413 9.36948 18.2656 10.9375 18.2656ZM10.9375 26.1406H22.3797C21.1381 27.8417 20.1781 29.7603 19.5685 31.8281H10.9375C9.36937 31.8281 8.09373 30.5524 8.09373 28.9843C8.09373 27.4163 9.36937 26.1406 10.9375 26.1406ZM10.9375 34.0156H19.0662C18.9003 35.0123 18.8126 36.0351 18.8126 37.0782C18.8126 37.9691 18.877 38.8452 18.9987 39.703H10.9375C9.36937 39.703 8.09373 38.4274 8.09373 36.8593C8.09373 35.2912 9.36937 34.0156 10.9375 34.0156ZM10.9375 47.578C9.36937 47.578 8.09373 46.3024 8.09373 44.7343C8.09373 43.1662 9.36937 41.8905 10.9375 41.8905H19.4453C19.9972 43.9482 20.8938 45.8659 22.0695 47.578H10.9375ZM37.4063 53.4844C28.3599 53.4844 21.0001 46.1246 21.0001 37.0782C21.0001 28.0318 28.3599 20.6719 37.4063 20.6719C46.4527 20.6719 53.8125 28.0318 53.8125 37.0782C53.8125 46.1246 46.4527 53.4844 37.4063 53.4844Z" fill="#D8A041"/>
<path fill-rule="evenodd" clip-rule="evenodd" d="M36.4184 29.1553L40.6015 30.1829L40.9343 30.3604L43.6053 33.2532L43.6461 33.562L41.3319 37.4869L43.1537 33.452L42.8874 33.3854L40.7941 36.919L42.4393 33.2754L42.1225 33.1973L40.2333 36.3919L41.7205 33.0979L41.3656 33.0092L39.597 35.9961L40.9902 32.9169L40.6007 32.8202L39.1507 35.2729L40.2927 32.7439L39.8366 32.6312L38.7549 34.4521L39.6024 32.5744L38.5943 32.3259L36.4149 36.1008V32.2221L37.2685 31.1856L37.0449 30.9283L36.4184 31.9142V31.1022L36.7814 30.6239L36.4646 30.2627L36.4175 30.3444V29.1553H36.4184ZM36.4184 40.2644L36.9074 39.5235L36.4184 40.4375V40.2644ZM36.4184 41.5023V41.8892L37.509 39.8482L36.4184 41.5005V41.5023ZM36.4184 42.6062L36.5072 42.616L37.8844 40.5218L36.7503 42.6408L37.2712 42.6994L38.1959 41.3L37.4371 42.7198L38.2429 42.8085L37.8267 43.5362L37.612 43.6178L36.4149 43.3924L36.4184 42.6062ZM35.8913 29.0293L36.4184 29.1588V30.3479L35.8913 31.2557V30.442L36.217 29.993L35.8913 29.6176V29.0293V29.0293ZM36.4184 36.1044L35.8913 37.0184V32.8628L36.4184 32.2221V36.1008V36.1044ZM35.8913 38.5819L35.9108 38.5527L35.8913 38.589V38.5819V38.5819ZM35.8913 39.8243L36.3954 39.0611L35.8913 40.0026V39.8252V39.8243ZM35.8913 41.0666L36.4184 40.268V40.441L35.8913 41.4269V41.0631V41.0666ZM35.8913 42.3045L36.4184 41.5059V41.8928L36.0564 42.5627L36.4184 42.6035V43.3915L35.8913 43.2922V42.2983V42.3045ZM36.4184 31.1093L35.8913 31.805V32.7501L36.4184 31.9213V31.1093ZM34.7581 30.4438L35.5319 29.1198L35.7698 29L35.8913 29.0293V29.6176L35.7902 29.5005L34.7581 31.3693V30.4402V30.4438ZM35.8913 37.0184L34.7581 38.9821V33.3029L35.8913 31.8077V32.7527L35.5657 33.2648L35.8913 32.869V37.021V37.0184ZM34.7581 40.3017V40.7108L35.8913 38.5926V38.5855L34.7581 40.3017ZM34.7581 41.544L35.8913 39.8278V40.0053L34.7581 42.119V41.5396V41.544ZM34.7581 42.427V43.0881L35.8913 43.301V42.3072L35.7396 42.537L35.3234 42.49L35.8913 41.4295V41.0631L34.9782 42.4456L34.7581 42.4207V42.427ZM35.8913 30.4473L34.7581 32.0029V33.2062L35.8913 31.2539V30.4473ZM30 39.0656L30.0435 38.5189L34.7581 30.4491V31.3746L33.2993 34.0155L34.7581 32.0029V33.2062L34.5221 33.6135L34.7581 33.3011V38.9804L32.8946 42.214L33.4528 42.2761L34.7608 40.2964V40.7054L33.8912 42.324L34.2151 42.3604L34.7581 41.5378V42.119L34.6011 42.4039L34.7546 42.4207V43.0818L32.64 42.6843L32.3232 42.498L30 39.0656Z" fill="#D8A041"/>
<path fill-rule="evenodd" clip-rule="evenodd" d="M39.4497 36.7946L39.6751 36.9783C39.2314 37.1008 38.849 37.5374 38.7043 37.9607C38.834 37.7511 39.0056 37.5706 39.2084 37.4305C39.4112 37.2905 39.6408 37.1939 39.8828 37.1469L40.2191 37.4202C39.7692 37.5338 39.3725 37.9802 39.2261 38.4097C39.3575 38.196 39.5326 38.0126 39.7401 37.8716C39.9475 37.7306 40.1824 37.6351 40.4294 37.5915L40.7639 37.863C40.3025 37.9669 39.8979 38.423 39.7479 38.8578C39.8813 38.6403 40.0602 38.4543 40.2724 38.3126C40.4846 38.1709 40.7249 38.0769 40.9769 38.037L41.3088 38.3032C40.8376 38.3919 40.4214 38.8631 40.2688 39.3024C40.5279 38.8649 41.0461 38.5259 41.5244 38.4789L41.8244 38.7202C41.307 38.8977 40.9512 39.4417 40.8758 39.7319C41.0577 39.3982 41.5555 38.974 42.0294 38.8791L42.3541 39.1329C41.8217 39.3104 41.4481 39.8765 41.37 40.1773C41.559 39.8304 42.0799 39.3893 42.5662 39.2979L42.8901 39.5473C42.3426 39.7248 41.9637 40.2936 41.8847 40.5979C42.0773 40.243 42.6115 39.7949 43.1057 39.7106C43.2096 39.7904 43.3143 39.8712 43.4172 39.9519C42.8626 40.1205 42.4793 40.6991 42.3994 41.0061C42.5937 40.6512 43.1359 40.1951 43.6337 40.1188C43.7384 40.2004 43.8432 40.282 43.9461 40.3646C43.5024 40.5154 43.1102 40.9857 42.97 41.4099C43.2351 40.9718 43.6624 40.656 44.1591 40.5314L44.5078 40.8074C44.0437 40.9511 43.6604 41.4223 43.5122 41.8589C43.6453 41.6405 43.8204 41.4505 44.0272 41.2999C44.234 41.1493 44.4685 41.041 44.7172 40.9813L45.0642 41.2573C44.6028 41.3957 44.1972 41.8784 44.0508 42.3133C44.1852 42.0904 44.3632 41.897 44.574 41.7445C44.7849 41.5921 45.0243 41.4837 45.2781 41.4259L45.6232 41.7001C45.1547 41.8314 44.7412 42.3212 44.5939 42.7649C44.7299 42.5404 44.9102 42.346 45.1238 42.1934C45.3373 42.0409 45.5798 41.9334 45.8362 41.8776L46.1796 42.1509C45.704 42.2742 45.2816 42.7765 45.1325 43.2157C45.2703 42.9875 45.4538 42.7903 45.6716 42.6367C45.8894 42.483 46.1367 42.3762 46.3979 42.323L46.7405 42.5946C46.2568 42.7099 45.8256 43.2202 45.6756 43.6647C45.8147 43.4334 46.0011 43.234 46.2225 43.0796C46.4439 42.9252 46.6954 42.8192 46.9605 42.7685L47.3004 43.0391C46.8106 43.1456 46.3704 43.6647 46.2178 44.1138C46.484 43.6497 47.0253 43.2805 47.5222 43.2148L47.8621 43.481C47.3643 43.5787 46.9144 44.1067 46.7609 44.5601C47.0333 44.0898 47.5826 43.7162 48.0857 43.6585L48.4229 43.9247C47.918 44.0135 47.4583 44.5459 47.3031 45.0073C47.5799 44.5308 48.1407 44.1537 48.6483 44.104L48.9855 44.3702C48.4726 44.4456 48.0023 44.9914 47.8452 45.4555C48.1265 44.9718 48.698 44.5912 49.2118 44.5503L49.5481 44.8166C49.0272 44.8804 48.5463 45.4377 48.3883 45.9045C48.6723 45.4147 49.2571 45.0295 49.7762 44.9976L50.1107 45.2638C49.5827 45.3144 49.0911 45.885 48.9305 46.3544C49.2189 45.8575 49.8179 45.467 50.3406 45.4466L50.6724 45.7128C50.0974 45.8814 49.6963 46.4804 49.6173 46.7972C49.8179 46.4307 50.3796 45.9604 50.8916 45.8876L51.2208 46.1538C50.629 46.3198 50.219 46.9365 50.1303 47.2657C50.3361 46.8886 50.9138 46.405 51.4409 46.3304C51.6184 46.4748 51.7979 46.6227 51.9796 46.7741C52.1916 46.8966 50.6316 48.9926 50.046 49.2952L49.4079 48.7326L37.872 39.2633C37.2384 38.2987 37.7007 36.997 38.7008 36.7698C38.4614 36.9644 38.28 37.221 38.1763 37.5116C38.4036 37.1461 38.7538 36.8736 39.164 36.7432C39.2605 36.7522 39.3561 36.7695 39.4497 36.7946V36.7946Z" fill="#D8A041"/>
</svg>
