<svg width="540" height="465" viewBox="0 0 540 465" fill="none" xmlns="http://www.w3.org/2000/svg">
<path d="M454.332 339.418C454.332 339.418 519.568 169.696 485.772 143.813C451.975 117.93 310.231 128.382 302.466 137.629C294.7 146.875 248.978 351.174 248.978 351.174L454.332 339.418Z" fill="white"/>
<path d="M248.878 352.201C248.736 352.2 248.596 352.169 248.467 352.112C248.337 352.054 248.221 351.97 248.125 351.865C248.027 351.75 247.957 351.612 247.923 351.465C247.888 351.317 247.89 351.163 247.927 351.016C249.79 342.658 293.868 146.362 301.713 137.036C306.012 131.918 343.849 127.157 384.342 126.623C408.115 126.307 465.743 127.275 486.386 143.062C500.748 154.048 499.837 190.481 483.691 251.573C471.805 296.76 455.422 339.339 455.263 339.754C455.197 339.933 455.079 340.089 454.924 340.201C454.768 340.314 454.583 340.378 454.392 340.386L248.938 352.241L248.878 352.201ZM391.83 128.54H384.382C342.78 129.093 306.626 134.21 303.159 138.261C297.216 145.393 265.994 279.195 250.067 350.127L453.579 338.43C457.759 327.385 516.973 168.945 485.118 144.583C471.706 134.329 437.89 128.54 391.83 128.54Z" fill="#0B0B0B"/>
<path d="M189.447 192.774L160.048 291.189C160.048 291.189 220.688 298.993 220.688 296.76C220.688 294.528 232.574 188.466 232.574 188.466L189.447 192.774Z" fill="white"/>
<path d="M217.637 298.045C207.395 298.045 178.334 294.528 159.93 292.117C159.788 292.097 159.651 292.047 159.53 291.97C159.409 291.894 159.306 291.792 159.227 291.673C159.148 291.553 159.096 291.418 159.074 291.277C159.052 291.135 159.06 290.991 159.098 290.853L188.496 192.438C188.551 192.248 188.661 192.079 188.813 191.952C188.965 191.825 189.151 191.747 189.348 191.727L232.495 187.419C232.641 187.406 232.788 187.426 232.926 187.477C233.063 187.528 233.187 187.61 233.288 187.716C233.394 187.816 233.475 187.94 233.523 188.077C233.571 188.215 233.586 188.362 233.565 188.506C229.464 225.059 221.679 294.706 221.679 296.701C221.661 297.025 221.519 297.329 221.283 297.551C220.121 297.989 218.874 298.158 217.637 298.045ZM161.257 290.359C182.335 293.046 215.062 296.78 219.658 296.128C220.411 287.593 230.059 201.448 231.386 189.573L190.141 193.702L161.257 290.359Z" fill="#0B0B0B"/>
<path d="M133.72 168.332C133.978 168.609 144.418 165.823 149.806 172.284C155.195 178.745 148.202 184.514 131.184 181.175C114.167 177.836 133.72 168.332 133.72 168.332Z" fill="white"/>
<path d="M140.158 183.131C137.077 183.101 134.006 182.776 130.986 182.163C126.073 181.195 123.537 179.614 123.24 177.303C122.666 172.837 131.501 168.313 133.284 167.424C133.49 167.354 133.712 167.354 133.918 167.424H134.572C137.345 167.088 145.784 166.021 150.579 171.751C152.718 174.28 153.174 176.868 151.906 179.041C150.262 181.63 146.002 183.131 140.158 183.131ZM133.938 169.301C130.075 171.276 124.983 174.754 125.261 176.947C125.261 177.678 126.291 179.061 131.382 180.069C142.892 182.321 148.677 180.227 150.143 177.757C150.493 176.919 150.572 175.993 150.37 175.107C150.167 174.222 149.693 173.422 149.014 172.818C144.933 167.957 137.583 168.866 134.829 169.222C134.453 169.301 134.176 169.301 133.938 169.301Z" fill="#0B0B0B"/>
<path d="M107.551 147.685C107.551 147.685 105.411 145.235 106.758 143.516C107.061 143.167 107.443 142.896 107.873 142.723C108.302 142.551 108.767 142.483 109.228 142.526C109.689 142.568 110.133 142.72 110.523 142.968C110.914 143.215 111.239 143.553 111.473 143.951C111.473 143.951 108.105 145.156 107.551 147.685Z" fill="white"/>
<path d="M107.551 148.693C107.405 148.695 107.261 148.666 107.128 148.608C106.995 148.55 106.876 148.465 106.778 148.358C105.787 147.212 104.48 144.762 105.966 142.904C106.298 142.469 106.726 142.116 107.218 141.872C107.709 141.629 108.25 141.502 108.799 141.501C109.474 141.513 110.137 141.681 110.735 141.994C111.334 142.306 111.851 142.753 112.246 143.299C112.354 143.425 112.429 143.576 112.464 143.738C112.498 143.901 112.492 144.069 112.444 144.228C112.402 144.386 112.323 144.531 112.212 144.652C112.102 144.772 111.964 144.864 111.81 144.92C111.017 145.196 108.898 146.303 108.541 147.903C108.503 148.087 108.414 148.256 108.285 148.393C108.155 148.529 107.99 148.626 107.808 148.674L107.551 148.693ZM108.838 143.537C108.598 143.54 108.361 143.597 108.145 143.703C107.929 143.809 107.74 143.961 107.59 144.149C107.477 144.366 107.418 144.606 107.418 144.85C107.418 145.095 107.477 145.335 107.59 145.552C108.187 144.822 108.912 144.206 109.73 143.734C109.456 143.614 109.154 143.573 108.858 143.616L108.838 143.537Z" fill="#0B0B0B"/>
<path d="M112.225 143.853C111.047 143.948 109.933 144.43 109.059 145.224C108.184 146.018 107.598 147.078 107.392 148.239L149.885 203.384C150.147 200.741 151.291 198.263 153.134 196.346C154.977 194.43 157.411 193.185 160.048 192.813L112.225 143.853Z" fill="white"/>
<path d="M149.866 204.391C149.712 204.39 149.561 204.353 149.424 204.285C149.287 204.217 149.167 204.118 149.073 203.996L106.58 148.851C106.484 148.727 106.418 148.582 106.387 148.428C106.356 148.273 106.361 148.114 106.402 147.962C106.681 146.591 107.401 145.348 108.452 144.422C109.503 143.495 110.827 142.934 112.226 142.825C112.363 142.827 112.499 142.855 112.624 142.91C112.75 142.964 112.864 143.043 112.959 143.141L160.781 192.102C160.914 192.233 161.007 192.399 161.049 192.581C161.091 192.763 161.081 192.953 161.019 193.129C160.963 193.306 160.86 193.464 160.72 193.586C160.581 193.708 160.41 193.789 160.227 193.821C157.812 194.15 155.579 195.28 153.886 197.029C152.194 198.778 151.14 201.044 150.896 203.463C150.879 203.668 150.8 203.863 150.669 204.022C150.538 204.181 150.362 204.296 150.163 204.352L149.866 204.391ZM108.521 148.041L149.351 201.013C149.926 198.928 151.027 197.025 152.55 195.486C154.072 193.946 155.965 192.822 158.048 192.22L111.85 144.92C111.06 145.082 110.33 145.459 109.742 146.011C109.155 146.562 108.732 147.265 108.521 148.041Z" fill="#0B0B0B"/>
<path d="M149.886 203.384L164.387 210.892L166.19 209.212L160.049 192.813C160.049 192.813 148.757 191.687 149.886 203.384Z" fill="white"/>
<path d="M164.388 211.899C164.222 211.902 164.058 211.861 163.912 211.781L149.411 204.273C149.257 204.196 149.125 204.081 149.028 203.939C148.931 203.798 148.872 203.633 148.856 203.463C148.581 201.89 148.667 200.276 149.11 198.743C149.553 197.209 150.34 195.796 151.412 194.611C152.607 193.586 153.996 192.808 155.495 192.323C156.995 191.838 158.577 191.655 160.148 191.786C160.342 191.804 160.527 191.877 160.682 191.995C160.836 192.114 160.953 192.275 161.02 192.457L167.141 208.856C167.215 209.045 167.23 209.252 167.184 209.449C167.138 209.647 167.033 209.826 166.884 209.963L165.081 211.642C164.889 211.809 164.642 211.9 164.388 211.899ZM150.857 202.731L164.209 209.647L165.002 208.936L159.336 193.801C156.967 193.734 154.655 194.535 152.838 196.053C152.043 196.957 151.453 198.022 151.111 199.175C150.769 200.328 150.683 201.542 150.857 202.731Z" fill="#0B0B0B"/>
<path d="M164.386 210.892L167.16 213.855L168.467 212.373L166.189 209.212L164.386 210.892Z" fill="white"/>
<path d="M167.16 214.883C167.021 214.884 166.883 214.854 166.756 214.796C166.629 214.738 166.517 214.653 166.427 214.547L163.634 211.583C163.454 211.382 163.355 211.122 163.356 210.852C163.372 210.58 163.493 210.325 163.693 210.141L165.496 208.461C165.603 208.364 165.73 208.291 165.867 208.246C166.005 208.201 166.15 208.186 166.294 208.201C166.438 208.216 166.577 208.261 166.702 208.333C166.828 208.405 166.936 208.503 167.021 208.619L169.3 211.781C169.444 211.96 169.523 212.183 169.523 212.413C169.523 212.643 169.444 212.866 169.3 213.045L167.992 214.527C167.901 214.638 167.786 214.728 167.656 214.789C167.526 214.851 167.383 214.883 167.239 214.883H167.16ZM165.833 210.931L167.14 212.334L166.011 210.773L165.833 210.931Z" fill="#0B0B0B"/>
<path d="M136.415 207.711C138.752 202.989 144.616 192.971 145.963 188.624C149.688 176.77 127.876 165.666 120.824 165.666C113.771 165.666 99.0322 190.245 99.0322 203.384C99.0322 216.523 147.865 317.131 147.865 317.131L194.717 295.753L136.415 207.711Z" fill="white"/>
<path d="M147.925 318.158C147.734 318.158 147.548 318.104 147.386 318.003C147.225 317.901 147.096 317.757 147.014 317.585C145.033 313.475 98.062 216.582 98.062 203.384C98.062 190.185 112.959 164.638 120.824 164.638C126.252 164.638 138.871 170.407 144.597 178.073C145.864 179.547 146.749 181.309 147.174 183.204C147.599 185.099 147.551 187.069 147.033 188.94C145.145 193.599 142.934 198.121 140.417 202.475C139.367 204.45 138.436 206.229 137.683 207.631L195.708 295.16C195.789 295.284 195.843 295.424 195.867 295.57C195.891 295.716 195.884 295.866 195.846 296.009C195.804 296.148 195.732 296.276 195.637 296.385C195.541 296.494 195.423 296.581 195.292 296.642L148.42 318.059C148.271 318.148 148.096 318.183 147.925 318.158ZM120.824 166.673C114.624 166.673 100.122 190.383 100.122 203.384C100.122 215.475 143.567 305.75 148.4 315.807L193.271 295.298L135.563 208.363C135.476 208.205 135.431 208.028 135.431 207.849C135.431 207.669 135.476 207.493 135.563 207.335C136.316 205.834 137.406 203.798 138.594 201.586C141.044 197.344 143.202 192.941 145.052 188.407C145.47 186.841 145.496 185.196 145.126 183.618C144.756 182.04 144.003 180.577 142.933 179.358C137.406 171.869 125.381 166.673 120.824 166.673Z" fill="#0B0B0B"/>
<path d="M385.689 227.627L443.436 212.947C441.455 210.161 418.158 136.404 393.593 124.332C372.099 110.106 321.127 100.622 276.098 103.843C276.098 103.843 264.211 103.408 243.371 111.647C192.616 131.761 182.83 201.803 182.83 201.803L222.451 215.456C222.451 215.456 214.883 306.047 207.732 353.407C207.732 353.407 295.334 370.498 422.873 349.455C422.972 349.416 385.927 241.023 385.689 227.627Z" fill="#D8A041"/>
<path d="M380.935 126.367C373.288 134.27 367.325 143.754 358.886 151.203C340.7 167.246 316.908 179.951 291.966 178.41C262.568 176.592 237.151 156.557 230.772 127.375C226.81 109.079 230.93 92.0866 245.115 79.1649C254.921 70.2342 267.481 64.781 280.318 61.3826C314.412 52.2741 352.666 57.1149 381.767 77.0705C386.522 79.9896 390.536 83.9657 393.495 88.6882C400.765 101.827 392.405 115.342 382.976 124.371C382.342 124.984 381.668 125.675 380.935 126.367Z" fill="#D8A041"/>
<path d="M280.634 147.073C280.337 147.073 274.869 153.712 274.592 153.811C277.702 165.508 280.991 180.741 294.264 182.243C321.186 185.305 325.267 149.503 330.338 132.61C311.697 137.826 298.543 139.921 280.634 147.073Z" fill="#0B0B0B"/>
<path d="M297.414 183.428C296.328 183.42 295.244 183.354 294.165 183.231C280.912 181.729 277.168 167.424 274.137 155.984L273.621 154.008C273.574 153.814 273.586 153.61 273.657 153.424C273.727 153.237 273.853 153.075 274.018 152.961C274.335 152.665 275.781 150.985 276.831 149.76C279.901 146.244 279.941 146.224 280.258 146.085C291.223 141.857 302.478 138.417 313.936 135.792C318.987 134.527 324.198 133.223 329.982 131.603C330.152 131.555 330.332 131.554 330.503 131.599C330.673 131.645 330.829 131.734 330.953 131.86C331.072 131.988 331.156 132.144 331.197 132.313C331.239 132.482 331.237 132.66 331.191 132.828C330.438 135.337 329.705 138.301 328.912 141.442C324.812 158.355 318.532 183.408 297.414 183.428ZM275.622 154.127L275.979 155.49C279.01 166.95 282.417 179.931 294.323 181.176C316.372 183.685 322.533 158.968 327.05 140.909C327.664 138.439 328.259 136.068 328.853 133.934C323.722 135.337 318.948 136.523 314.451 137.669C303.097 140.239 291.948 143.633 281.09 147.824C280.694 148.219 279.307 149.8 278.277 151.005C276.89 152.783 276.118 153.653 275.682 154.127H275.622Z" fill="#0B0B0B"/>
<path d="M306.705 9.26044C302.743 9.10238 300.207 10.8213 296.8 12.0463C290.163 14.3778 287.073 8.84552 281.367 5.90157C272.385 1.24392 262.062 -0.169439 252.153 1.90147C242.245 3.97238 233.36 9.3999 227.007 17.2625C223.055 21.9317 220.495 27.6134 219.618 33.6617C218.786 40.4979 220.708 47.4923 219.519 54.2496C218.793 58.1303 217.087 61.7628 214.564 64.8047C212.041 67.8465 208.783 70.1977 205.097 71.6367C211.439 72.1249 217.819 71.5234 223.957 69.8584C222.192 71.9499 220 73.6403 217.526 74.8161C215.052 75.9918 212.354 76.6257 209.614 76.675C215.931 81.5198 223.694 84.1144 231.663 84.0447L217.697 87.3048C229.583 94.9117 244.064 97.1838 258.07 96.5516C285.963 95.1092 332.676 83.7286 331.864 47.6899C331.408 33.879 323.801 10.0508 306.705 9.26044Z" fill="white"/>
<path d="M253.276 97.7174C242.598 97.7174 228.929 95.7416 217.082 88.194C216.92 88.086 216.792 87.9334 216.715 87.7545C216.637 87.5757 216.614 87.3784 216.646 87.1864C216.687 86.9984 216.779 86.8252 216.911 86.6858C217.044 86.5464 217.213 86.4461 217.399 86.396L225.165 84.598C219.253 83.5937 213.677 81.1656 208.92 77.5247C208.754 77.4003 208.631 77.2268 208.569 77.0289C208.507 76.831 208.509 76.6186 208.575 76.4219C208.641 76.2252 208.767 76.0541 208.935 75.9329C209.104 75.8117 209.307 75.7464 209.515 75.7464C213.582 75.6799 217.51 74.2536 220.668 71.696C215.498 72.7653 210.202 73.0979 204.938 72.6839C204.715 72.6637 204.506 72.5686 204.344 72.4143C204.182 72.26 204.077 72.0556 204.047 71.8343C204.011 71.6106 204.054 71.3813 204.17 71.1863C204.286 70.9914 204.467 70.8431 204.681 70.7674C208.222 69.4085 211.356 67.168 213.783 64.2594C216.21 61.3508 217.851 57.8708 218.548 54.1509C219.025 50.5994 219.064 47.0031 218.667 43.442C218.357 40.1562 218.357 36.8487 218.667 33.563C219.568 27.3271 222.203 21.4678 226.274 16.6501C232.77 8.60999 241.857 3.06132 251.991 0.947024C262.124 -1.16727 272.68 0.283245 281.862 5.05207C283.55 5.97127 285.154 7.03566 286.656 8.23312C289.866 10.6634 292.401 12.5799 296.562 11.1376C297.453 10.8214 298.285 10.4658 299.097 10.1299C301.515 8.90523 304.191 8.27519 306.903 8.29239C324.058 9.0432 332.656 32.2392 332.934 47.69C333.29 64.0694 324.316 76.9714 306.249 86.0009C288.182 95.0303 266.628 97.1247 258.209 97.5593C256.544 97.6779 254.94 97.7174 253.276 97.7174ZM220.192 87.8384C232.99 95.2476 247.669 96.2355 257.951 95.7416C266.192 95.3069 287.27 93.3509 305.199 84.3807C322.533 75.7267 331.131 63.4569 330.794 47.8876C330.457 33.1876 322.553 11.1178 306.665 10.3472C304.248 10.3641 301.868 10.9389 299.711 12.0267C298.86 12.3823 297.988 12.7577 297.057 13.0738C291.926 14.8718 288.717 12.4416 285.329 9.87304C283.921 8.74816 282.416 7.74977 280.832 6.88957C272.057 2.32364 261.966 0.932776 252.279 2.95384C242.591 4.9749 233.905 10.2829 227.7 17.9738C223.878 22.4742 221.388 27.9476 220.509 33.7803C220.212 36.9281 220.212 40.0967 220.509 43.2444C220.912 46.9647 220.859 50.72 220.351 54.4275C219.725 57.8121 218.381 61.0243 216.41 63.8491C214.439 66.6739 211.885 69.0461 208.92 70.8069C213.86 70.8005 218.777 70.1361 223.54 68.8311C223.745 68.7718 223.964 68.7801 224.164 68.8549C224.364 68.9297 224.534 69.0669 224.65 69.246C224.771 69.4164 224.836 69.6201 224.836 69.8289C224.836 70.0377 224.771 70.2414 224.65 70.4117C221.514 74.1321 217.14 76.6012 212.328 77.3666C218.057 81.0925 224.764 83.0448 231.603 82.9779C231.848 82.9716 232.086 83.0577 232.269 83.2189C232.453 83.3801 232.569 83.6045 232.594 83.8472C232.625 84.0891 232.565 84.3339 232.426 84.5345C232.287 84.7351 232.079 84.8774 231.841 84.9339L220.192 87.8384Z" fill="#0B0B0B"/>
<path d="M272.611 119.787L274.592 153.811C274.592 153.811 290.183 171.593 310.251 160.667C330.319 149.74 329.546 132.413 329.546 132.413L316.373 68.5348C316.373 68.5348 298.167 64.3461 293.531 28.584C278.001 40.8483 259.439 48.705 239.805 51.3255C239.805 51.3255 240.162 91.3356 247.234 107.241C254.306 123.146 272.611 119.787 272.611 119.787Z" fill="white"/>
<path d="M297.077 165.191C283.447 165.191 273.958 154.621 273.839 154.463C273.692 154.299 273.608 154.089 273.601 153.87L271.62 120.894C267.44 121.309 252.543 121.704 246.263 107.577C239.191 91.7703 238.775 52.9061 238.755 51.2662C238.757 51.0276 238.843 50.7974 238.999 50.6165C239.155 50.4356 239.37 50.3157 239.607 50.2783C259.033 47.6367 277.401 39.875 292.818 27.7936C292.954 27.6748 293.12 27.5955 293.298 27.5641C293.476 27.5328 293.659 27.5506 293.828 27.6158C293.994 27.6801 294.14 27.787 294.252 27.9258C294.363 28.0646 294.435 28.2303 294.462 28.4061C296.799 46.5045 302.703 56.1662 307.24 61.1057C309.691 64.0563 312.914 66.272 316.55 67.5074C316.732 67.555 316.897 67.6524 317.027 67.7885C317.156 67.9246 317.245 68.0942 317.283 68.2779L330.477 132.215C330.477 132.551 331.071 150.432 310.667 161.536C306.521 163.883 301.844 165.141 297.077 165.191ZM275.543 153.336C277.524 155.49 291.708 169.597 309.795 159.738C329.051 149.227 328.575 132.531 328.575 132.373L315.52 69.1473C312.232 68.0606 297.334 61.5009 292.798 30.2832C277.569 41.7559 259.694 49.2292 240.815 52.017C240.815 57.9444 241.806 92.442 248.125 106.688C254.801 121.664 271.719 118.839 272.433 118.72C272.57 118.694 272.711 118.696 272.848 118.726C272.984 118.757 273.112 118.815 273.225 118.898C273.333 118.989 273.422 119.101 273.487 119.226C273.551 119.351 273.59 119.489 273.601 119.629L275.543 153.336Z" fill="#0B0B0B"/>
<path d="M308.944 86.4354C313.598 87.1346 318.341 85.9698 322.137 83.1951C324.701 81.1703 326.7 78.5223 327.942 75.5052C329.183 72.4881 329.627 69.2033 329.229 65.966C329.108 63.5465 328.43 61.1872 327.248 59.0705C326.67 58.0118 325.87 57.0898 324.903 56.367C323.935 55.6442 322.823 55.1377 321.642 54.8818C318.717 54.7003 315.811 55.4699 313.361 57.0749C309.518 59.0507 309.399 61.2439 307.299 64.4842C307.537 64.1878 307.715 63.358 307.953 63.0616" fill="white"/>
<path d="M311.598 87.6407C310.656 87.6371 309.716 87.5645 308.785 87.4234C308.523 87.3797 308.289 87.235 308.133 87.0205C307.977 86.8061 307.913 86.5391 307.953 86.2774C307.972 86.1495 308.017 86.0268 308.084 85.9164C308.152 85.806 308.241 85.7102 308.346 85.6347C308.451 85.5592 308.571 85.5055 308.697 85.4767C308.823 85.448 308.954 85.4448 309.082 85.4673C313.471 86.1115 317.937 84.9962 321.503 82.3653C323.93 80.4393 325.819 77.9225 326.989 75.0572C328.158 72.192 328.568 69.0747 328.179 66.0056C328.1 63.7388 327.496 61.5209 326.416 59.525C325.905 58.6001 325.203 57.7941 324.356 57.1605C323.509 56.5269 322.536 56.0802 321.503 55.85C319.047 55.4153 316.59 56.5415 313.856 57.9443C311.978 58.8558 310.508 60.4342 309.736 62.3701C309.32 63.121 308.864 63.9706 308.25 64.8992C308.209 64.9794 308.155 65.0527 308.091 65.1165C307.932 65.313 307.702 65.4396 307.45 65.4691C307.198 65.4987 306.945 65.4288 306.744 65.2746C306.535 65.1273 306.392 64.9034 306.348 64.6517C306.303 64.4 306.36 64.1409 306.507 63.931C306.507 63.931 306.507 63.6742 306.645 63.5359C306.761 63.1782 306.928 62.8389 307.14 62.5282C307.243 62.4084 307.372 62.3138 307.517 62.2516L307.893 61.5403C308.872 59.2483 310.644 57.3832 312.885 56.2847C315.223 55.0794 318.452 53.4197 321.761 53.9927C323.106 54.2589 324.376 54.8139 325.485 55.6191C326.593 56.4243 327.513 57.4605 328.179 58.6556C329.394 60.9154 330.072 63.4234 330.16 65.9859C330.579 69.3873 330.109 72.839 328.797 76.0064C327.485 79.1737 325.375 81.9494 322.672 84.0645C319.455 86.3999 315.576 87.6525 311.598 87.6407Z" fill="#0B0B0B"/>
<path d="M273.642 137.688C277.543 137.408 281.317 136.182 284.635 134.116C287.953 132.05 290.715 129.206 292.68 125.833C299.673 114.196 296.88 106.747 296.88 106.747C296.88 106.747 287.45 118.74 272.612 119.708L273.642 137.688Z" fill="#0B0B0B"/>
<path d="M273.642 138.656C273.391 138.656 273.15 138.56 272.969 138.387C272.788 138.214 272.681 137.977 272.671 137.727L271.621 119.945C271.613 119.815 271.631 119.685 271.673 119.562C271.716 119.439 271.782 119.326 271.869 119.229C271.955 119.132 272.06 119.052 272.177 118.995C272.295 118.939 272.422 118.906 272.552 118.898C286.756 117.989 296.008 106.45 296.107 106.332C296.214 106.192 296.357 106.084 296.521 106.018C296.685 105.952 296.863 105.931 297.038 105.957C297.21 105.986 297.373 106.06 297.508 106.171C297.643 106.282 297.748 106.426 297.81 106.589C297.929 106.905 300.683 114.611 293.512 126.525C291.47 130.029 288.595 132.978 285.14 135.111C281.685 137.244 277.756 138.495 273.701 138.755L273.642 138.656ZM273.642 120.676L274.573 136.621C278.111 136.186 281.503 134.949 284.487 133.003C287.471 131.058 289.969 128.456 291.788 125.398C296.523 117.495 296.642 111.726 296.285 108.96C290.353 115.399 282.336 119.548 273.642 120.676Z" fill="#0B0B0B"/>
<path d="M269.997 65.7095C269.997 65.7095 262.568 85.2304 265.936 87.5619C269.303 89.8933 276.415 86.1788 276.415 86.1788" fill="white"/>
<path d="M268.867 89.3201C267.628 89.3768 266.402 89.0452 265.361 88.3718C261.637 85.8032 267.342 70.1153 269.046 65.3536C269.139 65.111 269.324 64.9148 269.562 64.8076C269.799 64.7003 270.069 64.6906 270.314 64.7806C270.436 64.8266 270.549 64.8965 270.644 64.9861C270.74 65.0758 270.816 65.1835 270.87 65.303C270.923 65.4225 270.952 65.5513 270.956 65.6821C270.959 65.8129 270.936 65.943 270.888 66.0649C267.441 75.1338 264.945 85.6254 266.49 86.7318C268.848 88.352 274.117 86.2576 275.94 85.3092C276.174 85.1897 276.446 85.1661 276.698 85.2436C276.949 85.3211 277.161 85.4935 277.287 85.7242C277.404 85.9575 277.424 86.2277 277.343 86.4757C277.261 86.7238 277.084 86.9295 276.851 87.048C274.383 88.366 271.661 89.1408 268.867 89.3201Z" fill="#0B0B0B"/>
<path d="M284.609 65.2155C286.118 64.7289 286.783 62.6089 286.093 60.4803C285.404 58.3517 283.621 57.0207 282.111 57.5073C280.602 57.9938 279.937 60.1139 280.627 62.2424C281.317 64.371 283.099 65.7021 284.609 65.2155Z" fill="#0B0B0B"/>
<path d="M256.893 71.6786C258.48 71.6571 259.741 69.8264 259.71 67.5896C259.68 65.3528 258.369 63.557 256.783 63.5786C255.197 63.6001 253.935 65.4308 253.966 67.6676C253.996 69.9044 255.307 71.7002 256.893 71.6786Z" fill="#0B0B0B"/>
<path d="M272.354 112.635C270.452 112.684 268.581 112.138 267.006 111.074C260.765 106.53 260.31 96.4924 260.29 96.0577C260.284 95.8242 260.36 95.596 260.505 95.4122C260.649 95.2284 260.854 95.1004 261.082 95.0501C286.717 89.4585 286.994 89.6561 287.45 89.992C287.563 90.0772 287.658 90.1839 287.729 90.306C287.801 90.4281 287.847 90.5632 287.866 90.7033C288.263 94.6868 287.713 98.7075 286.261 102.44C285.388 104.728 284.006 106.788 282.218 108.465C280.43 110.142 278.283 111.392 275.94 112.121C274.774 112.457 273.568 112.63 272.354 112.635ZM262.35 96.8283C262.588 99.219 263.658 106.213 268.135 109.454C269.201 110.106 270.398 110.516 271.642 110.652C272.885 110.789 274.143 110.649 275.326 110.244C277.391 109.603 279.284 108.504 280.862 107.029C282.44 105.554 283.663 103.742 284.439 101.728C285.665 98.5863 286.179 95.2127 285.944 91.8493C282.537 92.4618 270.512 95.0303 262.35 96.8085V96.8283Z" fill="#0B0B0B"/>
<path d="M285.349 102.123C281.545 111.291 272.016 113.484 267.52 110.303C268.53 106.806 270.372 103.171 273.799 101.847C277.56 100.567 281.654 100.666 285.349 102.123Z" fill="#0B0B0B"/>
<path d="M272.354 112.615C270.454 112.667 268.585 112.129 267.005 111.073C266.842 110.955 266.72 110.788 266.656 110.597C266.592 110.406 266.589 110.199 266.649 110.007C267.996 105.186 270.314 102.103 273.503 100.898C277.468 99.5539 281.782 99.6448 285.687 101.155C285.813 101.201 285.929 101.272 286.028 101.364C286.127 101.455 286.206 101.566 286.261 101.688C286.359 101.936 286.359 102.211 286.261 102.459C285.383 104.742 283.999 106.797 282.211 108.47C280.424 110.143 278.28 111.391 275.94 112.121C274.773 112.449 273.566 112.616 272.354 112.615ZM268.749 109.829C270.808 110.799 273.164 110.941 275.326 110.224C277.223 109.645 278.976 108.674 280.471 107.373C281.967 106.073 283.17 104.472 284.003 102.676C280.826 101.623 277.393 101.623 274.216 102.676C271.78 103.664 269.997 106.075 268.749 109.829Z" fill="#0B0B0B"/>
<path d="M238.874 81.4764C237.518 81.476 236.204 81.0133 235.148 80.1652C234.092 79.3171 233.359 78.1344 233.07 76.8135L230.99 67.3889C230.654 65.8536 230.943 64.2481 231.794 62.9254C232.644 61.6027 233.987 60.6711 235.526 60.3353L257.615 55.4945C258.378 55.3258 259.168 55.3091 259.938 55.4453C260.708 55.5816 261.444 55.8681 262.103 56.2884C262.762 56.7088 263.331 57.2547 263.778 57.8949C264.225 58.5351 264.54 59.257 264.707 60.0191L266.688 69.4437C267.009 70.9593 266.722 72.5398 265.889 73.847C265.056 75.1542 263.743 76.0842 262.231 76.4381L240.142 81.2591C239.729 81.3805 239.304 81.4534 238.874 81.4764ZM258.902 57.4111C258.619 57.3819 258.334 57.3819 258.051 57.4111L235.982 62.232C234.974 62.4637 234.098 63.079 233.539 63.9465C232.98 64.814 232.783 65.865 232.99 66.8752L235.071 76.4381C235.307 77.4351 235.923 78.3014 236.788 78.8543C237.653 79.4073 238.699 79.6035 239.706 79.4018L261.795 74.4623C262.794 74.2262 263.663 73.6121 264.217 72.7496C264.772 71.887 264.969 70.8434 264.766 69.8389L262.785 60.4143C262.586 59.5531 262.103 58.7834 261.413 58.2283C260.724 57.6731 259.868 57.3645 258.982 57.3518L258.902 57.4111Z" fill="#0B0B0B"/>
<path d="M278.237 72.8814C277.099 72.8785 275.985 72.5493 275.028 71.933C273.704 71.0861 272.771 69.7504 272.433 68.2185L270.452 58.7939C270.112 57.2596 270.397 55.6535 271.244 54.3286C271.665 53.6691 272.213 53.0992 272.855 52.6516C273.498 52.204 274.223 51.8876 274.988 51.7205L297.057 46.8996C297.821 46.7309 298.61 46.7141 299.381 46.8504C300.151 46.9866 300.886 47.2731 301.545 47.6934C302.204 48.1138 302.773 48.6597 303.22 49.2999C303.667 49.9401 303.983 50.662 304.149 51.4242L306.13 60.8488C306.475 62.3731 306.202 63.9714 305.371 65.2961C304.54 66.6207 303.218 67.5645 301.693 67.9222L279.624 72.7431C279.167 72.8332 278.703 72.8795 278.237 72.8814ZM298.266 48.7766C297.979 48.7802 297.694 48.8133 297.414 48.8754L275.345 53.7161C274.843 53.8213 274.366 54.0259 273.944 54.3177C273.522 54.6096 273.163 54.9828 272.889 55.4153C272.33 56.2888 272.138 57.3459 272.354 58.3592L274.434 67.7839C274.67 68.7808 275.286 69.6472 276.151 70.2001C277.016 70.753 278.062 70.9493 279.069 70.7476L301.158 65.9266C302.168 65.7018 303.05 65.092 303.615 64.2274C304.166 63.3512 304.351 62.2942 304.13 61.2834L302.149 51.8589C301.95 50.9809 301.457 50.1968 300.751 49.6363C300.045 49.0758 299.168 48.7725 298.266 48.7766Z" fill="#0B0B0B"/>
<path d="M263.697 61.2641C263.515 61.2679 263.337 61.2199 263.182 61.1258C262.951 60.9895 262.782 60.7688 262.712 60.5105C262.641 60.2522 262.675 59.9767 262.805 59.7427C263.736 58.1423 266.767 55.633 271.74 57.6286C272.002 57.7281 272.215 57.9277 272.33 58.1834C272.445 58.439 272.454 58.7299 272.354 58.9919C272.254 59.2539 272.054 59.4656 271.798 59.5805C271.541 59.6954 271.25 59.7039 270.987 59.6044C266.549 57.8262 264.767 60.533 264.588 60.8491C264.485 60.9857 264.35 61.0949 264.194 61.1672C264.039 61.2395 263.868 61.2728 263.697 61.2641Z" fill="#0B0B0B"/>
<path d="M66.3439 324.283H473.646L539.001 443.325H0.989258L66.3439 324.283Z" fill="white"/>
<path d="M539.001 444.313H0.98994C0.819359 444.312 0.651786 444.268 0.502833 444.185C0.353881 444.102 0.228398 443.983 0.138091 443.839C0.0548582 443.688 0.0112305 443.518 0.0112305 443.345C0.0112305 443.172 0.0548582 443.003 0.138091 442.851L65.5125 323.809C65.5963 323.651 65.7221 323.52 65.8759 323.43C66.0296 323.339 66.2055 323.292 66.3842 323.295H473.627C473.806 323.292 473.982 323.339 474.135 323.43C474.289 323.52 474.415 323.651 474.499 323.809L539.873 442.851C539.956 443.003 540 443.172 540 443.345C540 443.518 539.956 443.688 539.873 443.839C539.781 443.986 539.652 444.107 539.5 444.19C539.347 444.273 539.175 444.316 539.001 444.313ZM2.67382 442.337H537.318L473.053 325.271H66.9389L2.67382 442.337Z" fill="#D1D3D4"/>
<path d="M72.6641 247.484L73.5357 243.73C75.5168 239.976 77.7157 237.447 82.8268 237.447H276.711C279.055 237.451 281.335 238.211 283.21 239.614C285.084 241.017 286.453 242.988 287.112 245.231L318.63 353.229C319.444 355.545 319.341 358.083 318.344 360.326C317.346 362.569 315.529 364.348 313.262 365.301L309.835 366.111L72.6641 247.484Z" fill="white"/>
<path d="M309.835 367.099C309.685 367.094 309.537 367.061 309.4 367L72.2291 248.333C72.029 248.236 71.8686 248.073 71.7748 247.871C71.6811 247.67 71.6596 247.442 71.714 247.227L72.5857 243.473C72.5771 243.387 72.5771 243.301 72.5857 243.216C74.5667 239.64 76.8449 236.419 82.7484 236.419H276.633C279.19 236.429 281.675 237.262 283.72 238.792C285.765 240.323 287.26 242.47 287.984 244.915L319.523 353.051C320.408 355.603 320.287 358.396 319.183 360.862C318.079 363.328 316.076 365.282 313.58 366.328L310.033 367.178L309.835 367.099ZM73.8733 246.95L310.033 365.064L313.104 364.353C317.878 362.495 318.869 357.418 317.74 353.505L286.221 245.508C285.617 243.473 284.372 241.686 282.67 240.412C280.968 239.138 278.9 238.445 276.772 238.435H82.8276C78.4495 238.435 76.5676 240.41 74.4677 244.085L73.8733 246.95Z" fill="#0B0B0B"/>
<path d="M309.835 366.111H111.988C110.644 366.096 109.34 365.65 108.27 364.839C107.2 364.027 106.419 362.894 106.045 361.606L72.7438 247.484C72.6182 247.046 72.5961 246.585 72.6793 246.137C72.7625 245.689 72.9487 245.267 73.2232 244.903C73.4978 244.539 73.8532 244.244 74.2616 244.04C74.67 243.837 75.1202 243.73 75.5767 243.729H278.713L313.124 361.744C313.275 362.253 313.305 362.791 313.211 363.313C313.117 363.836 312.902 364.329 312.582 364.754C312.262 365.178 311.847 365.522 311.37 365.758C310.893 365.993 310.367 366.114 309.835 366.111Z" fill="white"/>
<path d="M309.835 367.099H111.989C110.419 367.091 108.893 366.58 107.637 365.641C106.381 364.701 105.462 363.384 105.015 361.883L71.714 247.76C71.5531 247.177 71.5288 246.564 71.643 245.97C71.7571 245.375 72.0066 244.815 72.3722 244.332C72.7378 243.849 73.2098 243.456 73.7517 243.184C74.2936 242.911 74.891 242.767 75.4977 242.761H278.713C278.923 242.758 279.128 242.824 279.297 242.949C279.465 243.074 279.587 243.251 279.644 243.453L314.075 361.468C314.265 362.124 314.3 362.815 314.177 363.487C314.053 364.158 313.775 364.792 313.364 365.338C312.953 365.885 312.42 366.328 311.808 366.633C311.195 366.939 310.52 367.098 309.835 367.099ZM75.4977 244.717C75.1963 244.722 74.8999 244.795 74.6311 244.932C74.3623 245.068 74.1283 245.263 73.9468 245.504C73.7653 245.744 73.6411 246.022 73.5838 246.317C73.5264 246.612 73.5373 246.917 73.6158 247.207L106.897 361.33C107.225 362.423 107.897 363.383 108.814 364.066C109.731 364.749 110.844 365.12 111.989 365.123H309.835C310.218 365.125 310.596 365.039 310.94 364.871C311.284 364.703 311.584 364.458 311.816 364.155C312.04 363.853 312.191 363.502 312.256 363.132C312.321 362.762 312.3 362.382 312.193 362.021L277.921 244.717H75.4977Z" fill="#0B0B0B"/>
<path d="M276.653 317.486L264.628 368.482C263.992 371.211 262.446 373.645 260.244 375.385C258.042 377.126 255.314 378.07 252.504 378.064H127.361C125.483 378.063 123.629 377.639 121.938 376.823C120.248 376.007 118.764 374.82 117.598 373.351C116.432 371.882 115.614 370.169 115.205 368.341C114.796 366.512 114.807 364.615 115.237 362.791L125.836 317.486H115.475L105.332 360.46C104.567 363.769 104.559 367.208 105.31 370.52C106.062 373.832 107.552 376.933 109.671 379.592C111.79 382.25 114.483 384.397 117.549 385.874C120.615 387.351 123.976 388.119 127.381 388.121H252.603C257.677 388.118 262.602 386.41 266.584 383.274C270.566 380.137 273.373 375.755 274.553 370.833L287.113 317.486H276.653Z" fill="white"/>
<path d="M252.504 389.248H127.361C123.799 389.247 120.282 388.442 117.075 386.895C113.868 385.347 111.053 383.096 108.841 380.31C106.629 377.525 105.077 374.276 104.301 370.808C103.526 367.34 103.546 363.742 104.361 360.282L114.485 317.289C114.538 317.073 114.663 316.882 114.839 316.745C115.015 316.609 115.232 316.536 115.455 316.538H125.915C126.064 316.54 126.21 316.575 126.344 316.64C126.477 316.705 126.595 316.798 126.688 316.914C126.779 317.029 126.842 317.164 126.873 317.308C126.904 317.452 126.902 317.601 126.866 317.743L116.188 363.049C115.795 364.729 115.786 366.476 116.164 368.159C116.542 369.843 117.296 371.42 118.37 372.772C119.444 374.125 120.811 375.218 122.368 375.97C123.924 376.722 125.632 377.114 127.361 377.116H252.583C255.172 377.121 257.687 376.25 259.716 374.646C261.745 373.042 263.169 370.8 263.756 368.285L275.781 317.289C275.831 317.075 275.952 316.884 276.125 316.747C276.297 316.611 276.512 316.537 276.732 316.538H287.192C287.34 316.541 287.485 316.576 287.618 316.641C287.75 316.706 287.867 316.8 287.96 316.915C288.052 317.029 288.118 317.163 288.153 317.306C288.189 317.45 288.192 317.599 288.163 317.743L275.583 371.09C274.374 376.28 271.43 380.905 267.235 384.205C263.041 387.504 257.846 389.283 252.504 389.248ZM116.149 318.514L106.243 360.737C105.492 363.91 105.471 367.212 106.183 370.394C106.895 373.576 108.321 376.556 110.353 379.11C112.386 381.664 114.972 383.725 117.918 385.139C120.864 386.552 124.092 387.282 127.361 387.272H252.583C257.468 387.286 262.214 385.646 266.043 382.62C269.872 379.595 272.558 375.362 273.661 370.616L285.944 318.514H277.524L265.638 368.739C264.959 371.691 263.292 374.325 260.912 376.207C258.532 378.088 255.581 379.106 252.544 379.092H127.361C125.332 379.093 123.329 378.635 121.502 377.754C119.675 376.873 118.071 375.59 116.811 374.003C115.552 372.416 114.669 370.565 114.228 368.59C113.787 366.614 113.8 364.564 114.267 362.594L124.647 318.514H116.149Z" fill="#0B0B0B"/>
<path d="M438.028 213.5C438.028 213.5 455.739 291.939 441.237 311.974C426.736 332.008 325.465 328.847 325.465 328.847C325.465 328.847 309.042 348.506 294.779 347.202C280.515 345.898 288.836 318.988 305.615 307.785L303.297 298.439L392.583 284.154L380.697 227.785" fill="white"/>
<path d="M296.087 348.25C295.598 348.25 295.103 348.25 294.601 348.25C292.755 348.158 290.992 347.459 289.587 346.261C288.182 345.063 287.214 343.435 286.836 341.631C284.597 332.878 291.768 316.183 304.388 307.41L302.248 298.736C302.213 298.607 302.206 298.471 302.226 298.338C302.247 298.206 302.295 298.079 302.367 297.966C302.442 297.849 302.54 297.751 302.657 297.676C302.773 297.601 302.904 297.551 303.04 297.531L391.296 283.404L379.608 228.081C379.582 227.954 379.581 227.823 379.606 227.696C379.631 227.568 379.68 227.447 379.752 227.339C379.824 227.231 379.916 227.138 380.024 227.065C380.132 226.992 380.253 226.942 380.38 226.916C380.507 226.887 380.637 226.883 380.765 226.905C380.893 226.928 381.015 226.975 381.124 227.045C381.232 227.115 381.326 227.206 381.399 227.313C381.472 227.42 381.523 227.54 381.549 227.666L393.435 284.036C393.465 284.169 393.466 284.306 393.438 284.438C393.411 284.571 393.356 284.697 393.277 284.807C393.202 284.917 393.106 285.011 392.993 285.082C392.881 285.153 392.755 285.201 392.623 285.222L304.407 299.349L306.388 307.647C306.439 307.841 306.428 308.046 306.357 308.234C306.286 308.421 306.159 308.582 305.992 308.694C293.868 316.795 286.598 333.095 288.678 341.196C288.945 342.593 289.677 343.858 290.756 344.787C291.835 345.716 293.197 346.254 294.621 346.314C308.191 347.578 324.337 328.531 324.456 328.314C324.552 328.199 324.673 328.107 324.811 328.045C324.948 327.983 325.097 327.954 325.248 327.958C326.258 327.958 426.281 330.863 440.267 311.48C454.253 292.097 437.098 214.666 436.919 213.816C436.891 213.686 436.888 213.552 436.911 213.421C436.935 213.291 436.984 213.166 437.055 213.054C437.127 212.942 437.22 212.845 437.329 212.769C437.439 212.693 437.562 212.639 437.692 212.611C437.822 212.582 437.956 212.58 438.088 212.603C438.219 212.626 438.344 212.675 438.456 212.746C438.568 212.818 438.665 212.911 438.742 213.02C438.818 213.129 438.872 213.252 438.9 213.381C439.633 216.602 456.532 292.414 441.931 312.646C427.668 332.404 334.182 330.191 325.723 329.934C323.485 332.542 309.36 348.25 296.087 348.25Z" fill="#0B0B0B"/>
<path d="M331.785 174.655C331.632 174.653 331.482 174.612 331.349 174.537C331.228 174.482 331.119 174.403 331.028 174.305C330.938 174.207 330.869 174.091 330.825 173.966C330.78 173.841 330.762 173.707 330.77 173.575C330.779 173.442 330.814 173.312 330.874 173.193C345.256 143.556 382.183 123.62 382.559 123.423C382.676 123.358 382.804 123.317 382.937 123.303C383.069 123.288 383.204 123.301 383.331 123.34C383.459 123.378 383.577 123.443 383.68 123.528C383.782 123.614 383.866 123.719 383.926 123.838C383.992 123.955 384.033 124.085 384.047 124.219C384.062 124.352 384.049 124.488 384.011 124.617C383.972 124.746 383.908 124.865 383.822 124.969C383.736 125.073 383.63 125.158 383.51 125.221C383.153 125.418 346.801 144.979 332.716 174.082C332.629 174.254 332.496 174.398 332.331 174.499C332.167 174.6 331.978 174.654 331.785 174.655Z" fill="#0B0B0B"/>
<path d="M270.729 173.252C270.585 173.282 270.437 173.282 270.293 173.252C235.784 157.446 231.604 122.711 231.564 122.375C231.536 122.106 231.616 121.836 231.787 121.625C231.958 121.414 232.205 121.279 232.475 121.249C232.608 121.233 232.743 121.243 232.872 121.279C233.001 121.314 233.121 121.375 233.226 121.458C233.331 121.541 233.419 121.644 233.484 121.76C233.549 121.877 233.59 122.006 233.604 122.138C233.604 122.474 237.725 156.083 271.244 171.217C271.489 171.33 271.681 171.533 271.777 171.784C271.873 172.035 271.867 172.314 271.759 172.561C271.684 172.77 271.543 172.95 271.358 173.075C271.173 173.199 270.952 173.261 270.729 173.252Z" fill="#0B0B0B"/>
<path d="M113.494 218.044C113.279 217.983 113.09 217.853 112.955 217.675C112.82 217.497 112.747 217.28 112.747 217.056C112.747 216.833 112.82 216.616 112.955 216.438C113.09 216.259 113.279 216.13 113.494 216.068C128.431 215.614 135.682 207.197 135.761 207.118C135.846 207.015 135.949 206.93 136.067 206.867C136.184 206.805 136.313 206.766 136.446 206.753C136.578 206.74 136.712 206.754 136.839 206.792C136.967 206.831 137.085 206.895 137.188 206.98C137.397 207.153 137.529 207.402 137.555 207.672C137.581 207.943 137.499 208.212 137.326 208.422C137.009 208.797 129.402 217.629 113.554 218.104L113.494 218.044Z" fill="#0B0B0B"/>
<path d="M380.579 228.792C380.35 228.794 380.128 228.719 379.949 228.579C379.769 228.439 379.642 228.243 379.588 228.022C379.588 227.666 370.257 191.252 368.97 169.419C368.962 169.287 368.98 169.154 369.023 169.029C369.067 168.904 369.135 168.788 369.223 168.689C369.311 168.59 369.418 168.509 369.538 168.451C369.658 168.394 369.788 168.36 369.921 168.352C370.191 168.336 370.456 168.426 370.66 168.604C370.864 168.781 370.99 169.032 371.01 169.301C372.298 190.936 381.49 227.152 381.569 227.528C381.636 227.79 381.596 228.067 381.459 228.3C381.321 228.533 381.098 228.703 380.836 228.773L380.579 228.792Z" fill="#0B0B0B"/>
<path d="M220.906 235.293C220.771 235.285 220.64 235.251 220.518 235.192C220.397 235.133 220.289 235.05 220.201 234.949C220.112 234.848 220.045 234.73 220.003 234.602C219.96 234.475 219.944 234.34 219.955 234.206L224.868 157.446C224.875 157.312 224.91 157.18 224.969 157.059C225.028 156.939 225.111 156.831 225.212 156.743C225.314 156.654 225.432 156.587 225.56 156.545C225.688 156.503 225.823 156.487 225.957 156.497C226.091 156.502 226.222 156.534 226.343 156.591C226.464 156.648 226.573 156.729 226.661 156.828C226.75 156.928 226.818 157.045 226.86 157.171C226.903 157.298 226.919 157.431 226.908 157.564L221.916 234.324C221.906 234.585 221.795 234.831 221.607 235.012C221.418 235.192 221.167 235.293 220.906 235.293Z" fill="#0B0B0B"/>
<path d="M396.307 192.359C396.123 192.361 395.943 192.312 395.785 192.218C395.628 192.124 395.5 191.988 395.415 191.825L385.827 174.043C385.72 173.783 385.72 173.492 385.827 173.233C385.919 172.967 386.111 172.748 386.362 172.62L416.078 158.612C416.198 158.552 416.33 158.516 416.464 158.507C416.599 158.499 416.734 158.517 416.861 158.561C416.989 158.606 417.106 158.675 417.206 158.765C417.306 158.855 417.387 158.964 417.445 159.086C417.561 159.33 417.576 159.61 417.487 159.865C417.398 160.12 417.212 160.33 416.969 160.449L388.165 174.003L396.842 190.047L426.023 181.156C426.153 181.117 426.289 181.104 426.424 181.117C426.559 181.131 426.69 181.171 426.81 181.235C426.93 181.3 427.035 181.387 427.121 181.492C427.207 181.597 427.271 181.717 427.31 181.847C427.349 181.977 427.362 182.113 427.349 182.248C427.335 182.383 427.295 182.513 427.23 182.633C427.166 182.752 427.079 182.857 426.973 182.943C426.868 183.029 426.747 183.093 426.617 183.132L396.604 192.378L396.307 192.359Z" fill="#0B0B0B"/>
<path d="M422.041 417.818C449.055 417.818 470.953 411.245 470.953 403.138C470.953 395.03 449.055 388.458 422.041 388.458C395.028 388.458 373.129 395.03 373.129 403.138C373.129 411.245 395.028 417.818 422.041 417.818Z" fill="white"/>
<path d="M422.042 418.806C394.07 418.806 372.14 411.93 372.14 403.138C372.14 394.345 394.07 387.469 422.042 387.469C450.014 387.469 471.945 394.345 471.945 403.138C471.945 411.93 450.014 418.806 422.042 418.806ZM422.042 389.445C393.376 389.445 374.121 396.519 374.121 403.138C374.121 409.757 393.376 416.83 422.042 416.83C450.708 416.83 469.964 409.757 469.964 403.138C469.964 396.519 450.708 389.445 422.042 389.445Z" fill="#D1D3D4"/>
<path d="M385.175 361.211L384.006 361.428C380.471 361.954 377.255 363.762 374.973 366.506C373.693 368.455 372.987 370.723 372.935 373.053C372.882 375.382 373.485 377.679 374.675 379.684C379.866 389.01 392.505 391.539 402.252 392.507C403.631 392.731 405.044 392.623 406.372 392.191C407.028 391.968 407.598 391.548 408.006 390.989C408.414 390.431 408.639 389.76 408.65 389.069C408.566 388.501 408.341 387.963 407.995 387.504C407.649 387.045 407.193 386.68 406.669 386.442C405.648 385.97 404.558 385.663 403.44 385.533C397.378 384.545 390.999 383.814 385.452 381.028C382.223 379.388 377.706 375.654 380.064 371.623C380.889 370.347 382.075 369.343 383.471 368.738C389.038 366.091 394.327 368.106 399.815 369.726C400.214 369.872 400.639 369.933 401.063 369.904C401.587 369.76 402.041 369.429 402.337 368.974C402.632 368.519 402.75 367.971 402.668 367.434C402.489 365.044 400.092 363.483 397.834 362.594C393.801 361.066 389.444 360.59 385.175 361.211Z" fill="white"/>
<path d="M403.895 393.595C403.32 393.592 402.744 393.559 402.172 393.496C387.294 392.093 378.023 387.746 373.803 380.159C372.518 377.989 371.872 375.502 371.938 372.982C372.005 370.463 372.782 368.013 374.18 365.914C376.61 362.979 380.036 361.039 383.808 360.46L385.036 360.243C389.498 359.579 394.056 360.076 398.269 361.685C400.25 362.416 403.479 364.135 403.737 367.356C403.837 368.144 403.641 368.941 403.188 369.593C402.734 370.246 402.055 370.709 401.28 370.893C400.717 370.93 400.151 370.856 399.616 370.675L398.19 370.241C393.317 368.759 388.721 367.376 383.986 369.628C382.759 370.146 381.716 371.02 380.995 372.137C380.737 372.545 380.569 373.002 380.505 373.48C380.44 373.957 380.478 374.443 380.618 374.904C381.705 377.238 383.606 379.099 385.967 380.139C390.886 382.275 396.104 383.647 401.439 384.21L403.677 384.565C404.908 384.7 406.107 385.041 407.224 385.573C408.019 385.871 408.698 386.417 409.159 387.13C409.62 387.842 409.839 388.684 409.783 389.53C409.728 390.376 409.401 391.182 408.851 391.829C408.3 392.475 407.556 392.928 406.728 393.12C405.821 393.449 404.861 393.61 403.895 393.595ZM385.333 362.199L384.204 362.397C380.914 362.885 377.915 364.549 375.765 367.079C374.596 368.879 373.956 370.97 373.917 373.114C373.879 375.258 374.443 377.37 375.547 379.211C379.41 386.166 388.186 390.196 402.35 391.52C403.567 391.72 404.814 391.639 405.995 391.283C406.455 391.128 406.858 390.841 407.154 390.458C407.45 390.074 407.626 389.612 407.659 389.129C407.595 388.736 407.435 388.365 407.193 388.048C406.952 387.731 406.635 387.478 406.273 387.312C405.351 386.892 404.368 386.625 403.361 386.521L401.122 386.166C395.584 385.578 390.171 384.138 385.075 381.898C382.223 380.629 379.953 378.337 378.716 375.477C378.499 374.753 378.438 373.991 378.537 373.242C378.636 372.493 378.893 371.773 379.291 371.13C380.208 369.673 381.549 368.529 383.134 367.85C388.562 365.262 393.752 366.822 398.764 368.344L400.191 368.779C400.457 368.876 400.739 368.923 401.023 368.917C401.498 368.917 401.795 368.107 401.756 367.514C401.597 365.301 398.765 363.997 397.556 363.562C393.664 362.079 389.454 361.623 385.333 362.239V362.199Z" fill="#0B0B0B"/>
<path d="M389.75 351.213C389.75 351.213 398.902 396.775 399.655 399.522C400.408 402.268 422.041 413.55 439.276 402.466L454.352 355.896L389.75 351.213Z" fill="white"/>
<path d="M422.418 408.255C417.239 408.212 412.112 407.235 407.283 405.37C403.479 403.908 399.16 401.537 398.685 399.779C397.952 397.032 389.156 353.288 388.78 351.411C388.744 351.263 388.744 351.108 388.781 350.96C388.817 350.812 388.889 350.675 388.99 350.561C389.092 350.446 389.219 350.358 389.361 350.303C389.504 350.248 389.658 350.228 389.81 350.245L454.412 355.027C454.562 355.034 454.709 355.076 454.841 355.149C454.973 355.223 455.085 355.326 455.17 355.451C455.255 355.576 455.309 355.718 455.329 355.868C455.348 356.017 455.333 356.169 455.283 356.311L440.208 402.881C440.134 403.095 439.986 403.277 439.792 403.394C434.6 406.671 428.561 408.36 422.418 408.255ZM390.979 352.3C392.464 359.709 399.953 396.835 400.606 399.265C400.884 399.917 404.45 402.565 410.769 404.481C416.712 406.279 428.084 408.314 438.504 401.833L453.084 356.805L390.979 352.3Z" fill="#0B0B0B"/>
<path d="M454.508 353.87C454.825 346.151 440.594 339.3 422.72 338.569C404.847 337.837 390.1 343.502 389.782 351.221C389.465 358.94 403.696 365.791 421.57 366.523C439.443 367.254 454.19 361.589 454.508 353.87Z" fill="#0B0B0B"/>
<path d="M424.656 367.573C423.606 367.573 422.556 367.573 421.506 367.573C402.785 366.823 388.403 359.67 388.759 351.253C389.116 342.836 404.033 336.909 422.734 337.679C441.435 338.45 455.818 345.583 455.461 354C455.303 358.149 451.499 361.903 444.942 364.353C438.429 366.633 431.557 367.724 424.656 367.573ZM419.683 339.497C403.974 339.497 390.998 344.634 390.721 351.352C390.443 358.386 404.588 364.926 421.585 365.617C429.302 366.066 437.032 364.985 444.328 362.436C450.073 360.243 453.44 357.102 453.579 353.841C453.876 346.788 439.712 340.248 422.734 339.556L419.683 339.497Z" fill="#0B0B0B"/>
<path d="M344.622 224.623H239.805C239.543 224.623 239.291 224.519 239.105 224.334C238.919 224.149 238.815 223.897 238.815 223.635V192.773C238.82 192.513 238.926 192.265 239.111 192.08C239.295 191.896 239.544 191.79 239.805 191.785H344.622C344.885 191.785 345.137 191.889 345.323 192.075C345.509 192.26 345.613 192.511 345.613 192.773V223.695C345.598 223.946 345.487 224.183 345.303 224.355C345.119 224.528 344.875 224.624 344.622 224.623ZM240.796 222.647H343.632V193.761H240.796V222.647Z" fill="white"/>
<path d="M538.981 443.326H0.989258V464.012H538.981V443.326Z" fill="white"/>
<path d="M539.002 465H0.990521C0.727819 465 0.475875 464.896 0.290116 464.711C0.104357 464.526 0 464.274 0 464.012V443.326C0.00507161 443.065 0.11106 442.817 0.295731 442.633C0.480402 442.448 0.729407 442.343 0.990521 442.338H539.002C539.263 442.343 539.512 442.448 539.697 442.633C539.882 442.817 539.988 443.065 539.993 443.326V464.012C539.993 464.274 539.888 464.526 539.703 464.711C539.517 464.896 539.265 465 539.002 465ZM1.98104 463.024H538.012V444.313H1.98104V463.024Z" fill="#D1D3D4"/>
<path d="M454.333 250.131C454.071 250.121 453.825 250.01 453.644 249.823C453.463 249.635 453.362 249.384 453.362 249.124C453.362 246.851 454.808 193.287 460.731 174.734C466.655 156.182 477.768 148.456 478.224 148.16C478.442 148.013 478.71 147.959 478.968 148.009C479.226 148.059 479.454 148.209 479.601 148.427C479.748 148.644 479.802 148.911 479.752 149.168C479.702 149.426 479.551 149.653 479.333 149.8C479.214 149.8 468.378 157.288 462.613 175.327C456.848 193.366 455.363 248.61 455.343 249.163C455.34 249.293 455.312 249.421 455.26 249.54C455.208 249.659 455.133 249.766 455.039 249.856C454.945 249.946 454.834 250.016 454.713 250.064C454.592 250.111 454.463 250.134 454.333 250.131Z" fill="#0B0B0B"/>
</svg>
