<svg width="48" height="48" viewBox="0 0 48 48" fill="none" xmlns="http://www.w3.org/2000/svg">
<path fill-rule="evenodd" clip-rule="evenodd" d="M22.9961 15.3934L28.0037 16.6235L28.402 16.836L31.5995 20.299L31.6484 20.6687L28.8779 25.3671L31.0588 20.537L30.7401 20.4573L28.2342 24.6873L30.2037 20.3256L29.8244 20.2321L27.5629 24.0563L29.3432 20.1131L28.9183 20.0069L26.8012 23.5825L28.469 19.8964L28.0026 19.7806L26.2669 22.7167L27.634 19.6893L27.088 19.5544L25.7931 21.7341L26.8076 19.4864L25.6008 19.1889L22.9919 23.7079V19.0646L24.0138 17.8239L23.7461 17.5158L22.9961 18.696V17.7241L23.4306 17.1515L23.0514 16.7191L22.9951 16.8169V15.3934H22.9961ZM22.9961 28.6921L23.5814 27.805L22.9961 28.8992V28.6921ZM22.9961 30.1739V30.6371L24.3017 28.1938L22.9961 30.1718V30.1739ZM22.9961 31.4954L23.1024 31.5071L24.751 29.0001L23.3934 31.5368L24.017 31.6069L25.1239 29.9317L24.2156 31.6314L25.1802 31.7376L24.682 32.6087L24.4249 32.7064L22.9919 32.4366L22.9961 31.4954ZM22.3651 15.2426L22.9961 15.3977V16.8211L22.3651 17.9078V16.9337L22.755 16.3962L22.3651 15.9469V15.2426V15.2426ZM22.9961 23.7121L22.3651 24.8062V19.8316L22.9961 19.0646V23.7079V23.7121ZM22.3651 26.678L22.3885 26.6429L22.3651 26.6865V26.678V26.678ZM22.3651 28.1652L22.9685 27.2516L22.3651 28.3787V28.1662V28.1652ZM22.3651 29.6523L22.9961 28.6963V28.9034L22.3651 30.0836V29.6481V29.6523ZM22.3651 31.1342L22.9961 30.1782V30.6413L22.5627 31.4433L22.9961 31.4922V32.4355L22.3651 32.3165V31.1268V31.1342ZM22.9961 17.7325L22.3651 18.5654V19.6967L22.9961 18.7045V17.7325ZM21.0086 16.9358L21.9349 15.3509L22.2196 15.2075L22.3651 15.2426V15.9469L22.244 15.8066L21.0086 18.0438V16.9316V16.9358ZM22.3651 24.8062L21.0086 27.1571V20.3585L22.3651 18.5686V19.6999L21.9753 20.3128L22.3651 19.839V24.8094V24.8062ZM21.0086 28.7367V29.2264L22.3651 26.6907V26.6822L21.0086 28.7367ZM21.0086 30.2239L22.3651 28.1694V28.3819L21.0086 30.9122V30.2185V30.2239ZM21.0086 31.2808V32.0722L22.3651 32.3272V31.1374L22.1835 31.4125L21.6853 31.3562L22.3651 30.0868V29.6481L21.2721 31.3031L21.0086 31.2734V31.2808ZM22.3651 16.9401L21.0086 18.8023V20.2427L22.3651 17.9057V16.9401ZM15.3127 27.2569L15.3647 26.6026L21.0086 16.9422V18.0502L19.2622 21.2115L21.0086 18.8023V20.2427L20.726 20.7303L21.0086 20.3564V27.1549L18.7778 31.0259L19.446 31.1002L21.0118 28.7303V29.22L19.9708 31.1576L20.3585 31.2011L21.0086 30.2164V30.9122L20.8206 31.2532L21.0044 31.2734V32.0648L18.473 31.5889L18.0937 31.3658L15.3127 27.2569Z" fill="#D8A041"/>
<path fill-rule="evenodd" clip-rule="evenodd" d="M26.6249 24.5384L26.8947 24.7583C26.3636 24.9049 25.9057 25.4275 25.7326 25.9342C25.8878 25.6833 26.0932 25.4673 26.336 25.2996C26.5788 25.132 26.8536 25.0164 27.1433 24.9601L27.5459 25.2873C27.0073 25.4233 26.5325 25.9576 26.3572 26.4718C26.5144 26.216 26.7241 25.9965 26.9724 25.8276C27.2207 25.6588 27.502 25.5445 27.7976 25.4923L28.1981 25.8174C27.6457 25.9417 27.1613 26.4877 26.9818 27.0082C27.1415 26.7479 27.3557 26.5252 27.6097 26.3556C27.8637 26.186 28.1514 26.0734 28.4531 26.0256L28.8503 26.3443C28.2863 26.4505 27.7881 27.0146 27.6054 27.5404C27.9155 27.0167 28.5359 26.6109 29.1085 26.5546L29.4675 26.8436C28.8482 27.056 28.4222 27.7072 28.332 28.0546C28.5497 27.6551 29.1457 27.1474 29.7129 27.0337L30.1017 27.3375C29.4643 27.55 29.0171 28.2277 28.9236 28.5878C29.1499 28.1725 29.7735 27.6445 30.3556 27.5351L30.7433 27.8336C30.0879 28.0461 29.6343 28.727 29.5398 29.0913C29.7703 28.6664 30.4098 28.13 31.0015 28.0291C31.1257 28.1247 31.2511 28.2213 31.3743 28.318C30.7104 28.5198 30.2515 29.2124 30.1559 29.58C30.3885 29.1551 31.0376 28.6091 31.6335 28.5177C31.7589 28.6154 31.8842 28.7132 32.0074 28.812C31.4763 28.9925 31.0068 29.5555 30.8389 30.0633C31.1562 29.5388 31.6678 29.1609 32.2624 29.0117L32.6799 29.342C32.1243 29.5141 31.6654 30.0782 31.488 30.6008C31.6474 30.3393 31.8569 30.1119 32.1045 29.9316C32.352 29.7513 32.6328 29.6217 32.9305 29.5502L33.3459 29.8806C32.7935 30.0463 32.3081 30.6242 32.1328 31.1447C32.2937 30.878 32.5067 30.6464 32.7591 30.4639C33.0115 30.2814 33.2982 30.1516 33.6019 30.0824L34.0151 30.4107C33.4542 30.5679 32.9592 31.1543 32.7829 31.6854C32.9457 31.4167 33.1615 31.1839 33.4172 31.0013C33.6729 30.8187 33.9631 30.69 34.2701 30.6231L34.6812 30.9503C34.1118 31.098 33.6062 31.6992 33.4277 32.225C33.5926 31.9519 33.8123 31.7158 34.073 31.5319C34.3338 31.348 34.6298 31.2201 34.9425 31.1564L35.3525 31.4815C34.7736 31.6195 34.2573 32.2304 34.0778 32.7626C34.2444 32.4857 34.4675 32.247 34.7325 32.0621C34.9975 31.8772 35.2986 31.7503 35.616 31.6897L36.0228 32.0137C35.4365 32.1411 34.9096 32.7626 34.7269 33.3001C35.0455 32.7445 35.6935 32.3026 36.2884 32.224L36.6953 32.5427C36.0993 32.6595 35.5607 33.2916 35.377 33.8344C35.7031 33.2714 36.3606 32.8242 36.9629 32.7551L37.3666 33.0738C36.7622 33.18 36.2119 33.8174 36.026 34.3698C36.3575 33.7993 37.0288 33.3479 37.6364 33.2884L38.0401 33.6071C37.4261 33.6974 36.8631 34.3507 36.6751 34.9062C37.0118 34.3273 37.6959 33.8716 38.311 33.8227L38.7136 34.1414C38.09 34.2179 37.5143 34.885 37.3252 35.4437C37.6651 34.8574 38.3652 34.3963 38.9866 34.3581L39.3871 34.6768C38.755 34.7373 38.1665 35.4204 37.9742 35.9823C38.3195 35.3874 39.0365 34.92 39.6622 34.8956L40.0595 35.2143C39.3711 35.4161 38.891 36.1332 38.7964 36.5124C39.0365 36.0737 39.7089 35.5107 40.3219 35.4236L40.716 35.7422C40.0074 35.9409 39.5167 36.6792 39.4104 37.0733C39.6569 36.6218 40.3484 36.0429 40.9794 35.9536C41.1919 36.1264 41.4068 36.3035 41.6242 36.4848C41.8781 36.6314 40.0106 39.1405 39.3095 39.5027L38.5457 38.8292L24.7362 27.4937C23.9777 26.339 24.5311 24.7806 25.7283 24.5087C25.4417 24.7417 25.2246 25.0488 25.1005 25.3967C25.3725 24.9591 25.7918 24.6329 26.2828 24.4768C26.3984 24.4877 26.5128 24.5083 26.6249 24.5384V24.5384Z" fill="#D8A041"/>
<path fill-rule="evenodd" clip-rule="evenodd" d="M22.5011 11.2695L23.3669 3.62964L23.7121 11.3014L22.5011 11.2695Z" fill="#D8A041"/>
<path fill-rule="evenodd" clip-rule="evenodd" d="M25.1728 36.5115L24.6077 44.179L23.9618 36.5274L25.1728 36.5115Z" fill="#D8A041"/>
<path fill-rule="evenodd" clip-rule="evenodd" d="M19.275 12.0463L18.1331 4.4436L20.4531 11.7637L19.275 12.0463Z" fill="#D8A041"/>
<path fill-rule="evenodd" clip-rule="evenodd" d="M28.3882 35.7371L29.8266 43.2888L27.2219 36.0653L28.3882 35.7371Z" fill="#D8A041"/>
<path fill-rule="evenodd" clip-rule="evenodd" d="M16.3761 13.6661L13.3061 6.61792L17.4405 13.0893L16.3761 13.6661Z" fill="#D8A041"/>
<path fill-rule="evenodd" clip-rule="evenodd" d="M31.3106 34.1914L34.6546 41.1143L30.2695 34.8097L31.3106 34.1914Z" fill="#D8A041"/>
<path fill-rule="evenodd" clip-rule="evenodd" d="M13.9955 15.9821L9.20569 9.96851L14.874 15.1492L13.9955 15.9821Z" fill="#D8A041"/>
<path fill-rule="evenodd" clip-rule="evenodd" d="M12.2959 18.8352L6.11237 14.2664L12.9279 17.8027L12.2959 18.8352Z" fill="#D8A041"/>
<path fill-rule="evenodd" clip-rule="evenodd" d="M35.4907 29.1436L41.8484 33.466L34.899 30.1995L35.4907 29.1436Z" fill="#D8A041"/>
<path fill-rule="evenodd" clip-rule="evenodd" d="M11.3908 22.0307L4.23633 19.2178L11.7349 20.8696L11.3908 22.0307Z" fill="#D8A041"/>
<path fill-rule="evenodd" clip-rule="evenodd" d="M36.4637 25.9844L43.7244 28.5147L36.1663 27.1582L36.4637 25.9844Z" fill="#D8A041"/>
<path fill-rule="evenodd" clip-rule="evenodd" d="M11.3451 25.3513L3.7063 24.4866L11.377 24.1414L11.3451 25.3513Z" fill="#D8A041"/>
<path fill-rule="evenodd" clip-rule="evenodd" d="M36.5869 22.6807L44.2544 23.2458L36.6028 23.8917L36.5869 22.6807Z" fill="#D8A041"/>
<path fill-rule="evenodd" clip-rule="evenodd" d="M12.1216 28.5774L4.51892 29.7193L11.8391 27.4004L12.1216 28.5774Z" fill="#D8A041"/>
<path fill-rule="evenodd" clip-rule="evenodd" d="M35.8125 19.465L43.3642 18.0256L36.1407 20.6303L35.8125 19.465Z" fill="#D8A041"/>
<path fill-rule="evenodd" clip-rule="evenodd" d="M13.7427 31.4762L6.69342 34.5472L13.1648 30.4128L13.7427 31.4762Z" fill="#D8A041"/>
<path fill-rule="evenodd" clip-rule="evenodd" d="M34.2669 16.5428L41.1898 13.1987L34.8862 17.5838L34.2669 16.5428Z" fill="#D8A041"/>
<path fill-rule="evenodd" clip-rule="evenodd" d="M16.0573 33.8578L10.0449 38.6476L15.2245 32.9783L16.0573 33.8578Z" fill="#D8A041"/>
<path fill-rule="evenodd" clip-rule="evenodd" d="M32.0181 14.1208L37.8393 9.09839L32.8849 14.9653L32.0181 14.1208Z" fill="#D8A041"/>
<path fill-rule="evenodd" clip-rule="evenodd" d="M18.9106 35.5574L14.3418 41.7409L17.8781 34.9243L18.9106 35.5574Z" fill="#D8A041"/>
<path fill-rule="evenodd" clip-rule="evenodd" d="M29.2189 12.3628L33.5413 6.00513L30.2748 12.9545L29.2189 12.3628Z" fill="#D8A041"/>
<path fill-rule="evenodd" clip-rule="evenodd" d="M22.106 36.4616L19.2941 43.6171L20.9449 36.1174L22.106 36.4616Z" fill="#D8A041"/>
<path fill-rule="evenodd" clip-rule="evenodd" d="M26.0598 11.3887L28.5901 4.12915L27.2336 11.6872L26.0598 11.3887Z" fill="#D8A041"/>
<path d="M24 1.71777C29.9096 1.71777 35.5772 4.06537 39.756 8.24411C43.9347 12.4229 46.2823 18.0904 46.2823 24.0001C46.2823 29.9097 43.9347 35.5773 39.756 39.756C35.5772 43.9348 29.9096 46.2824 24 46.2824V45.4326C29.6851 45.4326 35.1373 43.1742 39.1573 39.1542C43.1773 35.1342 45.4357 29.682 45.4357 23.9969C45.4357 18.3118 43.1773 12.8595 39.1573 8.83958C35.1373 4.81961 29.6851 2.56122 24 2.56122V1.71777ZM24 46.2824C18.0904 46.2824 12.4228 43.9348 8.24405 39.756C4.06531 35.5773 1.71771 29.9097 1.71771 24.0001C1.71771 18.0904 4.06531 12.4229 8.24405 8.24411C12.4228 4.06537 18.0904 1.71777 24 1.71777V2.56759C18.3149 2.56759 12.8627 4.82599 8.84271 8.84596C4.82274 12.8659 2.56435 18.3182 2.56435 24.0033C2.56435 29.6884 4.82274 35.1406 8.84271 39.1606C12.8627 43.1805 18.3149 45.4389 24 45.4389V46.2824Z" fill="#D8A041"/>
<path d="M24.426 0.899658H24.2985H24V1.32457H24.1466H24.2932H24.4207L24.426 0.899658ZM23.6187 0.899658H23.5528H23.4041H23.2554H23.1916L23.2076 1.32457H23.2692H23.4147H23.5602H23.6272L23.6187 0.899658ZM22.7688 0.92834H22.6626L22.5203 0.943212L22.3694 0.955959H22.3386L22.3705 1.38087H22.3992L22.5436 1.37131L22.6881 1.36281H22.789L22.7646 0.9379L22.7688 0.92834ZM21.919 0.988889L21.7905 1.00057L21.6439 1.01545L21.4984 1.03032L21.5462 1.45523L21.6896 1.44036L21.8319 1.42655L21.9615 1.41486L21.9211 0.989952L21.919 0.988889ZM21.0692 1.08025H21.0618L20.9173 1.09937L20.7739 1.11955L20.6453 1.13761L20.707 1.55614L20.8323 1.53809L20.9736 1.51897L21.1149 1.50091H21.1223L21.0692 1.076V1.08025ZM20.2194 1.20453H20.1949L20.0526 1.22896L19.9102 1.2534L19.7976 1.27464L19.8752 1.68999L19.9814 1.66981L20.1216 1.64538L20.2619 1.62201H20.2852L20.2162 1.20453H20.2194ZM19.3791 1.35856L19.3441 1.36494L19.2028 1.39468L19.0626 1.42442L18.9563 1.44779L19.0487 1.85996L19.1486 1.83871L19.2867 1.80897L19.4248 1.78028L19.4588 1.77285L19.3749 1.35856H19.3791ZM18.5452 1.54446L18.5038 1.55402L18.3646 1.58801L18.2265 1.62307L18.1309 1.64856L18.2372 2.05754L18.3306 2.03311L18.4666 1.99911L18.6026 1.96512L18.644 1.95556L18.5442 1.54446H18.5452ZM17.7177 1.75691L17.6752 1.76966L17.5382 1.80897L17.4022 1.84933L17.3087 1.87695L17.4309 2.28168L17.5223 2.25406L17.6561 2.21476L17.791 2.17651L17.8335 2.16483L17.7177 1.75691V1.75691ZM16.9008 2.00761L16.8594 2.02036L16.7245 2.06497L16.5896 2.10959L16.495 2.14252L16.6331 2.54194L16.7255 2.51113L16.8573 2.46652L16.9901 2.42296L17.0315 2.41021L16.9008 2.00761ZM16.0924 2.28487L16.0563 2.29761L15.9235 2.34648L15.7918 2.3964L15.6919 2.43465L15.8449 2.82981L15.9416 2.79263L16.0712 2.74377L16.2018 2.6949L16.238 2.68216L16.0924 2.28487V2.28487ZM15.2968 2.59186L15.2681 2.60355L15.1374 2.65772L15.0078 2.7119L14.9016 2.75652L15.0684 3.14531L15.1746 3.10176L15.3021 3.04758L15.4296 2.99553L15.4582 2.98384L15.2968 2.59186ZM14.5118 2.92861L14.4926 2.9371L14.3652 2.99553L14.2377 3.05395L14.124 3.10813L14.3046 3.49055L14.4172 3.43744L14.5415 3.38007L14.6669 3.32271L14.686 3.31421L14.5118 2.92861V2.92861ZM13.7384 3.29297H13.7321L13.6067 3.35564L13.4814 3.41938L13.3571 3.48311L13.5525 3.85916L13.6747 3.79648L13.7968 3.73381L13.9201 3.6722H13.9264L13.7384 3.29297ZM12.9789 3.68813L12.8642 3.75081L12.7473 3.8241L12.6262 3.89209L12.6113 3.90059L12.8238 4.26707L12.8355 4.2607L12.9555 4.19271L13.0756 4.12685L13.1903 4.06418L12.9853 3.69344L12.9789 3.68813ZM12.2353 4.11304L12.1376 4.17147L12.0186 4.24264L11.8996 4.31594L11.8699 4.334L12.094 4.69305L12.1216 4.67605L12.2385 4.60488L12.3553 4.53477L12.4531 4.47634L12.2406 4.11304H12.2353ZM11.5087 4.56239L11.429 4.61337L11.3122 4.68986L11.1964 4.76634L11.1518 4.79609L11.3887 5.1477L11.4312 5.11902L11.5448 5.0436L11.6595 4.96818L11.7392 4.91719L11.5087 4.56239ZM10.7991 5.03722L10.7375 5.08078L10.6238 5.16045L10.5165 5.23906L10.4571 5.28261L10.7024 5.62997L10.7598 5.58854L10.866 5.50887L10.9723 5.43027L11.0339 5.38671L10.7906 5.04041L10.7991 5.03722ZM10.1086 5.53862L10.064 5.57155L9.95778 5.65547L9.85155 5.74045L9.7772 5.79887L10.0385 6.13137L10.1108 6.07507L10.217 5.99115L10.3232 5.90935L10.3668 5.87642L10.1118 5.53862H10.1086ZM9.43514 6.06976L9.40965 6.08994L9.30342 6.17811L9.19719 6.26628L9.10796 6.3417L9.38097 6.66038L9.46807 6.58708L9.5743 6.49998L9.68053 6.41393L9.70602 6.39375L9.43833 6.06551L9.43514 6.06976ZM8.78291 6.62001L8.77441 6.62745L8.66818 6.71881L8.56195 6.81122L8.45572 6.9047L8.74042 7.21701L8.84133 7.12672L8.94756 7.03536L9.05379 6.94613L9.06228 6.9387L8.78291 6.62001V6.62001ZM8.14554 7.19577L8.05418 7.28181L7.95433 7.37848L7.85448 7.47408L7.83748 7.49108L8.13492 7.79277L8.15085 7.7779L8.24858 7.68229L8.34631 7.58881L8.43767 7.5017L8.14554 7.19577V7.19577ZM7.54217 7.78639L7.46887 7.86075L7.37327 7.95954L7.2766 8.0594L7.24473 8.09339L7.55279 8.38339L7.5836 8.35152L7.67708 8.25379L7.77268 8.15607L7.84492 8.08171L7.54217 7.78639ZM6.95367 8.4057L6.89949 8.46519L6.80601 8.57142L6.71359 8.67764L6.66791 8.72969L6.9866 9.00907L7.03015 8.95915L7.12151 8.85292L7.2118 8.752L7.26704 8.69251L6.94836 8.40782L6.95367 8.4057ZM6.38854 9.04307L6.35136 9.08768L6.26106 9.19391L6.17289 9.30014L6.11553 9.37131L6.44377 9.63794L6.49901 9.56995L6.58612 9.46373L6.67429 9.3575L6.71147 9.31288L6.39278 9.03988L6.38854 9.04307ZM5.84253 9.70699L5.81916 9.73567L5.73417 9.8419L5.64919 9.94813L5.58121 10.0384L5.92326 10.304L5.98912 10.2169L6.07304 10.1107L6.15696 10.0044L6.17927 9.97574L5.84253 9.70699ZM5.32626 10.3868L5.3167 10.3996L5.23915 10.5164L5.15842 10.6227L5.08194 10.7289L5.42824 10.9722L5.50366 10.8659L5.58333 10.7597L5.663 10.6535L5.67256 10.6407L5.33051 10.3911L5.32626 10.3868ZM4.83443 11.0869L4.76007 11.1931L4.68358 11.3089L4.6071 11.4258L4.5986 11.4385L4.95553 11.6669L4.9619 11.6563L5.03732 11.5426L5.11274 11.4279L5.18604 11.3216L4.83443 11.0869V11.0869ZM4.37021 11.8039L4.30966 11.9006L4.23636 12.0196L4.16519 12.1385L4.14713 12.1683L4.51149 12.3807L4.52743 12.3531L4.5986 12.2363L4.66977 12.1194L4.73032 12.0228L4.37021 11.8007V11.8039ZM3.93574 12.5348L3.88794 12.6187L3.8242 12.7472L3.75622 12.8704L3.73178 12.9151L4.10358 13.1169L4.12695 13.0744L4.19281 12.9544L4.2608 12.8354L4.3086 12.7504L3.93999 12.538L3.93574 12.5348ZM3.5257 13.2784L3.48746 13.3495L3.42372 13.4738L3.35999 13.5992L3.33024 13.6587L3.70948 13.8467L3.73816 13.7893L3.80083 13.6672L3.86351 13.545L3.90069 13.4738L3.5257 13.2784V13.2784ZM3.14328 14.0421L3.11354 14.1027L3.05405 14.2344L2.99563 14.3619L2.9627 14.4341L3.3483 14.6083L3.38017 14.5382L3.43753 14.4139L3.49596 14.2896L3.5257 14.2291L3.14328 14.0474V14.0421ZM2.78848 14.8197L2.76724 14.8696L2.712 14.9992L2.6557 15.1363L2.62064 15.2202L3.01262 15.3806L3.04555 15.2988L3.09973 15.1713L3.15391 15.0449L3.17515 14.9939L2.78636 14.8272L2.78848 14.8197ZM2.46449 15.6154L2.44749 15.6589L2.3965 15.7906L2.34658 15.9224L2.31258 16.0148L2.70987 16.1614L2.74387 16.07L2.79273 15.9404L2.8416 15.8119L2.85859 15.7683L2.46449 15.6154ZM2.16918 16.4174L2.15537 16.4546L2.10969 16.5884L2.06507 16.7233L2.03214 16.8221L2.43474 16.9528L2.46661 16.8561L2.51123 16.7244L2.55584 16.5927L2.56859 16.5555L2.16918 16.4174V16.4174ZM1.90361 17.23L1.89298 17.264L1.85262 17.4011L1.81225 17.537L1.78251 17.6433L2.18936 17.759L2.21804 17.6592L2.25734 17.5253L2.29771 17.3915L2.30833 17.3575L1.90361 17.2343V17.23ZM1.66884 18.0512L1.65928 18.0862L1.62317 18.2254L1.58811 18.3635L1.56262 18.4697L1.97478 18.5696L1.99921 18.4708L2.0332 18.3348L2.06826 18.1988L2.07782 18.1638L1.66884 18.0575V18.0512ZM1.46489 18.8808L1.45639 18.9212L1.42452 19.0614L1.39478 19.2016L1.37459 19.2983L1.78888 19.3833L1.80906 19.2898L1.83881 19.1517L1.86855 19.0136L1.87811 18.9732L1.46489 18.8808V18.8808ZM1.29174 19.7179L1.28324 19.7667L1.25668 19.9091L1.23225 20.0514L1.21738 20.1385L1.63485 20.2076L1.64866 20.1237L1.67309 19.9834L1.69859 19.8443L1.70815 19.7944L1.29174 19.7179V19.7179ZM1.15045 20.5603L1.14089 20.624L1.12071 20.7685L1.10053 20.9119L1.09097 20.983L1.51588 21.0362L1.52544 20.9682L1.54456 20.8269L1.56474 20.6856L1.5743 20.6208L1.15576 20.5603H1.15045ZM1.04423 21.4101L1.03466 21.494L1.01979 21.6395L1.00492 21.7861V21.8361L1.42983 21.8732V21.8254L1.44364 21.6831L1.45851 21.5397L1.46807 21.4558L1.04316 21.4101H1.04423ZM0.964554 22.2599L0.957119 22.3661L0.943309 22.5202L0.933748 22.6678V22.6901L1.35866 22.7114V22.6922L1.36716 22.5478L1.37672 22.4033L1.38522 22.2971L0.960305 22.2673L0.964554 22.2599ZM0.916752 23.1097V23.2531V23.4019V23.5357L1.34166 23.5442V23.4125V23.2669L1.34697 23.1235L0.922063 23.1097H0.916752ZM0.900818 23.9595H1.32573V24.1412V24.2878V24.3791L0.900818 24.3866V24.2931V23.9649V23.9595ZM0.914627 24.8147V24.888L0.921001 25.0356L0.928437 25.1833V25.2407L1.35335 25.2173V25.162L1.34591 25.0165L1.3406 24.871V24.7987L0.91569 24.8147H0.914627ZM0.960305 25.6645L0.967741 25.7707L0.975177 25.9194L0.987925 26.066V26.0947L1.41283 26.0544V26.0289L1.40009 25.8844L1.38097 25.7452L1.37353 25.639L0.94862 25.6709L0.960305 25.6645ZM1.03679 26.5143L1.0506 26.6429L1.0676 26.7884L1.08565 26.9329V26.9382L1.51056 26.8829L1.48719 26.747L1.4702 26.6046L1.45639 26.4761L1.03148 26.5239L1.03679 26.5143ZM1.14302 27.3641L1.16426 27.5075L1.18657 27.651L1.20782 27.7816L1.62529 27.7126L1.60511 27.584L1.5828 27.4438L1.56155 27.3025L1.14195 27.3641H1.14302ZM1.27474 28.2129V28.231L1.3013 28.3733L1.32892 28.5146L1.35229 28.6325L1.76657 28.5475L1.7432 28.4328L1.71665 28.2936L1.69965 28.1502V28.1322L1.28324 28.2086L1.27474 28.2129ZM1.44577 29.05L1.45214 29.0776L1.48295 29.2178L1.51588 29.357L1.54243 29.4632L1.95353 29.3633L1.92804 29.2571L1.89617 29.1201L1.8643 28.983L1.85899 28.9554L1.44577 29.0478V29.05ZM1.6476 29.8807L1.65503 29.9125L1.69221 30.0496L1.72939 30.1877L1.75914 30.2939L2.16599 30.1781L2.13731 30.0719L2.10013 29.937L2.06401 29.8021L2.05657 29.7702L1.6476 29.8764V29.8807ZM1.88342 30.6997L1.89298 30.7316L1.93441 30.8675L1.9769 31.0024L2.0109 31.1087L2.4135 30.978L2.38057 30.8718L2.33702 30.7443L2.29559 30.6115L2.28603 30.5796L1.88342 30.6997ZM2.14581 31.5123L2.15537 31.541L2.20211 31.6749L2.24991 31.8076L2.28921 31.9139L2.6865 31.7683L2.64826 31.6621L2.60152 31.5314L2.55584 31.4008L2.54628 31.3721L2.14581 31.5102V31.5123ZM2.44324 32.3186L2.45174 32.3398L2.50273 32.4716L2.55478 32.6022L2.60046 32.7148L2.99244 32.5555L2.94782 32.4493L2.89683 32.3207L2.8416 32.1869L2.83416 32.1656L2.44324 32.3186ZM2.76193 33.1089L2.7683 33.1227L2.82354 33.2513L2.8809 33.3798L2.93508 33.4998L3.32068 33.3256L3.26757 33.2077L3.21127 33.0813L3.15709 32.9549L3.15072 32.9421L2.76193 33.1089ZM3.11354 33.8865L3.17409 34.0129L3.2357 34.1393L3.29731 34.2647V34.27L3.67442 34.0788L3.61175 33.9566L3.5512 33.8323L3.49171 33.7091L3.11354 33.8865ZM3.49383 34.6524L3.55226 34.765L3.61812 34.8893L3.68504 35.0115L3.6946 35.0295L4.06534 34.8256L4.05684 34.8096L3.99098 34.6885L3.92724 34.5674L3.86775 34.4548L3.49383 34.6524V34.6524ZM3.90175 35.4024L3.95699 35.499L4.0271 35.6201L4.09721 35.7402L4.11633 35.7721L4.47963 35.5543L4.46157 35.5245L4.39252 35.4066L4.32453 35.2887L4.26929 35.1921L3.90175 35.4045V35.4024ZM4.33834 36.1375L4.38721 36.2161L4.46157 36.334L4.53593 36.4519L4.56567 36.4987L4.92153 36.2681L4.89285 36.2235L4.81849 36.1077L4.74626 35.9919L4.69739 35.9133L4.33834 36.1375V36.1375ZM4.80043 36.8609L4.84186 36.9214L4.92047 37.0372L4.99908 37.1509L5.04157 37.2125L5.38787 36.9671L5.34644 36.9076L5.2689 36.7961L5.19241 36.6824L5.15205 36.6219L4.80043 36.8609ZM5.28908 37.5609L5.32095 37.6045L5.40274 37.716L5.4856 37.8276L5.54403 37.904L5.88077 37.6491L5.82553 37.5737L5.74373 37.4674L5.663 37.3612L5.63113 37.3177L5.28908 37.5673V37.5609ZM5.80428 38.2418L5.8234 38.2673L5.90945 38.3736L5.99656 38.4798L6.06985 38.5712L6.3981 38.3035L6.32586 38.2142L6.24088 38.108L6.15696 38.0018L6.13678 37.9763L5.80428 38.2418ZM6.34286 38.9036L6.35029 38.9121L6.43952 39.0184L6.52982 39.1246L6.62117 39.2308L6.93986 38.9504L6.84956 38.8442L6.76139 38.7379L6.67323 38.6317L6.66579 38.6232L6.34711 38.8962L6.34286 38.9036ZM6.9048 39.5442L6.98978 39.6366L7.08326 39.7428L7.17781 39.8491L7.1948 39.8671L7.50074 39.575L7.48693 39.5591L7.39345 39.4592L7.30103 39.3594L7.21605 39.2669L6.9048 39.5442ZM7.49118 40.1646L7.56341 40.2389L7.66114 40.3367L7.75887 40.4344L7.79287 40.4673L8.08818 40.1646L8.05631 40.1338L7.9607 40.0371L7.86404 39.9415L7.7918 39.8671L7.49118 40.1646ZM8.09986 40.7637L8.15829 40.8189L8.26452 40.9145L8.37074 41.008L8.42173 41.0548L8.70642 40.7361L8.65756 40.6915L8.55133 40.599L8.45254 40.5056L8.39411 40.4503L8.10411 40.7584L8.09986 40.7637ZM8.72979 41.3405L8.77335 41.3787L8.87957 41.4701L8.9858 41.5604L9.05485 41.6199L9.32785 41.2959L9.25987 41.2385L9.15364 41.1504L9.04741 41.0601L9.00386 41.0218L8.72448 41.3405H8.72979ZM9.38097 41.8929L9.40859 41.9163L9.51481 42.0034L9.62104 42.0905L9.70921 42.1606L9.97159 41.827L9.88449 41.759L9.77826 41.6741L9.67203 41.588L9.64441 41.5646L9.37672 41.8929H9.38097ZM10.0513 42.424L10.0629 42.4325L10.1692 42.5154L10.2754 42.5982L10.3816 42.679L10.6313 42.3369L10.525 42.2583L10.4188 42.1765L10.3126 42.0947L10.3009 42.0862L10.0449 42.424H10.0513ZM10.7428 42.9275L10.849 43.003L10.9638 43.0816L11.0795 43.1602L11.0934 43.1697L11.3281 42.8181L11.3164 42.8096L11.2028 42.7321L11.0902 42.6556L10.9839 42.5802L10.7428 42.9275V42.9275ZM11.4503 43.4056L11.5448 43.4661L11.6627 43.5405L11.7806 43.6148L11.8115 43.634L12.0335 43.2738L12.0048 43.2558L11.889 43.1836L11.7732 43.1092L11.6787 43.0486L11.4503 43.4056ZM12.1758 43.856L12.2565 43.9038L12.3766 43.9749L12.4977 44.0451L12.5444 44.0716L12.7569 43.7041L12.7112 43.6775L12.5933 43.6095L12.4754 43.5394L12.3946 43.4916L12.1822 43.856H12.1758ZM12.9194 44.2809L12.9874 44.317L13.1096 44.3839L13.2338 44.4498L13.2965 44.4817L13.4909 44.1067L13.4314 44.0748L13.3103 44.01L13.1892 43.9452L13.1212 43.908L12.9194 44.2809V44.2809ZM13.6757 44.6761L13.7321 44.7047L13.8574 44.7663L13.9838 44.828L14.0603 44.8641L14.2409 44.4817L14.1676 44.4466L14.0433 44.386L13.9201 44.3255L13.8648 44.2979L13.6757 44.6761V44.6761ZM14.447 45.0404L14.4916 45.0606L14.6201 45.118L14.7486 45.1753L14.8379 45.2136L15.0047 44.8248L14.9186 44.7876L14.7922 44.7313L14.6658 44.675L14.6212 44.6548L14.447 45.0404ZM15.2309 45.3793L15.267 45.3941L15.3977 45.4473L15.5284 45.4993L15.6282 45.5376L15.7812 45.1435L15.6835 45.1052L15.5549 45.0542L15.4264 45.0022L15.3913 44.9873L15.2309 45.3793V45.3793ZM16.0276 45.6895L16.0563 45.7001L16.1891 45.7479L16.3219 45.7957L16.4281 45.8329L16.5662 45.4324L16.46 45.3963L16.3293 45.3495L16.1987 45.3028L16.17 45.2922L16.0244 45.6895H16.0276ZM16.835 45.9688L16.8594 45.9773L16.9943 46.0198L17.1292 46.0634L17.2418 46.0974L17.365 45.6927L17.2588 45.6587L17.126 45.6172L16.9932 45.5747L16.9688 45.5662L16.8381 45.9688H16.835ZM17.6518 46.2185L17.6752 46.2248L17.8123 46.2642L17.9503 46.3013L18.0629 46.3321L18.1692 45.9221L18.0629 45.8934L17.928 45.8562L17.7931 45.818L17.7698 45.8116L17.654 46.2185H17.6518ZM18.4772 46.4373L18.5038 46.4437L18.643 46.4777L18.7821 46.5095L18.8936 46.535L18.9861 46.1218L18.8798 46.0974L18.7428 46.0655L18.6058 46.0326L18.5803 46.0262L18.4794 46.4373H18.4772ZM19.3111 46.6253L19.3441 46.6328L19.4853 46.6604L19.6266 46.688L19.7328 46.7082L19.8104 46.2918L19.7042 46.2727L19.565 46.245L19.4269 46.2174L19.394 46.211L19.309 46.6253H19.3111ZM20.1503 46.7825L20.1949 46.79L20.3383 46.8134L20.4818 46.8357L20.5731 46.8495L20.6337 46.4299L20.5455 46.4171L20.4053 46.3948L20.265 46.3725L20.2194 46.3651L20.1503 46.7825V46.7825ZM21.0001 46.9079L21.0618 46.9164L21.2062 46.9344L21.3518 46.9525L21.424 46.9599L21.4697 46.535L21.3996 46.5276L21.2572 46.5106L21.1149 46.4925L21.0533 46.4851L21.0001 46.91V46.9079ZM21.85 47.0024L21.9349 47.0099L22.0815 47.0226L22.2281 47.0343H22.2759L22.3057 46.6094H22.26L22.1166 46.5977L21.9721 46.585L21.8871 46.5775L21.85 47.0024V47.0024ZM22.6998 47.0651L22.8145 47.0715L22.9622 47.0789L23.1098 47.0842H23.1268L23.1406 46.6593H23.1258H22.9813L22.8358 46.6519L22.7221 46.6455L22.6998 47.0704V47.0651ZM23.5496 47.097H23.6983H23.9735V46.6721H23.8502H23.7036H23.557L23.5485 47.097H23.5496ZM24.3994 47.097H24.443H24.5917H24.7404H24.8265L24.8105 46.6721H24.7266H24.5811H24.4355H24.392L24.3994 47.097ZM25.2492 47.0672H25.3279L25.4755 47.0577L25.6221 47.0481H25.6763L25.6434 46.6232H25.5924L25.4479 46.6328L25.3034 46.6413H25.2259L25.2492 47.0662V47.0672ZM26.0991 47.0056L26.2053 46.9961L26.3508 46.9812L26.4964 46.9663H26.525L26.4772 46.5414H26.4517L26.3083 46.5563L26.166 46.5701L26.0598 46.5796L26.1001 47.0046L26.0991 47.0056ZM26.9489 46.9132L27.0764 46.8962L27.2198 46.876L27.3642 46.8558H27.3727L27.3079 46.4373H27.3026L27.1613 46.4575L27.0201 46.4766L26.8926 46.4936L26.9489 46.9185V46.9132ZM27.7987 46.7889L27.9421 46.7645L28.0845 46.7401L28.2194 46.7156L28.1418 46.2992L28.0101 46.3236L27.8699 46.3481L27.7297 46.3714L27.7987 46.7889V46.7889ZM28.639 46.6338H28.6507L28.7919 46.6041L28.9322 46.5743L29.0564 46.5467L28.964 46.1335L28.8419 46.1601L28.7038 46.1898L28.5657 46.2185H28.554L28.639 46.6338V46.6338ZM29.4729 46.4469H29.4909L29.6301 46.4129L29.7682 46.3778L29.8861 46.347L29.7799 45.937L29.6641 45.9678L29.5313 45.9965L29.3953 46.0305H29.3762L29.4771 46.4416L29.4729 46.4469ZM30.2982 46.2344L30.3195 46.228L30.4565 46.1887L30.5925 46.1484L30.7083 46.1144L30.5936 45.7075L30.481 45.7426L30.3471 45.7819L30.2122 45.8201L30.191 45.8265L30.3067 46.2333L30.2982 46.2344ZM31.1162 45.9858L31.1353 45.9805L31.2702 45.9359L31.4051 45.8913L31.5209 45.8509L31.3828 45.4504L31.2692 45.4898L31.1374 45.5344L31.0047 45.5779L30.9855 45.5832L31.1162 45.9858V45.9858ZM31.9235 45.7086H31.9384L32.0712 45.6587L32.2029 45.6098L32.324 45.5631L32.171 45.1679L32.0531 45.2136L31.9235 45.2624L31.7929 45.3113H31.778L31.9235 45.7096V45.7086ZM32.7202 45.4005H32.7277L32.8583 45.3463L32.9879 45.2922L33.1143 45.238L32.9476 44.8492L32.8233 44.9023L32.6958 44.9565L32.5673 45.0085H32.5609L32.7202 45.4005V45.4005ZM33.5063 45.0617L33.6306 45.0054L33.7581 44.9469L33.8845 44.8874L33.894 44.8821L33.7103 44.5008H33.7028L33.5786 44.5603L33.4617 44.6155L33.3374 44.6718L33.5138 45.0563L33.5063 45.0617ZM34.2786 44.6952L34.3848 44.641L34.5091 44.5773L34.6345 44.5135L34.6557 44.5018L34.4581 44.1279L34.439 44.1375L34.3168 44.2002L34.1947 44.2628L34.0884 44.3181L34.2797 44.6952H34.2786ZM35.036 44.3011L35.1295 44.249L35.2516 44.181L35.3738 44.113L35.4089 44.0929L35.1964 43.7264L35.1635 43.7444L35.0445 43.8124L34.9245 43.8783L34.8299 43.9303L35.0349 44.3011H35.036ZM35.7796 43.8762L35.8582 43.8294L35.9772 43.7582L36.0961 43.6849L36.145 43.6541L35.9209 43.2951L35.8741 43.3248L35.7573 43.396L35.6404 43.4672L35.5629 43.5129L35.7753 43.8762H35.7796ZM36.5062 43.4268L36.5667 43.3875L36.6836 43.311L36.7994 43.2345L36.8631 43.1921L36.6262 42.8404L36.5646 42.8819L36.4499 42.9573L36.3362 43.0327L36.2757 43.072L36.5062 43.4268V43.4268ZM37.2147 42.9499L37.2583 42.9201L37.3719 42.8404L37.4845 42.7597L37.5631 42.7023L37.3135 42.3603L37.237 42.4155L37.1308 42.4952L37.0246 42.5738L36.981 42.6036L37.2243 42.9499H37.2147ZM37.9063 42.4485L37.9307 42.4293L38.0369 42.3454L38.1432 42.2604L38.2356 42.1882L37.9859 41.8536L37.8956 41.9248L37.7894 42.0076L37.6832 42.0905L37.6577 42.1096L37.9137 42.4474L37.9063 42.4485ZM38.5776 41.9173L38.5861 41.9109L38.6923 41.8228L38.7986 41.7335L38.9048 41.6443L38.6297 41.3256L38.5234 41.4138L38.4172 41.5009L38.311 41.587L38.3036 41.5933L38.5702 41.9216L38.5776 41.9173ZM39.2309 41.3649L39.3255 41.2821L39.4317 41.1897L39.5379 41.0962L39.556 41.0802L39.2692 40.769L39.2532 40.7828L39.1523 40.8742L39.0461 40.9655L38.9526 41.0484L39.233 41.3671L39.2309 41.3649ZM39.8619 40.7892L39.9373 40.7191L40.0372 40.6224L40.136 40.5257L40.17 40.4939L39.8725 40.1922L39.8407 40.223L39.7429 40.3186L39.6452 40.4121L39.5709 40.4832L39.8619 40.7892V40.7892ZM40.4727 40.1964L40.528 40.1401L40.6246 40.0403L40.7213 39.9404L40.7691 39.8894L40.461 39.5994L40.4143 39.6483L40.3208 39.746L40.2252 39.8438L40.1689 39.9011L40.4727 40.1964ZM41.0602 39.5771L41.0984 39.5346L41.1919 39.4284L41.2843 39.3222L41.3448 39.2531L41.0262 38.9738L40.9677 39.0407L40.8764 39.1469L40.785 39.2478L40.7468 39.2903L41.0602 39.575V39.5771ZM41.6242 38.9398L41.6465 38.9121L41.7358 38.8059L41.825 38.6997L41.8972 38.6115L41.569 38.3438L41.4989 38.4299L41.4118 38.5361L41.3236 38.6423L41.3013 38.6689L41.62 38.9429L41.6242 38.9398ZM42.1649 38.278L42.1724 38.2673L42.2584 38.1611L42.3434 38.0549L42.4252 37.9487L42.0874 37.6926L42.0066 37.7989L41.9238 37.9051L41.8399 38.0113L41.8314 38.022L42.1649 38.2833V38.278ZM42.6812 37.596L42.7577 37.4898L42.8384 37.3772L42.9181 37.2635L42.9287 37.2476L42.5813 37.0064L42.5718 37.0202L42.4932 37.1265L42.4135 37.2327L42.337 37.3389L42.6812 37.5864V37.596ZM43.1709 36.897L43.2325 36.8057L43.309 36.6899L43.3855 36.573L43.4067 36.5401L43.0498 36.3117L43.0307 36.3425L42.9553 36.4572L42.8798 36.5709L42.8193 36.6622L43.1709 36.897V36.897ZM43.6351 36.18L43.6829 36.1024L43.7562 35.9834L43.8274 35.8645L43.8571 35.8145L43.4928 35.6021L43.4641 35.6499L43.394 35.7667L43.3228 35.8836L43.275 35.9611L43.6351 36.1832V36.18ZM44.0728 35.4459L44.1089 35.3822L44.1769 35.2611L44.2449 35.1379L44.281 35.0731L43.9092 34.8712L43.8741 34.9339L43.8083 35.054L43.7403 35.1729L43.7042 35.2377L44.0728 35.4502V35.4459ZM44.4818 34.7023L44.5083 34.6514L44.5731 34.5271L44.6368 34.4017L44.6761 34.322L44.2969 34.1245L44.2576 34.2031L44.1949 34.3252L44.1323 34.4474L44.1057 34.4984L44.4807 34.6938L44.4818 34.7023ZM44.8642 33.9375L44.8822 33.8982L44.9428 33.7718L45.0012 33.6443L45.0437 33.5508L44.6581 33.3766L44.6156 33.4616L44.5582 33.5859L44.4987 33.7112L44.4807 33.7505L44.8631 33.9311L44.8642 33.9375ZM45.2168 33.1599L45.2296 33.1312L45.2848 33.0016L45.339 32.872L45.3826 32.7658L44.9906 32.6054L44.9492 32.7116L44.895 32.8391L44.8408 32.9655L44.8281 32.9953L45.2168 33.162V33.1599ZM45.5408 32.3696L45.5493 32.3483L45.6003 32.2166L45.6492 32.0849L45.6917 31.9702L45.2944 31.8246L45.253 31.9372L45.2041 32.0668L45.1574 32.1869L45.1499 32.2081L45.544 32.3611L45.5408 32.3696ZM45.8351 31.5676L45.8404 31.5527L45.8871 31.4188L45.9318 31.2839L45.9711 31.1628L45.5716 31.0237L45.5334 31.1427L45.4888 31.2744L45.4442 31.4061L45.4389 31.421L45.8383 31.5591L45.8351 31.5676ZM46.0996 30.7549V30.7432L46.14 30.6062L46.1803 30.4702L46.2164 30.3459L45.8096 30.2302L45.7745 30.3523L45.7352 30.4862L45.6949 30.62V30.6328L46.0996 30.7549V30.7549ZM46.3333 29.9338V29.921L46.3694 29.7819L46.4045 29.6438L46.4353 29.5195L46.0242 29.4196L45.9966 29.5312L45.9626 29.6672L45.9275 29.8031V29.8159L46.3365 29.9221L46.3333 29.9338ZM46.5362 29.1041V29.0861L46.5681 28.9459L46.5978 28.8056L46.6339 28.6814L46.2196 28.5964L46.1952 28.7122L46.1655 28.8503L46.1357 28.9884V29.0064L46.5479 29.0988L46.5362 29.1041ZM46.7093 28.2671V28.2395L46.7359 28.0982L46.7603 27.9558L46.7795 27.8496L46.362 27.7806L46.3429 27.8868L46.3184 28.027L46.294 28.1662L46.2887 28.1938L46.7051 28.2703L46.7093 28.2671ZM46.8496 27.4247L46.8559 27.3833L46.8761 27.2388L46.8963 27.0954L46.908 27.0008L46.4884 26.9477L46.4767 27.0391L46.4576 27.1804L46.4374 27.3217L46.431 27.3631L46.8496 27.4247ZM46.9558 26.5749L46.9632 26.5143L46.9781 26.3688L46.993 26.2222L46.9993 26.15L46.5744 26.1128L46.5681 26.1829L46.5543 26.3252L46.5394 26.4686L46.5319 26.5292L46.9569 26.5749H46.9558ZM47.0344 25.725L47.0408 25.6379L47.0503 25.4913L47.0599 25.3437V25.2991L46.635 25.2768V25.3193L46.6265 25.4637L46.6169 25.6082L46.6106 25.6953L47.0355 25.725H47.0344ZM47.0811 24.8752V24.7552V24.6065V24.4578V24.4482L46.6562 24.4429V24.4503V24.5958V24.7414V24.8614L47.0811 24.8752V24.8752ZM47.0971 24.0254H46.6722V23.8671V23.7205V23.6058L47.0971 23.5984V23.7152V24.0073V24.0254ZM47.0822 23.1756V23.1246L47.0769 22.9769L47.0695 22.8293V22.7486L46.6445 22.7719V22.8505L46.652 22.9961V23.1405V23.1915L47.0769 23.1756H47.0822ZM47.0365 22.3258L47.0302 22.245L47.0185 22.0984L47.0057 21.9518V21.9009L46.5808 21.9402V21.989L46.5936 22.1335L46.6052 22.2769L46.6106 22.3587L47.0355 22.3258H47.0365ZM46.959 21.4759L46.9473 21.3697L46.9303 21.2242L46.9122 21.0797V21.051L46.4926 21.1073V21.1328L46.5107 21.2752L46.5277 21.4175L46.5394 21.5237L46.9643 21.4749L46.959 21.4759ZM46.8528 20.6261L46.8347 20.5029L46.8124 20.3595L46.789 20.2161V20.2044L46.3715 20.2766V20.2862L46.3938 20.4264L46.4162 20.5666L46.4342 20.6909L46.8528 20.6261V20.6261ZM46.7157 19.7582L46.6902 19.6223L46.6626 19.481L46.635 19.3408L46.2196 19.4247L46.2473 19.5628L46.2749 19.7019L46.3004 19.8379L46.7157 19.7582ZM46.5447 18.9222L46.5128 18.782L46.481 18.6429L46.4491 18.5111L46.038 18.611L46.0688 18.7406L46.1007 18.8776L46.1325 19.0147V19.02L46.5447 18.9265V18.9222ZM46.3429 18.0926V18.083L46.3057 17.946L46.2685 17.8079L46.2324 17.6804L45.8255 17.7962L45.8606 17.9216L45.8903 18.0586L45.9275 18.1935V18.2031L46.3365 18.0968L46.3429 18.0926ZM46.1102 17.2704V17.2608L46.0688 17.1249L46.0252 16.99L45.9849 16.8635L45.5791 16.9963L45.6195 17.1206L45.6609 17.2534L45.7023 17.3862V17.3957L46.1081 17.2725L46.1102 17.2704ZM45.8457 16.4652V16.4588L45.8 16.325L45.7522 16.1922L45.7055 16.0626L45.3082 16.2081L45.3539 16.3356L45.4006 16.4662L45.4463 16.5969V16.6033L45.8457 16.4652V16.4652ZM45.5525 15.6632L45.5015 15.5314L45.4495 15.4008L45.3964 15.2701V15.2648L45.0055 15.4273L45.0575 15.5559L45.1085 15.6844L45.1584 15.814L45.5525 15.661V15.6632ZM45.2285 14.8718L45.1765 14.7517L45.1202 14.6232L45.0628 14.4947L45.0564 14.4809L44.6719 14.6593L44.6772 14.671L44.7335 14.7974L44.7898 14.9238L44.8408 15.0428L45.2285 14.8739V14.8718ZM44.8769 14.0931L44.8259 13.9869L44.7643 13.8605L44.7027 13.7351L44.6889 13.7096L44.3118 13.8998L44.3235 13.9232L44.384 14.0464L44.4446 14.1707L44.4956 14.2769L44.8769 14.0931V14.0931ZM44.4956 13.3293L44.4467 13.2369L44.3819 13.1126L44.315 12.9905L44.2948 12.9522L43.923 13.1562L43.9432 13.1923L44.008 13.3134L44.0728 13.4345L44.1206 13.5259L44.4956 13.3293ZM44.0845 12.5762L44.0409 12.4997L43.9708 12.3786L43.8996 12.2586L43.8688 12.2065L43.5055 12.419L43.5353 12.4689L43.6054 12.5868L43.6734 12.7058L43.7169 12.7812L44.0845 12.5688V12.5762ZM43.6479 11.8422L43.6107 11.7827L43.5363 11.6648L43.462 11.5469L43.4195 11.481L43.0647 11.7115L43.105 11.7752L43.1783 11.891L43.2516 12.0068L43.2888 12.0663L43.6479 11.8422V11.8422ZM43.1836 11.1241L43.156 11.0826L43.0774 10.9668L42.9988 10.8532L42.9425 10.7725L42.5973 11.0157L42.6525 11.0933L42.729 11.2059L42.8065 11.3195L42.8342 11.361L43.1847 11.1241H43.1836ZM42.695 10.424L42.6769 10.3996L42.5973 10.2881L42.5144 10.1818L42.4432 10.0873L42.1065 10.3422L42.1756 10.4346L42.2573 10.5409L42.3381 10.6471L42.3561 10.6715L42.6982 10.4219L42.695 10.424ZM42.1798 9.74311L42.1734 9.73567L42.0884 9.62944L42.0013 9.52321L41.9142 9.41699L41.5881 9.68681L41.6742 9.79303L41.7591 9.89926L41.8431 10.0055L41.8494 10.0129L42.1819 9.7516L42.1798 9.74311ZM41.6412 9.08025L41.5605 8.9857L41.4702 8.87947L41.3788 8.77325L41.3618 8.75519L41.0432 9.03563L41.058 9.05263L41.1473 9.15885L41.2365 9.26508L41.3172 9.36069L41.6359 9.08556L41.6412 9.08025ZM41.0772 8.44288L41.0081 8.36746L40.9146 8.26123L40.819 8.155L40.7872 8.12101L40.4802 8.41314L40.511 8.445L40.6044 8.54486L40.6969 8.64471L40.7659 8.72013L41.0772 8.43332V8.44288ZM40.4908 7.82251L40.4345 7.76515L40.3368 7.66742L40.239 7.56969L40.1891 7.52082L39.8927 7.82357L39.9416 7.87031L40.0372 7.96698L40.1339 8.06259L40.1891 8.11995L40.4908 7.82251V7.82251ZM39.881 7.22339L39.8396 7.18302L39.7334 7.08848L39.6272 6.995L39.5592 6.93232L39.2745 7.25101L39.3403 7.31156L39.4402 7.40397L39.54 7.49745L39.5815 7.53676L39.8715 7.2287L39.881 7.22339ZM39.2511 6.64763L39.2245 6.62426L39.1183 6.53291L39.0121 6.44261L38.925 6.36825L38.652 6.68694L38.737 6.76023L38.8432 6.8484L38.9494 6.9387L38.976 6.961L39.2554 6.64232L39.2511 6.64763ZM38.5989 6.09525L38.5893 6.08675L38.4831 5.99965L38.3769 5.91254L38.2706 5.82862L38.004 6.16111L38.1102 6.24397L38.2164 6.32895L38.3227 6.41499L38.3322 6.42349L38.5999 6.09525H38.5989ZM37.9264 5.56411L37.8202 5.48657L37.7108 5.40371L37.6046 5.32085L37.5833 5.31129L37.3369 5.65441L37.3507 5.66503L37.4569 5.74576L37.5631 5.82756L37.6694 5.9051L37.9233 5.56411H37.9264ZM37.236 5.06059L37.1467 4.99898L37.0331 4.92037L36.9173 4.84176L36.8844 4.81946L36.6485 5.17107L36.6793 5.19232L36.793 5.26986L36.9045 5.34635L36.9938 5.40902L37.2349 5.06059H37.236ZM36.5274 4.58363L36.4531 4.53583L36.3352 4.46147L36.2172 4.38711L36.1663 4.35524L35.9453 4.71642L35.9931 4.74616L36.1089 4.81839L36.2247 4.89275L36.299 4.94056L36.5274 4.58363V4.58363ZM35.7987 4.13323L35.7382 4.09817L35.6181 4.027L35.497 3.95689L35.4301 3.91865L35.2176 4.28726L35.2824 4.32444L35.4014 4.39242L35.5193 4.46147L35.5799 4.49759L35.7923 4.13323H35.7987ZM35.0551 3.70832L35.0073 3.68282L34.8841 3.6159L34.7609 3.5511L34.6833 3.50542L34.4879 3.8804L34.5686 3.9229L34.6897 3.98769L34.8108 4.05249L34.8575 4.07799L35.0604 3.70619L35.0551 3.70832ZM34.2977 3.31315L34.2627 3.29509L34.1373 3.23348L34.0109 3.17187L33.9142 3.12513L33.7326 3.50861L33.8271 3.55322L33.9514 3.61377L34.0746 3.67432L34.1097 3.69132L34.2977 3.31315V3.31315ZM33.5265 2.9456L33.5031 2.93498L33.3746 2.87762L33.2492 2.82238L33.143 2.77458L32.9762 3.16337L33.0825 3.21011L33.2089 3.26641L33.3353 3.32271L33.3587 3.33333L33.5329 2.94773L33.5265 2.9456ZM32.7415 2.60674H32.7277L32.597 2.55362L32.4663 2.50157L32.3452 2.45483L32.1923 2.84893L32.3113 2.89567L32.4398 2.94666L32.5673 2.99872L32.5821 3.00403L32.7415 2.61205V2.60674ZM31.9458 2.29868H31.9384L31.8056 2.25087L31.6728 2.20307L31.5496 2.15739L31.4115 2.55787L31.5379 2.60142L31.6686 2.64816L31.7992 2.6949H31.8067L31.9522 2.29761L31.9458 2.29868ZM31.1438 2.01823L31.0089 1.97574L30.8729 1.93219L30.7391 1.89076L30.6159 2.29655L30.7476 2.33692L30.8804 2.37835L31.0132 2.42084L31.1438 2.01823ZM30.3259 1.76966L30.1888 1.73036L30.0507 1.69318L29.9148 1.65706L29.8085 2.06604L29.9413 2.10109L30.0762 2.13827L30.2111 2.17651L30.3269 1.76966H30.3259ZM29.5005 1.5519L29.3613 1.5179L29.2179 1.4871L29.0841 1.45735L28.9916 1.87058L29.1223 1.90032L29.2593 1.93219L29.3964 1.96512L29.4973 1.55402L29.5005 1.5519ZM28.6666 1.36494H28.656L28.5147 1.33732L28.3734 1.3097L28.247 1.28526L28.1705 1.69955L28.2937 1.72292L28.4329 1.75054L28.571 1.77816H28.5816L28.6666 1.36387V1.36494ZM27.8316 1.21197H27.8093L27.667 1.1886L27.5236 1.16629L27.4067 1.14504L27.3451 1.56358L27.4567 1.58058L27.5969 1.60288L27.7371 1.62519H27.7594L27.8285 1.20772L27.8316 1.21197ZM26.9818 1.08662L26.9436 1.08131L26.798 1.06219L26.6525 1.04519L26.5569 1.03457L26.5112 1.45948L26.6047 1.46904L26.7471 1.48603L26.8894 1.50409H26.9276L26.9808 1.08449L26.9818 1.08662ZM26.132 0.993139H26.0704L25.9195 0.97508L25.7729 0.963395L25.7071 0.955959L25.6773 1.38087H25.7464L25.8898 1.39255L26.0343 1.4053L26.0959 1.41061L26.1331 0.985703L26.132 0.993139ZM25.2822 0.930464H25.1908L25.0432 0.923028L24.8955 0.916655H24.8573L24.8435 1.34156H24.8806L25.0262 1.34688L25.1717 1.35431H25.2631L25.2822 0.930464Z" fill="#D8A041"/>
<path d="M24 0C30.3652 0 36.4697 2.52856 40.9706 7.02944C45.4714 11.5303 48 17.6348 48 24C48 30.3652 45.4714 36.4697 40.9706 40.9706C36.4697 45.4714 30.3652 48 24 48V47.5751C27.1148 47.6047 30.2045 47.0167 33.0907 45.8452C35.9769 44.6737 38.6024 42.9419 40.8153 40.7498C43.0283 38.5577 44.785 35.9488 45.9839 33.0739C47.1827 30.1989 47.8 27.1149 47.8 24C47.8 20.8851 47.1827 17.8011 45.9839 14.9261C44.785 12.0512 43.0283 9.44229 40.8153 7.2502C38.6024 5.05812 35.9769 3.32629 33.0907 2.15479C30.2045 0.983293 27.1148 0.395341 24 0.42491V0ZM24 48C17.6348 48 11.5303 45.4714 7.02944 40.9706C2.52856 36.4697 0 30.3652 0 24C0 17.6348 2.52856 11.5303 7.02944 7.02944C11.5303 2.52856 17.6348 0 24 0V0.42491C17.7472 0.42491 11.7505 2.90882 7.32914 7.33021C2.90776 11.7516 0.423848 17.7483 0.423848 24.0011C0.423848 30.2538 2.90776 36.2505 7.32914 40.6719C11.7505 45.0933 17.7472 47.5772 24 47.5772V48Z" fill="#D8A041"/>
</svg>
