<svg width="16" height="16" viewBox="0 0 16 16" fill="none" xmlns="http://www.w3.org/2000/svg">
<path fill-rule="evenodd" clip-rule="evenodd" d="M16.0005 8C16.0005 12.4183 12.4188 16 8.00049 16C3.58221 16 0.000488281 12.4183 0.000488281 8C0.000488281 3.58172 3.58221 0 8.00049 0C12.4188 0 16.0005 3.58172 16.0005 8ZM12.164 6.83034C12.8096 6.83034 13.3336 7.35431 13.3336 7.99993C13.3336 8.47712 13.0435 8.88882 12.6599 9.07595C12.6786 9.18823 12.688 9.30051 12.688 9.42215C12.688 11.2186 10.6014 12.6689 8.01898 12.6689C5.43652 12.6689 3.34997 11.2186 3.34997 9.42215C3.34997 9.30051 3.35933 9.17887 3.37804 9.06659C2.96635 8.87946 2.68564 8.47712 2.68564 7.99993C2.68564 7.35431 3.20962 6.83034 3.85524 6.83034C4.16401 6.83034 4.45407 6.96133 4.65991 7.15782C5.46459 6.56835 6.57804 6.20344 7.82249 6.16601L8.41196 3.3777C8.43067 3.32156 8.45874 3.27478 8.50553 3.24671C8.55231 3.21864 8.60845 3.20928 8.66459 3.21864L10.6014 3.63034C10.7324 3.34963 11.0131 3.1625 11.3406 3.1625C11.7991 3.1625 12.1734 3.53677 12.1734 3.99525C12.1734 4.45373 11.7991 4.828 11.3406 4.828C10.8915 4.828 10.5266 4.47244 10.5079 4.03268L8.77687 3.66776L8.24354 6.16601C9.45991 6.21279 10.564 6.58706 11.3593 7.15782C11.5652 6.95197 11.8459 6.83034 12.164 6.83034ZM6.16635 7.99993C5.70787 7.99993 5.3336 8.3742 5.3336 8.83268C5.3336 9.29116 5.70787 9.66542 6.16635 9.66542C6.62483 9.66542 6.99909 9.29116 6.99909 8.83268C6.99909 8.3742 6.62483 7.99993 6.16635 7.99993ZM8.00962 11.6397C8.32775 11.6397 9.41313 11.6023 9.98389 11.0315C10.0681 10.9473 10.0681 10.8163 10.0026 10.7227C9.91839 10.6385 9.77804 10.6385 9.69383 10.7227C9.32892 11.0783 8.57103 11.2093 8.01898 11.2093C7.46693 11.2093 6.69968 11.0783 6.34412 10.7227C6.25991 10.6385 6.11956 10.6385 6.03535 10.7227C5.95114 10.8069 5.95114 10.9473 6.03535 11.0315C6.59676 11.5929 7.69149 11.6397 8.00962 11.6397ZM9.00144 8.83268C9.00144 9.29116 9.3757 9.66542 9.83418 9.66542C10.2927 9.66542 10.6669 9.29116 10.6669 8.83268C10.6669 8.3742 10.2927 7.99993 9.83418 7.99993C9.3757 7.99993 9.00144 8.3742 9.00144 8.83268Z" fill="#D8A041"/>
</svg>
