<svg width="20" height="16" viewBox="0 0 20 16" fill="none" xmlns="http://www.w3.org/2000/svg">
<path d="M20.0005 1.89415C19.2567 2.21538 18.4642 2.42831 17.638 2.53169C18.488 2.032 19.1367 1.24677 19.4417 0.300308C18.6492 0.765538 17.7742 1.09415 16.8417 1.27754C16.0892 0.488616 15.0167 0 13.8467 0C11.5767 0 9.74924 1.81415 9.74924 4.03815C9.74924 4.35815 9.77674 4.66585 9.84424 4.95877C6.43549 4.79508 3.41924 3.18646 1.39299 0.736C1.03924 1.34031 0.831738 2.032 0.831738 2.77662C0.831738 4.17477 1.56299 5.41415 2.65299 6.13169C1.99424 6.11938 1.34799 5.93108 0.800488 5.63446C0.800488 5.64677 0.800488 5.66277 0.800488 5.67877C0.800488 7.64062 2.22174 9.27015 4.08549 9.64554C3.75174 9.73538 3.38799 9.77846 3.01049 9.77846C2.74799 9.77846 2.48299 9.76369 2.23424 9.70954C2.76549 11.3083 4.27299 12.4837 6.06549 12.5218C4.67049 13.5963 2.89924 14.2437 0.981738 14.2437C0.645488 14.2437 0.322988 14.2289 0.000488281 14.1883C1.81674 15.3415 3.96924 16 6.29049 16C13.8355 16 17.9605 9.84615 17.9605 4.512C17.9605 4.33354 17.9542 4.16123 17.9455 3.99015C18.7592 3.42154 19.443 2.71138 20.0005 1.89415Z" fill="#D8A041"/>
</svg>
