<svg width="1049" height="678" viewBox="0 0 1049 678" fill="none" xmlns="http://www.w3.org/2000/svg">
<path d="M479.543 546.082C479.543 549.332 477.304 552.637 472.744 555.814C468.212 558.971 461.585 561.855 453.298 564.293C436.736 569.165 413.767 572.193 388.268 572.193C362.769 572.193 340.305 569.165 324.25 564.295C316.216 561.858 309.843 558.977 305.501 555.825C301.139 552.659 299 549.354 299 546.082V509.997L479.543 508.087V546.082Z" fill="white" stroke="black" stroke-width="2"/>
<path d="M479.514 509.526C479.514 512.713 477.3 515.96 472.778 519.087C468.287 522.192 461.723 525.029 453.522 527.428C437.134 532.222 414.434 535.201 389.318 535.201C364.203 535.201 341.503 532.222 325.114 527.428C316.913 525.029 310.349 522.192 305.858 519.087C301.337 515.96 299.123 512.713 299.123 509.526C299.123 506.34 301.337 503.092 305.858 499.966C310.349 496.86 316.913 494.023 325.114 491.624C341.503 486.83 364.203 483.852 389.318 483.852C414.434 483.852 437.134 486.83 453.522 491.624C461.723 494.023 468.287 496.86 472.778 499.966C477.3 503.092 479.514 506.34 479.514 509.526Z" fill="#D8A041"/>
<path d="M479.514 509.526C479.514 512.713 477.3 515.96 472.778 519.087C468.287 522.192 461.723 525.029 453.522 527.428C437.134 532.222 414.434 535.201 389.318 535.201C364.203 535.201 341.503 532.222 325.114 527.428C316.913 525.029 310.349 522.192 305.858 519.087C301.337 515.96 299.123 512.713 299.123 509.526C299.123 506.34 301.337 503.092 305.858 499.966C310.349 496.86 316.913 494.023 325.114 491.624C341.503 486.83 364.203 483.852 389.318 483.852C414.434 483.852 437.134 486.83 453.522 491.624C461.723 494.023 468.287 496.86 472.778 499.966C477.3 503.092 479.514 506.34 479.514 509.526Z" fill="url(#paint0_linear_0_1)" fill-opacity="0.2"/>
<path d="M479.514 509.526C479.514 512.713 477.3 515.96 472.778 519.087C468.287 522.192 461.723 525.029 453.522 527.428C437.134 532.222 414.434 535.201 389.318 535.201C364.203 535.201 341.503 532.222 325.114 527.428C316.913 525.029 310.349 522.192 305.858 519.087C301.337 515.96 299.123 512.713 299.123 509.526C299.123 506.34 301.337 503.092 305.858 499.966C310.349 496.86 316.913 494.023 325.114 491.624C341.503 486.83 364.203 483.852 389.318 483.852C414.434 483.852 437.134 486.83 453.522 491.624C461.723 494.023 468.287 496.86 472.778 499.966C477.3 503.092 479.514 506.34 479.514 509.526Z" stroke="black" stroke-width="2"/>
<path d="M469.968 509.508C469.968 511.87 468.1 514.389 464.032 516.878C460.022 519.332 454.153 521.578 446.812 523.479C432.144 527.275 411.828 529.635 389.348 529.635C366.869 529.635 346.552 527.275 331.885 523.479C324.544 521.578 318.675 519.332 314.665 516.878C310.597 514.389 308.729 511.87 308.729 509.508C308.729 507.146 310.597 504.626 314.665 502.137C318.675 499.683 324.544 497.437 331.885 495.537C346.552 491.74 366.869 489.381 389.348 489.381C411.828 489.381 432.144 491.74 446.812 495.537C454.153 497.437 460.022 499.683 464.032 502.137C468.1 504.626 469.968 507.146 469.968 509.508Z" stroke="black" stroke-width="2"/>
<path d="M1047.54 403.355C1047.54 406.606 1045.3 409.91 1040.74 413.088C1036.21 416.245 1029.59 419.128 1021.3 421.566C1004.74 426.438 981.767 429.466 956.268 429.466C930.769 429.466 908.305 426.438 892.25 421.569C884.216 419.132 877.843 416.251 873.501 413.099C869.139 409.932 867 406.627 867 403.355V367.27L1047.54 365.36V403.355Z" fill="white" stroke="black" stroke-width="2"/>
<path d="M1047.51 366.8C1047.51 369.986 1045.3 373.233 1040.78 376.36C1036.29 379.466 1029.72 382.303 1021.52 384.702C1005.13 389.495 982.434 392.474 957.318 392.474C932.203 392.474 909.503 389.495 893.114 384.702C884.913 382.303 878.349 379.466 873.858 376.36C869.337 373.233 867.123 369.986 867.123 366.8C867.123 363.613 869.337 360.366 873.858 357.239C878.349 354.133 884.913 351.296 893.114 348.898C909.503 344.104 932.203 341.125 957.318 341.125C982.434 341.125 1005.13 344.104 1021.52 348.898C1029.72 351.296 1036.29 354.133 1040.78 357.239C1045.3 360.366 1047.51 363.613 1047.51 366.8Z" fill="#D8A041" stroke="black" stroke-width="2"/>
<path d="M1037.97 366.781C1037.97 369.143 1036.1 371.663 1032.03 374.152C1028.02 376.606 1022.15 378.852 1014.81 380.752C1000.14 384.549 979.826 386.908 957.346 386.908C934.867 386.908 914.55 384.549 899.883 380.752C892.542 378.852 886.673 376.606 882.663 374.152C878.595 371.663 876.727 369.143 876.727 366.781C876.727 364.419 878.595 361.9 882.663 359.411C886.673 356.957 892.542 354.711 899.883 352.81C914.55 349.014 934.867 346.654 957.346 346.654C979.826 346.654 1000.14 349.014 1014.81 352.81C1022.15 354.711 1028.02 356.957 1032.03 359.411C1036.1 361.9 1037.97 364.419 1037.97 366.781Z" stroke="black" stroke-width="2"/>
<path d="M535.543 363.935C535.543 367.186 533.304 370.49 528.744 373.668C524.212 376.825 517.585 379.708 509.298 382.146C492.736 387.019 469.767 390.046 444.268 390.046C418.769 390.046 396.305 387.018 380.25 382.149C372.216 379.712 365.843 376.831 361.501 373.679C357.139 370.512 355 367.207 355 363.935V327.85L535.543 325.94V363.935Z" fill="white" stroke="black" stroke-width="2"/>
<path d="M535.514 327.38C535.514 330.566 533.3 333.813 528.778 336.94C524.287 340.046 517.723 342.883 509.522 345.282C493.134 350.075 470.434 353.054 445.318 353.054C420.203 353.054 397.503 350.075 381.114 345.282C372.913 342.883 366.349 340.046 361.858 336.94C357.337 333.813 355.123 330.566 355.123 327.38C355.123 324.193 357.337 320.946 361.858 317.819C366.349 314.713 372.913 311.876 381.114 309.478C397.503 304.684 420.203 301.705 445.318 301.705C470.434 301.705 493.134 304.684 509.522 309.478C517.723 311.876 524.287 314.713 528.778 317.819C533.3 320.946 535.514 324.193 535.514 327.38Z" fill="#D8A041" stroke="black" stroke-width="2"/>
<path d="M525.966 327.361C525.966 329.723 524.098 332.243 520.03 334.732C516.02 337.186 510.151 339.432 502.81 341.332C488.143 345.129 467.826 347.488 445.346 347.488C422.867 347.488 402.55 345.129 387.883 341.332C380.542 339.432 374.673 337.186 370.663 334.732C366.595 332.243 364.727 329.723 364.727 327.361C364.727 324.999 366.595 322.48 370.663 319.991C374.673 317.537 380.542 315.291 387.883 313.39C402.55 309.594 422.867 307.234 445.346 307.234C467.826 307.234 488.143 309.594 502.81 313.39C510.151 315.291 516.02 317.537 520.03 319.991C524.098 322.48 525.966 324.999 525.966 327.361Z" stroke="black" stroke-width="2"/>
<path d="M181.543 475.082C181.543 478.332 179.304 481.637 174.744 484.814C170.212 487.971 163.585 490.855 155.298 493.293C138.736 498.165 115.767 501.193 90.2683 501.193C64.7694 501.193 42.3055 498.165 26.2499 493.295C18.2159 490.858 11.8434 487.977 7.50144 484.825C3.13947 481.659 1 478.354 1 475.082V438.997L181.543 437.087V475.082Z" fill="white" stroke="black" stroke-width="2"/>
<path d="M181.514 438.526C181.514 441.713 179.3 444.96 174.778 448.087C170.287 451.192 163.723 454.029 155.522 456.428C139.134 461.222 116.434 464.201 91.3183 464.201C66.2029 464.201 43.503 461.222 27.1143 456.428C18.9133 454.029 12.3494 451.192 7.85841 448.087C3.337 444.96 1.12305 441.713 1.12305 438.526C1.12305 435.34 3.337 432.092 7.85841 428.966C12.3494 425.86 18.9133 423.023 27.1143 420.624C43.503 415.83 66.2029 412.852 91.3183 412.852C116.434 412.852 139.134 415.83 155.522 420.624C163.723 423.023 170.287 425.86 174.778 428.966C179.3 432.092 181.514 435.34 181.514 438.526Z" fill="#D8A041"/>
<path d="M181.514 438.526C181.514 441.713 179.3 444.96 174.778 448.087C170.287 451.192 163.723 454.029 155.522 456.428C139.134 461.222 116.434 464.201 91.3183 464.201C66.2029 464.201 43.503 461.222 27.1143 456.428C18.9133 454.029 12.3494 451.192 7.85841 448.087C3.337 444.96 1.12305 441.713 1.12305 438.526C1.12305 435.34 3.337 432.092 7.85841 428.966C12.3494 425.86 18.9133 423.023 27.1143 420.624C43.503 415.83 66.2029 412.852 91.3183 412.852C116.434 412.852 139.134 415.83 155.522 420.624C163.723 423.023 170.287 425.86 174.778 428.966C179.3 432.092 181.514 435.34 181.514 438.526Z" fill="url(#paint1_linear_0_1)" fill-opacity="0.2"/>
<path d="M181.514 438.526C181.514 441.713 179.3 444.96 174.778 448.087C170.287 451.192 163.723 454.029 155.522 456.428C139.134 461.222 116.434 464.201 91.3183 464.201C66.2029 464.201 43.503 461.222 27.1143 456.428C18.9133 454.029 12.3494 451.192 7.85841 448.087C3.337 444.96 1.12305 441.713 1.12305 438.526C1.12305 435.34 3.337 432.092 7.85841 428.966C12.3494 425.86 18.9133 423.023 27.1143 420.624C43.503 415.83 66.2029 412.852 91.3183 412.852C116.434 412.852 139.134 415.83 155.522 420.624C163.723 423.023 170.287 425.86 174.778 428.966C179.3 432.092 181.514 435.34 181.514 438.526Z" stroke="black" stroke-width="2"/>
<path d="M171.966 438.508C171.966 440.87 170.098 443.389 166.03 445.878C162.02 448.332 156.151 450.578 148.81 452.479C134.143 456.275 113.826 458.635 91.3463 458.635C68.8669 458.635 48.5501 456.275 33.883 452.479C26.542 450.578 20.6727 448.332 16.6626 445.878C12.5951 443.389 10.7266 440.87 10.7266 438.508C10.7266 436.146 12.5951 433.626 16.6626 431.137C20.6727 428.683 26.542 426.437 33.883 424.537C48.5501 420.74 68.8669 418.381 91.3463 418.381C113.826 418.381 134.143 420.74 148.81 424.537C156.151 426.437 162.02 428.683 166.03 431.137C170.098 433.626 171.966 436.146 171.966 438.508Z" stroke="black" stroke-width="2"/>
<path d="M695.543 435.371C695.543 438.621 693.304 441.926 688.744 445.103C684.212 448.26 677.585 451.144 669.298 453.582C652.736 458.454 629.767 461.482 604.268 461.482C578.769 461.482 556.305 458.454 540.25 453.584C532.216 451.148 525.843 448.266 521.501 445.114C517.139 441.948 515 438.643 515 435.371V399.286L695.543 397.376V435.371Z" fill="white" stroke="black" stroke-width="2"/>
<path d="M695.514 398.815C695.514 402.002 693.3 405.249 688.778 408.376C684.287 411.481 677.723 414.318 669.522 416.717C653.134 421.511 630.434 424.49 605.318 424.49C580.203 424.49 557.503 421.511 541.114 416.717C532.913 414.318 526.349 411.481 521.858 408.376C517.337 405.249 515.123 402.002 515.123 398.815C515.123 395.629 517.337 392.382 521.858 389.255C526.349 386.149 532.913 383.312 541.114 380.913C557.503 376.12 580.203 373.141 605.318 373.141C630.434 373.141 653.134 376.12 669.522 380.913C677.723 383.312 684.287 386.149 688.778 389.255C693.3 392.382 695.514 395.629 695.514 398.815Z" fill="#D8A041" stroke="black" stroke-width="2"/>
<path d="M685.968 398.797C685.968 401.159 684.1 403.678 680.032 406.167C676.022 408.622 670.153 410.868 662.812 412.768C648.144 416.564 627.828 418.924 605.348 418.924C582.869 418.924 562.552 416.564 547.885 412.768C540.544 410.868 534.675 408.622 530.665 406.167C526.597 403.678 524.729 401.159 524.729 398.797C524.729 396.435 526.597 393.916 530.665 391.426C534.675 388.972 540.544 386.726 547.885 384.826C562.552 381.029 582.869 378.67 605.348 378.67C627.828 378.67 648.144 381.029 662.812 384.826C670.153 386.726 676.022 388.972 680.032 391.426C684.1 393.916 685.968 396.435 685.968 398.797Z" stroke="black" stroke-width="2"/>
<path d="M485.841 483.675L473.221 475.569L538.742 404.088L485.841 483.675Z" fill="#D8A041" stroke="black" stroke-width="2"/>
<path d="M444.903 468.915L429.457 465.704L461.95 376.552L444.903 468.915Z" fill="#D8A041" stroke="black" stroke-width="2"/>
<path d="M396.291 462.987L380.397 463.052L386.952 370.043L396.291 462.987Z" fill="#D8A041" stroke="black" stroke-width="2"/>
<path d="M344.778 470.372L329.217 473.677L314.308 380.482L344.778 470.372Z" fill="#D8A041" stroke="black" stroke-width="2"/>
<path d="M304.001 478.983L291.019 487.352L239.238 405.152L304.001 478.983Z" fill="#D8A041" stroke="black" stroke-width="2"/>
<path d="M832.036 7.04387C832.166 4.94886 831.536 2.5114 833.046 0.789062C834.576 6.1273 834.816 11.7173 835.846 17.1563C836.536 22.6557 837.936 28.145 837.376 33.7351C835.696 33.9365 834.016 34.0775 832.336 34.1581C831.686 25.1435 832.246 16.0786 832.036 7.04387Z" fill="#0B0B0B"/>
<path d="M814.544 25.405C813.274 18.1127 809.974 11.304 809.474 3.87071C812.784 9.10823 814.774 15.0307 817.314 20.661C819.344 25.3143 821.704 29.8166 823.414 34.6109C821.684 36.1318 819.364 35.9404 817.234 36.0412C816.714 34.1073 816.224 32.1634 815.804 30.2094C815.354 28.6079 814.994 26.9964 814.544 25.405Z" fill="#0B0B0B"/>
<path d="M861.874 7.12401C861.294 9.78306 861.164 12.5126 860.864 15.222C859.344 22.3934 858.174 29.6453 857.044 36.8973C854.874 37.27 852.604 37.139 850.834 35.6584C851.374 34.1577 851.954 32.667 852.444 31.1461C852.944 29.8871 853.394 28.6079 853.904 27.3489C856.014 21.507 858.404 15.7659 860.544 9.93414C860.874 9.22909 861.544 7.82906 861.874 7.12401Z" fill="#0B0B0B"/>
<path d="M788.954 14.4364C795.154 20.1675 799.794 27.3086 805.164 33.7749C806.534 35.7793 808.674 37.6326 808.644 40.2614C808.194 42.1751 805.734 42.155 804.374 43.0614C799.404 33.4325 792.954 24.5589 788.954 14.4364Z" fill="#0B0B0B"/>
<path d="M864.314 42.2255C869.904 32.6771 876.274 23.5718 883.194 14.9601C880.714 21.2351 877.874 27.3287 875.004 33.4224C873.364 36.8268 871.824 40.2815 869.994 43.5852C869.704 43.8874 869.144 44.5018 868.864 44.814C867.414 43.837 865.884 42.9809 864.314 42.2255Z" fill="#0B0B0B"/>
<path d="M770.754 28.4367C775.544 30.6022 779.164 34.6008 783.464 37.5318C788.044 41.2283 793.364 44.0183 797.394 48.3896C796.304 49.6083 795.214 50.8271 794.134 52.0559C793.784 51.9854 793.074 51.8645 792.724 51.794C787.874 47.1306 782.844 42.6384 778.464 37.4916C775.974 34.4095 772.654 31.9821 770.754 28.4367Z" fill="#0B0B0B"/>
<path d="M898.924 30.4612C899.324 30.2094 900.124 29.7158 900.534 29.464C894.844 38.9319 886.624 46.5162 879.734 55.0675C878.464 53.748 877.124 52.489 875.734 51.3105C878.254 48.2083 881.354 45.6701 884.304 43.0111C889.284 38.9621 893.844 34.3893 898.924 30.4612Z" fill="#0B0B0B"/>
<path d="M757.814 47.7047C761.934 48.3493 765.744 50.122 769.604 51.6127C775.514 53.9897 781.284 56.7394 787.334 58.7639C787.564 60.0935 787.144 61.423 786.994 62.7424C786.454 63.0446 785.364 63.659 784.814 63.9612C776.394 60.869 769.524 54.6344 761.514 50.6357C760.174 49.8299 758.174 49.4976 757.814 47.7047Z" fill="#0B0B0B"/>
<path d="M903.834 52.5796C907.364 51.1091 910.774 49.145 914.624 48.6414C908.094 52.5998 902.194 57.4948 895.904 61.8057C893.194 64.0417 889.764 65.4518 887.574 68.2821C886.684 66.4792 884.724 64.7871 885.474 62.5813C886.094 61.3323 887.504 60.8892 888.604 60.1841C893.794 57.9078 898.834 55.2588 903.834 52.5796Z" fill="#0B0B0B"/>
<path d="M833.774 52.5091C836.374 51.8242 838.944 50.6861 841.684 50.8371C843.234 51.4314 844.074 52.9825 844.964 54.302C849.804 62.7827 854.714 71.2333 859.484 79.7644C859.984 80.6507 860.484 81.5371 860.974 82.4234C864.824 89.2322 868.934 95.91 872.494 102.88C872.894 105.539 871.674 108.128 870.134 110.223C867.214 114.392 864.174 118.482 861.474 122.803C859.644 125.895 855.744 126.237 852.574 126.832C850.664 127.466 848.644 127.597 846.664 127.839C841.314 128.876 835.944 129.883 830.554 130.689C829.864 129.511 829.174 128.342 828.464 127.184C828.424 126.751 828.344 125.895 828.304 125.462C829.024 125.351 830.454 125.129 831.174 125.019C831.154 124.253 831.114 122.742 831.094 121.987C832.284 123.185 833.504 124.364 834.794 125.462C836.054 122.017 831.994 120.093 832.174 116.81C834.634 118.955 835.984 122.027 838.274 124.334C838.684 120.305 834.624 117.746 834.744 113.738C837.824 116.699 839.264 120.959 842.514 123.76C841.774 119.136 838.044 115.702 837.404 111.059C840.344 114.392 842.434 118.341 844.684 122.158C845.114 122.319 845.974 122.642 846.404 122.803C845.234 117.746 841.384 113.919 839.884 108.994C840.224 109.064 840.894 109.215 841.234 109.286C843.764 113.305 846.084 117.555 849.544 120.889C848.424 117.605 846.524 114.695 844.974 111.623C844.144 110.031 843.374 108.399 842.884 106.677C847.364 109.981 849.344 115.742 852.674 120.123C853.454 120.98 854.504 123.669 855.694 121.826C855.244 119.831 854.014 118.18 852.994 116.467C845.424 103.283 837.774 90.1387 830.494 76.7931C828.694 73.7009 826.524 68.7051 822.114 70.1455C822.484 72.5829 823.214 74.9599 823.404 77.4377C821.824 75.3729 820.444 73.147 818.614 71.2937C818.984 74.9499 820.854 78.1931 821.524 81.7687C819.074 79.3212 817.824 75.9269 815.784 73.147C815.194 73.2074 814.614 73.2678 814.024 73.3182C815.954 76.3801 817.984 80.0766 817.254 83.8738C815.514 80.2277 813.814 76.4204 810.844 73.5901C811.114 78.8277 815.624 82.7054 815.654 88.0034C812.524 84.1458 810.674 79.2809 807.474 75.393C807.164 77.2262 808.274 78.8377 808.974 80.4392C810.384 84.0752 812.374 87.4696 813.364 91.2668C809.184 87.7617 808.444 81.5673 804.004 78.4449C805.474 81.4162 806.504 84.5789 807.934 87.5804C808.994 89.8869 810.164 92.2538 810.104 94.8726C806.194 88.2149 800.944 82.0709 798.824 74.5369C801.224 71.334 804.184 68.6246 806.684 65.5123C809.504 62.3899 812.034 58.6834 816.014 56.9912C820.524 55.4804 825.264 54.8459 829.834 53.5768C831.124 53.1336 832.444 52.8113 833.774 52.5091Z" fill="#0B0B0B"/>
<path d="M751.694 70.0145C757.154 69.2793 762.514 71.0318 767.974 70.9009C772.434 71.2232 776.844 72.0088 781.294 72.3815C781.434 74.4664 781.044 76.5111 780.064 78.3643C775.304 77.1154 770.574 75.7355 765.824 74.4362C761.064 73.157 756.254 71.9081 751.694 70.0145Z" fill="#0B0B0B"/>
<path d="M898.634 74.4563C906.764 73.3383 914.574 70.1052 922.814 69.9843C915.864 73.6909 908.154 75.6751 900.904 78.6967C897.804 79.8651 894.774 81.4464 891.404 81.5774C890.764 79.8248 890.204 78.032 889.974 76.1787C890.694 76.078 892.144 75.8765 892.874 75.7758C894.774 75.252 896.714 74.9096 898.634 74.4563Z" fill="#0B0B0B"/>
<path d="M820.774 93.7747C823.324 91.2768 827.224 93.0092 829.624 94.8424C832.364 97.018 832.124 100.765 831.984 103.917C830.604 107.745 826.864 109.648 824.084 112.297C800.394 131.656 777.014 151.408 753.394 170.847C751.914 172.549 749.604 171.874 747.654 172.045C744.324 172.237 740.564 173.325 738.904 176.517C736.774 179.338 738.454 183.8 735.314 185.945C731.294 189.339 727.324 192.865 722.934 195.765C709.514 195.997 695.604 199.119 684.704 207.368C683.834 206.966 682.954 206.563 682.084 206.16C720.034 175.853 757.784 145.274 795.634 114.846C804.214 108.047 812.194 100.584 820.774 93.7747Z" fill="#0B0B0B"/>
<path d="M891.474 91.2869C900.024 90.4106 908.644 91.3171 917.174 92.0927C919.784 92.4049 922.684 91.8107 925.024 93.3114C917.274 94.5301 909.424 94.8927 901.674 96.0812C898.174 96.5043 894.634 96.4741 891.124 96.3733C891.214 94.6711 891.334 92.979 891.474 91.2869Z" fill="#0B0B0B"/>
<path d="M889.414 105.912C896.584 106.254 903.024 109.93 909.914 111.623C911.144 112.076 912.394 112.519 913.614 113.013C914.604 113.355 915.604 113.708 916.594 114.06C917.404 114.231 919.014 114.574 919.824 114.745C917.014 116.769 913.324 115.379 910.364 114.382C910.204 114.674 909.874 115.259 909.704 115.551C909.624 115.279 909.444 114.715 909.354 114.433C905.514 113.959 901.594 113.637 897.854 112.61C895.824 112.398 893.784 112.217 891.824 111.673C891.084 111.602 889.604 111.451 888.864 111.381C888.994 109.558 889.184 107.735 889.414 105.912Z" fill="#0B0B0B"/>
<path d="M882.334 123.961C882.164 121.936 883.264 118.774 885.854 119.529C893.224 124.273 900.374 129.37 907.864 133.942C909.214 134.758 910.444 135.766 911.604 136.843C909.244 136.602 906.984 135.856 904.864 134.809C899.134 132.25 893.434 129.642 887.664 127.184C885.894 126.116 883.544 125.754 882.334 123.961Z" fill="#0B0B0B"/>
<path d="M871.984 135.977C872.274 133.57 873.894 131.455 876.304 130.961C881.174 136.279 886.134 141.497 890.724 147.056C893.034 149.997 896.654 152.032 897.744 155.819C888.814 149.655 881.204 141.698 871.984 135.977Z" fill="#0B0B0B"/>
<path d="M860.034 141.849C861.504 141.114 863.004 140.409 864.564 139.855C867.894 146.654 871.524 153.301 874.944 160.06C876.334 163.071 878.374 165.76 879.354 168.963C877.934 168.319 876.704 167.362 875.864 166.042C871.114 159.717 867.034 152.888 861.804 146.936C860.444 145.566 859.564 143.803 860.034 141.849Z" fill="#0B0B0B"/>
<path d="M816.164 145.233C817.994 145.264 819.834 145.314 821.664 145.395C820.264 152.808 817.444 159.858 815.584 167.16C814.524 170.625 814.024 174.292 812.324 177.525C811.844 169.638 814.164 161.923 814.554 154.077C815.254 151.156 815.574 148.164 816.164 145.233Z" fill="#0B0B0B"/>
<path d="M845.914 146.613C847.544 146.241 849.184 145.878 850.834 145.546C851.424 148.124 852.064 150.682 852.574 153.281C854.104 160.966 856.434 168.51 857.594 176.266C857.384 176.638 856.954 177.374 856.734 177.746C853.314 169.225 850.414 160.503 846.784 152.062C845.934 150.38 845.964 148.456 845.914 146.613Z" fill="#0B0B0B"/>
<path d="M830.964 147.56C832.774 147.62 834.584 147.701 836.404 147.812C836.224 157.3 836.134 166.798 836.044 176.286C835.404 177.132 834.794 177.978 834.174 178.834C832.964 168.43 830.794 158.085 830.964 147.56Z" fill="#0B0B0B"/>
<path d="M748.994 68.1918C755.364 68.7256 761.734 69.4807 767.974 70.9009C762.514 71.0318 757.154 69.2793 751.694 70.0145C750.984 69.9642 750.294 69.8739 749.604 69.7631C749.454 69.3703 749.144 68.5846 748.994 68.1918Z" fill="#0B0B0B"/>
<path d="M741.926 183.407C741.746 180.788 742.636 177.343 745.716 177.011C749.726 176.578 753.816 177.424 757.596 178.753C760.406 179.751 763.196 182.047 763.286 185.27C764.076 192.512 759.746 198.767 756.816 204.991C773.356 205.636 789.676 202.504 806.146 201.708C796.956 205.787 790.956 214.228 785.396 222.255C782.586 226.405 778.896 229.799 775.176 233.103C772.506 235.278 771.336 238.653 768.996 241.13C763.186 241.019 757.466 242.349 751.656 242.127C736.576 242.087 721.206 247.597 706.356 242.712C702.596 241.594 699.076 239.831 695.766 237.736C697.566 232.881 697.426 227.593 696.896 222.517C695.906 217.582 692.656 213.402 688.796 210.35C693.586 206.321 699.666 204.286 705.646 202.846C717.296 199.814 729.456 199.704 741.406 200.257C741.396 194.627 742.076 189.027 741.926 183.407Z" fill="#0B0B0B"/>
<path d="M816.626 201.668C827.296 197.719 839.456 199.442 849.386 204.699C857.716 209.866 859.916 220.563 859.446 229.749C860.416 239.287 854.196 247.667 847.746 253.942C838.946 260.942 829.816 267.57 820.126 273.271C813.096 276.937 807.656 282.859 801.516 287.764C796.776 291.592 792.046 296.386 785.596 296.749C770.876 300.203 755.436 298.532 741.086 294.211C725.896 288.61 710.676 283.081 695.636 277.078C686.436 272.928 676.866 269.483 668.216 264.185C666.066 262.846 664.466 260.549 664.296 257.981C663.666 252.461 665.166 246.277 669.596 242.651C674.516 238.27 681.696 237.907 687.796 239.599C692.586 240.506 696.346 243.86 700.766 245.703C711.616 250.87 724.026 249.692 735.566 248.312C747.936 246.64 760.446 246.821 772.826 245.371C772.996 244.686 773.326 243.306 773.496 242.621C774.086 242.48 775.266 242.208 775.856 242.077C775.176 237.968 779.086 235.973 781.626 233.657C786.616 229.165 790.326 223.474 794.166 217.995C799.516 210.148 807.936 205.001 816.626 201.668Z" fill="#0B0B0B"/>
<path d="M647.186 215.043C651.876 210.38 657.566 205.284 664.636 205.878C671.876 206.543 679.016 209.01 684.996 213.19C688.866 216.151 692.586 220.422 692.586 225.589C692.646 228.943 692.956 232.509 691.316 235.581C686.336 234.06 681.056 233.687 675.916 234.422C672.246 235.137 669.076 237.212 665.986 239.227C661.896 236.668 657.576 234.442 652.806 233.536C646.586 233.012 639.456 231.582 634.016 235.5C634.066 235.983 634.186 236.95 634.246 237.424C635.946 236.296 637.706 235.258 639.506 234.311C647.856 234.231 656.216 236.588 663.236 241.161C664.006 242.289 662.656 243.366 662.346 244.414C658.826 250.548 658.506 258.203 661.496 264.619C651.326 262.191 643.366 254.748 633.616 251.303C629.586 250.004 626.096 253.036 622.186 253.338C623.106 251.082 623.876 248.594 625.796 246.972C628.006 245.089 630.676 243.759 632.526 241.463C631.876 241.342 630.566 241.1 629.916 240.979C630.876 237.676 631.076 234.221 632.026 230.937C635.526 224.31 642.256 220.442 647.186 215.043Z" fill="#0B0B0B"/>
<path d="M849.526 258.636C852.686 256.098 855.276 252.935 857.626 249.641C851.906 281.056 842.846 311.807 838.816 343.534C838.056 346.465 838.386 349.557 837.546 352.478C836.276 383.41 834.186 414.321 831.276 445.142C829.566 466.364 826.736 487.495 823.276 508.506C821.706 517.973 820.226 527.461 819.166 537C818.306 542.207 817.796 548.099 813.736 551.937C809.346 555.895 803.956 558.474 798.886 561.395C789.106 566.562 779.656 572.323 769.876 577.48C758.366 583.17 745.876 588.569 732.786 587.814C738.586 580.441 744.316 572.816 751.776 567.045C753.436 565.726 755.046 564.305 756.136 562.452C756.026 558.302 756.076 554.143 755.506 550.033C754.706 529.224 756.386 508.314 754.596 487.566C753.636 468.368 751.716 449.181 752.476 429.923C745.916 441.264 741.756 453.804 737.466 466.142C730.786 485.823 724.706 505.706 718.496 525.548C714.886 537.604 711.746 550.748 702.506 559.864C694.176 567.629 682.646 570.429 671.656 571.608C664.036 572.131 656.376 572.041 648.746 571.769C654.616 564.658 663.266 561.102 671.596 557.859C674.596 556.822 677.476 555.502 680.386 554.253C680.226 534.049 680.116 513.834 679.946 493.639C679.106 484.917 679.566 476.144 679.376 467.391C679.116 446.572 679.356 425.733 678.506 404.944C678.386 377.709 678.146 350.474 677.566 323.249C672.596 325.686 668.156 329.07 663.556 332.142C659.156 335.375 654.316 338.639 648.666 338.85C644.056 338.961 639.266 338.951 634.866 337.37C631.196 335.748 630.676 331.336 629.016 328.134C625.656 321.667 621.186 315.594 619.556 308.362C618.456 303.296 616.736 298.35 616.076 293.203C615.566 290.494 617.356 288.187 618.906 286.203C622.036 282.406 625.296 278.72 628.496 274.993C623.696 277.239 620.006 281.157 615.896 284.41C609.636 289.477 603.636 294.875 597.246 299.78C595.076 301.563 592.136 302.47 589.406 301.493C587.296 300.143 585.526 298.189 584.226 296.044C583.696 293.858 584.136 291.531 585.166 289.567C587.726 284.38 592.106 280.462 596.216 276.544C602.586 270.511 609.496 265.092 616.226 259.482C619.036 256.571 623.386 258.162 626.926 257.256C628.906 256.027 631.336 254.879 633.586 256.188C641.946 259.935 649.236 265.888 658.116 268.516C657.006 278.115 661.936 286.858 662.846 296.255C663.636 300.264 662.236 304.504 663.736 308.372C665.836 303.981 666.396 298.904 665.446 294.13C665.026 285.659 660.946 277.682 661.726 269.121C663.036 268.788 664.346 268.456 665.666 268.134C683.876 278.548 703.916 285.065 723.336 292.77C732.096 295.611 740.526 299.68 749.676 301.15C763.546 304.182 778.036 303.648 791.796 300.264C801.746 295.359 808.976 286.556 817.896 280.16C828.836 273.613 839.426 266.442 849.526 258.636Z" fill="#0B0B0B"/>
<defs>
<linearGradient id="paint0_linear_0_1" x1="460.972" y1="493.158" x2="340.091" y2="520.709" gradientUnits="userSpaceOnUse">
<stop stop-color="white"/>
<stop offset="0.92113" stop-color="white" stop-opacity="0.0788696"/>
<stop offset="1" stop-opacity="0"/>
</linearGradient>
<linearGradient id="paint1_linear_0_1" x1="162.972" y1="422.158" x2="42.0911" y2="449.709" gradientUnits="userSpaceOnUse">
<stop stop-color="white"/>
<stop offset="0.92113" stop-color="white" stop-opacity="0.0788696"/>
<stop offset="1" stop-opacity="0"/>
</linearGradient>
</defs>
</svg>
