<svg width="319" height="256" viewBox="0 0 319 256" fill="none" xmlns="http://www.w3.org/2000/svg">
<path d="M113.419 210.229V223.339C113.419 228.296 99.2605 232.319 81.7893 232.319C64.3169 232.319 50.1465 228.296 50.1465 223.339V210.229H113.419Z" fill="white"/>
<path d="M81.7904 232.919C65.9442 232.919 49.502 229.327 49.502 223.34V210.23C49.502 210.071 49.5643 209.919 49.6764 209.806C49.7885 209.694 49.9413 209.631 50.0992 209.631H113.373C113.531 209.631 113.684 209.694 113.796 209.806C113.908 209.919 113.971 210.071 113.971 210.23V223.34C114.019 229.327 97.6354 232.919 81.7904 232.919ZM50.6977 210.828V223.34C50.6977 227.386 63.1707 231.721 81.7904 231.721C100.41 231.721 112.823 227.386 112.823 223.34V210.828H50.6977Z" fill="#D8A041"/>
<path d="M81.7896 219.21C99.2595 219.21 113.421 215.189 113.421 210.23C113.421 205.27 99.2595 201.25 81.7896 201.25C64.321 201.25 50.1582 205.27 50.1582 210.23C50.1582 215.189 64.321 219.21 81.7896 219.21Z" fill="#D8A041"/>
<path d="M81.7879 219.735C63.754 219.735 49.6191 215.557 49.6191 210.229C49.6191 204.902 63.754 200.711 81.7879 200.711C99.8219 200.711 113.945 204.89 113.945 210.229C113.945 215.569 99.8219 219.735 81.7879 219.735ZM81.7879 201.777C63.1809 201.777 50.6952 206.146 50.6952 210.229C50.6952 214.313 63.2038 218.682 81.7879 218.682C100.372 218.682 112.881 214.313 112.881 210.229C112.881 206.146 100.396 201.777 81.7879 201.777Z" fill="#D8A041"/>
<path d="M103.23 194.686V207.796C103.23 212.753 89.0595 216.776 71.5871 216.776C54.116 216.776 39.957 212.753 39.957 207.796V194.686H103.23Z" fill="white"/>
<path d="M71.5873 217.374C55.7423 217.374 39.2988 213.782 39.2988 207.795V194.685C39.2988 194.526 39.3612 194.374 39.4746 194.261C39.5866 194.15 39.7382 194.086 39.8973 194.086H103.17C103.329 194.086 103.481 194.15 103.593 194.261C103.705 194.374 103.769 194.526 103.769 194.685V207.795C103.829 213.793 87.4323 217.374 71.5873 217.374ZM40.4945 195.283V207.795C40.4945 211.842 52.9676 216.176 71.5873 216.176C90.207 216.176 102.68 211.842 102.68 207.795V195.283H40.4945Z" fill="#D8A041"/>
<path d="M71.5871 203.666C89.057 203.666 103.219 199.645 103.219 194.686C103.219 189.728 89.057 185.707 71.5871 185.707C54.1186 185.707 39.957 189.728 39.957 194.686C39.957 199.645 54.1186 203.666 71.5871 203.666Z" fill="#D8A041"/>
<path d="M71.587 204.204C53.553 204.204 39.4297 200.026 39.4297 194.685C39.4297 189.346 53.553 185.18 71.587 185.18C89.621 185.18 103.757 189.358 103.757 194.685C103.757 200.013 89.621 204.204 71.587 204.204ZM71.587 186.245C52.98 186.245 40.4943 190.615 40.4943 194.698C40.4943 198.78 52.9915 203.151 71.587 203.151C90.1838 203.151 102.68 198.78 102.68 194.698C102.68 190.615 90.1953 186.232 71.587 186.232V186.245Z" fill="#D8A041"/>
<path d="M110.165 179.15V192.319C110.165 197.288 96.0056 201.311 78.5332 201.311C61.0621 201.311 46.8789 197.229 46.8789 192.259V179.09L110.165 179.15Z" fill="white"/>
<path d="M78.5255 201.839C62.692 201.839 46.2969 198.247 46.2969 192.26V179.091C46.2969 178.932 46.3605 178.78 46.4726 178.667C46.5847 178.555 46.7362 178.492 46.8954 178.492H110.168C110.328 178.492 110.479 178.555 110.591 178.667C110.703 178.78 110.767 178.932 110.767 179.091V192.26C110.767 198.26 94.3717 201.839 78.5255 201.839ZM47.4926 179.749V192.26C47.4926 196.308 59.9656 200.641 78.5255 200.641C97.0854 200.641 109.618 196.308 109.618 192.26V179.749H47.4926Z" fill="#D8A041"/>
<path d="M78.5357 188.125C96.0043 188.125 110.167 184.105 110.167 179.146C110.167 174.186 96.0043 170.166 78.5357 170.166C61.0658 170.166 46.9043 174.186 46.9043 179.146C46.9043 184.105 61.0658 188.125 78.5357 188.125Z" fill="#D8A041"/>
<path d="M78.5245 188.665C60.4905 188.665 46.3672 184.486 46.3672 179.086C46.3672 173.687 60.4905 169.58 78.5245 169.58C96.5584 169.58 110.693 173.759 110.693 179.086C110.693 184.414 96.5699 188.665 78.5245 188.665ZM78.5245 170.706C59.9162 170.706 47.4318 175.075 47.4318 179.158C47.4318 183.241 59.9289 187.623 78.5245 187.623C97.12 187.623 109.617 183.253 109.617 179.158C109.617 175.064 97.1086 170.693 78.5245 170.693V170.706Z" fill="#D8A041"/>
<path d="M63.8678 219.2V232.37C63.8678 237.339 49.7088 241.362 32.2364 241.362C14.7652 241.362 0.582031 237.28 0.582031 232.31V219.141L63.8678 219.2Z" fill="white"/>
<path d="M32.2286 241.89C16.3951 241.89 0 238.298 0 232.311V219.142C0 218.983 0.0636709 218.831 0.175731 218.718C0.28779 218.606 0.439326 218.543 0.598502 218.543H63.8715C64.0306 218.543 64.1822 218.606 64.2942 218.718C64.4063 218.831 64.47 218.983 64.47 219.142V232.311C64.47 238.31 48.0749 241.89 32.2286 241.89ZM1.19572 219.8V232.311C1.19572 236.358 13.6687 240.692 32.2286 240.692C50.7885 240.692 63.3214 236.358 63.3214 232.311V219.8H1.19572Z" fill="#D8A041"/>
<path d="M32.2388 228.175C49.7074 228.175 63.8702 224.156 63.8702 219.196C63.8702 214.237 49.7074 210.217 32.2388 210.217C14.769 210.217 0.607422 214.237 0.607422 219.196C0.607422 224.156 14.769 228.175 32.2388 228.175Z" fill="#D8A041"/>
<path d="M32.2276 228.716C14.1936 228.716 0.0703125 224.537 0.0703125 219.137C0.0703125 213.737 14.1936 209.631 32.2276 209.631C50.2616 209.631 64.3964 213.809 64.3964 219.137C64.3964 224.465 50.273 228.716 32.2276 228.716ZM32.2276 210.756C13.6193 210.756 1.13488 215.126 1.13488 219.209C1.13488 223.292 13.6321 227.673 32.2276 227.673C50.8231 227.673 63.3204 223.304 63.3204 219.209C63.3204 215.114 50.8117 210.744 32.2276 210.744V210.756Z" fill="#D8A041"/>
<path d="M317.425 217.945V231.056C317.425 236.013 303.266 240.036 285.795 240.036C268.323 240.036 254.152 236.013 254.152 231.056V217.945H317.425Z" fill="white"/>
<path d="M285.796 240.635C269.95 240.635 253.508 237.043 253.508 231.057V217.946C253.508 217.788 253.57 217.635 253.682 217.523C253.794 217.41 253.947 217.348 254.105 217.348H317.379C317.537 217.348 317.69 217.41 317.802 217.523C317.914 217.635 317.977 217.788 317.977 217.946V231.057C318.025 237.043 301.641 240.635 285.796 240.635ZM254.704 218.545V231.057C254.704 235.103 267.177 239.438 285.796 239.438C304.416 239.438 316.829 235.103 316.829 231.057V218.545H254.704Z" fill="#D8A041"/>
<path d="M285.795 226.927C303.265 226.927 317.427 222.906 317.427 217.947C317.427 212.987 303.265 208.967 285.795 208.967C268.327 208.967 254.164 212.987 254.164 217.947C254.164 222.906 268.327 226.927 285.795 226.927Z" fill="#D8A041"/>
<path d="M285.794 227.452C267.76 227.452 253.625 223.274 253.625 217.946C253.625 212.618 267.76 208.428 285.794 208.428C303.828 208.428 317.951 212.607 317.951 217.946C317.951 223.286 303.828 227.452 285.794 227.452ZM285.794 209.493C267.187 209.493 254.701 213.863 254.701 217.946C254.701 222.029 267.21 226.399 285.794 226.399C304.378 226.399 316.887 222.029 316.887 217.946C316.887 213.863 304.402 209.493 285.794 209.493Z" fill="#D8A041"/>
<path d="M307.236 202.408V215.519C307.236 220.475 293.065 224.499 275.593 224.499C258.122 224.499 243.963 220.475 243.963 215.519V202.408H307.236Z" fill="white"/>
<path d="M275.593 225.096C259.748 225.096 243.305 221.504 243.305 215.518V202.407C243.305 202.249 243.367 202.096 243.48 201.984C243.592 201.873 243.744 201.809 243.903 201.809H307.176C307.335 201.809 307.487 201.873 307.599 201.984C307.711 202.096 307.775 202.249 307.775 202.407V215.518C307.835 221.516 291.438 225.096 275.593 225.096ZM244.5 203.006V215.518C244.5 219.565 256.973 223.899 275.593 223.899C294.213 223.899 306.686 219.565 306.686 215.518V203.006H244.5Z" fill="#D8A041"/>
<path d="M275.593 211.388C293.063 211.388 307.224 207.368 307.224 202.408C307.224 197.45 293.063 193.43 275.593 193.43C258.124 193.43 243.963 197.45 243.963 202.408C243.963 207.368 258.124 211.388 275.593 211.388Z" fill="#D8A041"/>
<path d="M275.593 211.926C257.559 211.926 243.436 207.749 243.436 202.408C243.436 197.069 257.559 192.902 275.593 192.902C293.627 192.902 307.763 197.08 307.763 202.408C307.763 207.736 293.627 211.926 275.593 211.926ZM275.593 193.968C256.986 193.968 244.5 198.338 244.5 202.421C244.5 206.503 256.997 210.874 275.593 210.874C294.19 210.874 306.686 206.503 306.686 202.421C306.686 198.338 294.201 193.955 275.593 193.955V193.968Z" fill="#D8A041"/>
<path d="M314.172 186.87V200.04C314.172 205.008 300.013 209.031 282.541 209.031C265.07 209.031 250.887 204.95 250.887 199.98V186.811L314.172 186.87Z" fill="white"/>
<path d="M282.533 209.56C266.7 209.56 250.305 205.968 250.305 199.981V186.812C250.305 186.653 250.368 186.5 250.48 186.388C250.592 186.276 250.744 186.213 250.903 186.213H314.176C314.335 186.213 314.487 186.276 314.599 186.388C314.711 186.5 314.775 186.653 314.775 186.812V199.981C314.775 205.98 298.38 209.56 282.533 209.56ZM251.5 187.47V199.981C251.5 204.028 263.973 208.362 282.533 208.362C301.093 208.362 313.626 204.028 313.626 199.981V187.47H251.5Z" fill="#D8A041"/>
<path d="M282.544 195.845C300.012 195.845 314.175 191.826 314.175 186.866C314.175 181.907 300.012 177.887 282.544 177.887C265.074 177.887 250.912 181.907 250.912 186.866C250.912 191.826 265.074 195.845 282.544 195.845Z" fill="#D8A041"/>
<path d="M282.532 196.386C264.498 196.386 250.375 192.207 250.375 186.807C250.375 181.407 264.498 177.301 282.532 177.301C300.566 177.301 314.701 181.479 314.701 186.807C314.701 192.135 300.578 196.386 282.532 196.386ZM282.532 178.426C263.924 178.426 251.44 182.796 251.44 186.879C251.44 190.962 263.937 195.343 282.532 195.343C301.128 195.343 313.625 190.974 313.625 186.879C313.625 182.784 301.116 178.414 282.532 178.414V178.426Z" fill="#D8A041"/>
<path d="M315.284 169.285V182.383C315.284 187.352 301.125 191.375 283.653 191.375C266.181 191.375 252.01 187.352 252.01 182.383V169.285H315.284Z" fill="white"/>
<path d="M283.654 191.971C267.809 191.971 251.365 188.379 251.365 182.392V169.282C251.365 169.123 251.428 168.971 251.54 168.859C251.652 168.747 251.805 168.684 251.962 168.684H315.237C315.396 168.684 315.547 168.747 315.66 168.859C315.772 168.971 315.835 169.123 315.835 169.282V182.38C315.882 188.379 299.487 191.971 283.654 191.971ZM252.561 169.881V182.38C252.561 186.439 265.034 190.761 283.654 190.761C302.273 190.761 314.746 186.427 314.746 182.38V169.881H252.561Z" fill="#D8A041"/>
<path d="M283.655 178.262C301.123 178.262 315.286 174.242 315.286 169.282C315.286 164.323 301.123 160.303 283.655 160.303C266.185 160.303 252.023 164.323 252.023 169.282C252.023 174.242 266.185 178.262 283.655 178.262Z" fill="#D8A041"/>
<path d="M283.651 178.788C265.606 178.788 251.482 174.61 251.482 169.282C251.482 163.954 265.606 159.764 283.651 159.764C301.697 159.764 315.808 163.942 315.808 169.282C315.808 174.622 301.685 178.788 283.651 178.788ZM283.651 160.829C265.031 160.829 252.558 165.211 252.558 169.294C252.558 173.377 265.056 177.747 283.651 177.747C302.247 177.747 314.744 173.377 314.744 169.294C314.744 165.211 302.307 160.817 283.651 160.817V160.829Z" fill="#D8A041"/>
<path d="M309.082 152.121V165.219C309.082 170.188 294.911 174.211 277.439 174.211C259.968 174.211 245.809 170.188 245.809 165.219V152.121H309.082Z" fill="white"/>
<path d="M277.438 174.806C261.593 174.806 245.209 171.215 245.209 165.228V152.118C245.209 151.959 245.271 151.807 245.383 151.695C245.496 151.583 245.648 151.52 245.806 151.52H309.08C309.24 151.52 309.391 151.583 309.503 151.695C309.615 151.807 309.679 151.959 309.679 152.118V165.216C309.679 171.215 293.283 174.806 277.438 174.806ZM246.405 152.717V165.216C246.405 169.275 258.878 173.597 277.438 173.597C295.997 173.597 308.53 169.263 308.53 165.216V152.717H246.405Z" fill="#D8A041"/>
<path d="M277.439 161.1C294.909 161.1 309.07 157.079 309.07 152.12C309.07 147.161 294.909 143.141 277.439 143.141C259.97 143.141 245.809 147.161 245.809 152.12C245.809 157.079 259.97 161.1 277.439 161.1Z" fill="#D8A041"/>
<path d="M277.437 161.625C259.405 161.625 245.281 157.447 245.281 152.119C245.281 146.791 259.405 142.541 277.437 142.541C295.471 142.541 309.607 146.719 309.607 152.119C309.607 157.519 295.471 161.625 277.437 161.625ZM277.437 143.666C258.83 143.666 246.345 148.048 246.345 152.131C246.345 156.214 258.842 160.584 277.437 160.584C296.034 160.584 308.53 156.214 308.53 152.131C308.53 148.048 296.046 143.654 277.437 143.654V143.666Z" fill="#D8A041"/>
<path d="M317.425 134.523V147.574C317.425 152.542 303.266 156.565 285.795 156.565C268.323 156.565 254.152 152.542 254.152 147.574V134.523H317.425Z" fill="white"/>
<path d="M285.796 157.211C269.95 157.211 253.508 153.619 253.508 147.633V134.522C253.508 134.364 253.57 134.211 253.682 134.099C253.794 133.987 253.947 133.924 254.105 133.924H317.379C317.537 133.924 317.69 133.987 317.802 134.099C317.914 134.211 317.977 134.364 317.977 134.522V147.573C318.025 153.619 301.641 157.211 285.796 157.211ZM254.704 135.121V147.573C254.704 151.631 267.177 155.954 285.796 155.954C304.416 155.954 316.829 151.619 316.829 147.573V135.121H254.704Z" fill="#D8A041"/>
<path d="M285.795 143.504C303.265 143.504 317.427 139.484 317.427 134.524C317.427 129.565 303.265 125.545 285.795 125.545C268.327 125.545 254.164 129.565 254.164 134.524C254.164 139.484 268.327 143.504 285.795 143.504Z" fill="#D8A041"/>
<path d="M285.796 144.102C269.95 144.102 253.508 140.51 253.508 134.524C253.508 128.537 269.903 124.945 285.796 124.945C301.69 124.945 318.025 128.537 318.025 134.524C318.025 140.51 301.641 144.102 285.796 144.102ZM285.796 126.143C267.224 126.143 254.704 130.489 254.704 134.524C254.704 138.558 267.177 142.904 285.796 142.904C304.416 142.904 316.829 138.57 316.829 134.524C316.829 130.477 304.356 126.131 285.796 126.131V126.143Z" fill="#D8A041"/>
<path d="M267.263 192.264C268.303 194.505 268.008 198.79 266.221 200.324C265.816 200.688 265.328 200.946 264.8 201.075C264.271 201.204 263.719 201.2 263.192 201.065C262.666 200.928 262.181 200.663 261.781 200.295C261.381 199.925 261.078 199.462 260.901 198.948C259.192 193.326 257.699 187.664 256.129 182.002C256.011 181.57 256.129 181.02 255.834 180.686C255.162 179.644 254.892 178.391 255.076 177.163C255.261 175.936 255.886 174.82 256.836 174.021C260.115 176.479 260.468 181.885 266.359 181.61C266.359 183.576 266.241 185.305 266.359 187.074C266.364 188.843 266.669 190.599 267.263 192.264Z" fill="#D1D3D4"/>
<path d="M198.202 135.196C197.358 134.861 196.238 133.23 196.415 132.64C197.239 130.767 198.239 128.978 199.4 127.293L200.303 127.686C200.303 129.495 200.303 131.303 200.303 133.092C200.303 134.881 199.89 135.824 198.202 135.196Z" fill="#D1D3D4"/>
<path d="M217.877 87.5248C216.252 88.0069 214.599 88.3943 212.93 88.6846C191.154 92.6162 166.786 91.7315 149.37 78.0496L151.922 68.476L144.5 75.0025L134.486 66.0778C151.569 52.4939 153.788 31.0469 165 13.7477C174.13 -0.347182 194.727 -1.38907 209.002 4.64599C218.957 8.90779 226.928 16.7896 231.308 26.7025C236.138 37.829 235.981 50.4495 234.999 62.5393C233.88 76.123 229.738 83.8684 217.877 87.5248Z" fill="white"/>
<path d="M191.313 91.6534C176.842 91.6534 161.29 88.5868 148.783 78.738C148.631 78.6208 148.516 78.4616 148.453 78.2799C148.39 78.0982 148.382 77.9021 148.429 77.7157L150.157 71.2679L145.15 75.7303C144.973 75.892 144.742 75.9815 144.502 75.9815C144.263 75.9815 144.031 75.892 143.854 75.7303L133.84 66.8252C133.731 66.7306 133.644 66.6127 133.586 66.4799C133.528 66.3473 133.501 66.2032 133.507 66.0584C133.506 65.9134 133.539 65.7701 133.604 65.6404C133.669 65.5106 133.763 65.3979 133.88 65.3115C144.424 56.9175 149.117 45.6533 154.104 33.7404C156.843 26.6123 160.214 19.7438 164.177 13.2174C171.226 2.32672 189.467 -4.71089 209.338 3.74212C219.542 8.11378 227.699 16.2111 232.155 26.3883C237.122 37.8294 236.906 50.6072 235.924 62.697C234.707 77.7354 229.72 84.9696 218.135 88.4688C216.469 88.9551 214.778 89.3488 213.069 89.6482C205.891 90.9665 198.61 91.6375 191.313 91.6534ZM150.491 77.6961C169.125 91.9482 194.592 91.044 212.754 87.7415C214.391 87.4483 216.009 87.0676 217.605 86.6012C228.267 83.3773 232.861 76.6345 234 62.5593C234.963 50.7644 235.198 38.2422 230.406 27.1746C226.147 17.4579 218.355 9.72714 208.612 5.55067C194.297 -0.504041 174.368 1.08828 165.826 14.2788C161.934 20.6964 158.616 27.4458 155.91 34.4482C151.198 45.7515 146.309 57.4285 136 66.0781L144.502 73.6466L151.277 67.7491C151.434 67.6015 151.636 67.5101 151.851 67.489C152.066 67.468 152.282 67.5184 152.465 67.6326C152.649 67.7467 152.789 67.9182 152.865 68.1206C152.942 68.3229 152.949 68.5447 152.887 68.7516L150.491 77.6961Z" fill="#0B0B0B"/>
<path d="M129.321 229.281C126.552 229.281 105.935 231.522 96.2748 236.339C86.6142 241.155 84.4936 241.509 86.4571 247.996C88.4207 254.484 105.405 256.076 118.345 253.619C126.685 251.915 134.729 248.994 142.221 244.949L129.321 229.281Z" fill="white"/>
<path d="M106.369 255.601C96.7083 255.601 87.2244 253.536 85.634 248.248C83.6704 241.564 85.9481 240.385 93.7041 236.611L95.8836 235.529C105.701 230.635 126.358 228.295 129.264 228.394C129.394 228.394 129.523 228.422 129.642 228.475C129.76 228.529 129.866 228.609 129.951 228.708L142.871 244.435C142.952 244.536 143.009 244.653 143.04 244.779C143.07 244.904 143.073 245.035 143.048 245.163C143.028 245.29 142.979 245.412 142.904 245.518C142.829 245.624 142.73 245.711 142.616 245.771C135.046 249.871 126.915 252.833 118.484 254.558C114.486 255.277 110.431 255.626 106.369 255.601ZM128.91 230.182C124.983 230.301 105.721 232.639 96.6886 237.142L94.4895 238.223C86.7728 242.017 85.7714 242.508 87.3422 247.738C89.0898 253.517 105.367 255.168 118.229 252.751C126.112 251.12 133.732 248.4 140.868 244.67L128.91 230.182Z" fill="#0B0B0B"/>
<path d="M126.554 229.242C124.741 229.687 123.161 230.8 122.131 232.36C121.101 233.919 120.697 235.81 120.997 237.655C121.901 244.536 136.431 244.83 137.275 244.85C138.119 244.87 126.554 229.242 126.554 229.242Z" fill="white"/>
<path d="M234.293 244.987C234.725 245.203 238.671 250.354 255.891 252.418C273.111 254.482 279.454 258.178 283.381 249.115C287.309 240.053 284.578 234.215 276.096 231.619C267.614 229.025 244.209 226.882 239.615 231.207C235.019 235.531 234.293 244.987 234.293 244.987Z" fill="white"/>
<path d="M274.919 255.836C271.754 255.694 268.603 255.32 265.494 254.715C262.686 254.263 259.486 253.733 255.794 253.3C248.588 252.434 238.966 250.449 233.94 245.869L233.783 245.731C233.641 245.656 233.527 245.537 233.456 245.392C233.386 245.248 233.363 245.084 233.39 244.925C233.39 244.512 234.195 235.096 238.986 230.555C244.071 225.758 268.105 228.236 276.293 230.752C278.124 231.155 279.847 231.947 281.349 233.072C282.849 234.198 284.09 235.632 284.992 237.278C286.503 240.502 286.209 244.611 284.148 249.467C282.086 254.322 279.297 255.836 274.919 255.836ZM235.236 244.611C239.929 248.818 249.118 250.686 256.011 251.511C259.74 251.964 262.942 252.493 265.827 252.946C276.037 254.597 279.867 255.227 282.597 248.759C284.442 244.395 284.736 240.777 283.46 238.045C282.664 236.632 281.577 235.404 280.269 234.446C278.962 233.487 277.466 232.817 275.881 232.481C267.261 229.848 244.465 227.999 240.283 231.873C236.473 235.392 235.432 242.822 235.236 244.611Z" fill="#0B0B0B"/>
<path d="M228.795 241.29C228.795 241.29 236.649 247.816 241.813 247.05C246.977 246.283 254.241 243.453 251.335 237.791C248.43 232.13 229.737 228.787 229.737 228.787L228.795 241.29Z" fill="white"/>
<path d="M134.9 186.407C134.9 186.407 143.128 218.607 173.209 224.76C203.29 230.912 218.841 229.261 229.504 208.935C240.165 188.608 233.096 176.184 233.096 176.184L138.18 174.219L134.9 186.407Z" fill="white"/>
<path d="M198.045 228.884C189.616 228.645 181.231 227.578 173.01 225.699C142.673 219.508 134.014 186.973 133.936 186.658C133.896 186.491 133.896 186.315 133.936 186.148L137.235 174.038C137.288 173.825 137.413 173.637 137.588 173.504C137.763 173.373 137.978 173.303 138.197 173.311L233.114 175.276C233.286 175.277 233.454 175.323 233.601 175.41C233.749 175.496 233.873 175.619 233.958 175.768C234.252 176.299 241.145 188.92 230.364 209.482C222.825 223.773 212.733 228.884 198.045 228.884ZM135.899 186.404C136.744 189.352 145.717 218.112 173.403 223.753C202.286 229.651 217.916 228.884 228.636 208.459C237.729 191.101 233.566 179.582 232.564 177.124L139.021 175.296L135.899 186.404Z" fill="#0B0B0B"/>
<path d="M240.262 186.701C240.262 186.701 255.813 136.395 253.77 104.844C251.729 73.2928 231.171 70.9929 224.043 70.4032C216.916 69.8134 179.177 64.0142 165.019 80.6844C150.862 97.3546 125.965 175.417 125.965 175.417L240.262 186.701Z" fill="#D8A041"/>
<path d="M184.182 70.4806L186.636 87.3277C188.308 89.8576 190.843 91.6905 193.767 92.483C196.691 93.2755 199.804 92.9733 202.521 91.6328C213.125 87.2098 213.321 79.091 213.321 79.091L208.294 47.9918C200.362 39.9049 194.828 29.7714 192.311 18.7207C192.311 18.7207 182.945 35.0763 169.377 38.7525C169.869 46.1659 170.985 53.5247 172.715 60.7499C175.071 68.9474 183.907 70.3824 184.182 70.4806Z" fill="white"/>
<path d="M196.673 93.8548C194.496 93.8045 192.363 93.232 190.453 92.1852C188.543 91.1385 186.912 89.6482 185.697 87.8394C185.622 87.7274 185.575 87.5994 185.559 87.466L183.203 71.2873C180.567 70.7441 178.121 69.5122 176.114 67.7169C174.107 65.9216 172.61 63.6266 171.775 61.0651C170.017 53.7707 168.887 46.339 168.398 38.8514C168.386 38.6261 168.451 38.4037 168.584 38.2211C168.716 38.0386 168.907 37.9071 169.124 37.8488C182.143 34.33 191.371 18.4461 191.469 18.1907C191.567 18.0198 191.713 17.8823 191.89 17.7957C192.066 17.7091 192.265 17.6775 192.459 17.705C192.654 17.7326 192.836 17.8179 192.981 17.9501C193.127 18.0822 193.229 18.255 193.276 18.4461C195.747 29.2642 201.132 39.1975 208.847 47.1668C209.011 47.3251 209.121 47.5316 209.161 47.7565L214.188 78.8557C214.188 79.4061 213.873 87.8591 202.799 92.4591C200.871 93.3296 198.788 93.8042 196.673 93.8548ZM187.464 86.9746C189.03 89.2615 191.373 90.9009 194.057 91.588C196.74 92.275 199.582 91.9629 202.053 90.7095C211.87 86.601 212.244 79.1505 212.244 79.072L207.276 48.4641C199.941 40.845 194.693 31.4607 192.039 21.218C189.133 25.6411 181.22 36.2172 170.44 39.5198C170.929 46.6032 172.012 53.633 173.68 60.5343C175.427 66.5694 180.984 68.7318 184.126 69.4788C184.289 69.511 184.447 69.5639 184.597 69.636C184.724 69.7111 184.831 69.8137 184.913 69.9361C184.995 70.0587 185.048 70.198 185.068 70.3437L187.464 86.9746Z" fill="#0B0B0B"/>
<path d="M201.639 48.4611C201.774 46.8819 202.422 45.3905 203.484 44.2149C204.519 43.1714 205.72 42.3077 207.038 41.6594C207.725 41.2363 208.496 40.9681 209.296 40.873C209.863 40.8757 210.423 40.9892 210.946 41.2073C212.228 41.5978 213.328 42.4346 214.049 43.5663C214.503 44.55 214.719 45.6281 214.677 46.7115C214.739 47.8805 214.633 49.0522 214.362 50.1911C214.077 51.3271 213.569 52.395 212.867 53.3327C212.166 54.2705 211.285 55.0594 210.277 55.6538C209.269 56.2482 208.152 56.6361 206.993 56.7951C205.834 56.9541 204.655 56.881 203.524 56.58" fill="white"/>
<path d="M205.781 57.8624C204.933 57.8588 204.088 57.7465 203.268 57.5281C203.019 57.4592 202.807 57.2944 202.678 57.0699C202.549 56.8454 202.514 56.5792 202.581 56.329C202.61 56.2026 202.665 56.0837 202.742 55.9794C202.819 55.8753 202.917 55.7882 203.03 55.7236C203.142 55.6591 203.267 55.6184 203.395 55.6042C203.524 55.5899 203.655 55.6024 203.778 55.6409C205.813 56.152 207.965 55.8562 209.787 54.8154C211.584 53.7338 212.888 51.991 213.419 49.9598C213.654 48.902 213.753 47.8186 213.713 46.7359C213.755 45.8148 213.573 44.8977 213.184 44.0623C212.586 43.1224 211.675 42.4257 210.611 42.0965C210.208 41.923 209.774 41.8295 209.335 41.8212C208.685 41.9087 208.062 42.1368 207.509 42.4896C206.286 43.0875 205.172 43.8847 204.21 44.8487C203.299 45.8632 202.741 47.1461 202.62 48.505C202.59 48.7621 202.464 48.9985 202.268 49.1663C202.071 49.3341 201.818 49.421 201.56 49.4094C201.301 49.3843 201.062 49.2596 200.893 49.0616C200.725 48.8634 200.64 48.6074 200.656 48.3478C200.814 46.5561 201.552 44.8649 202.757 43.5315C203.858 42.395 205.147 41.4574 206.567 40.7597C207.382 40.2556 208.302 39.9462 209.257 39.8555C209.93 39.858 210.597 39.9916 211.22 40.2486C212.73 40.7152 214.022 41.7139 214.853 43.0597C215.384 44.1828 215.646 45.4147 215.618 46.6572C215.659 47.9122 215.539 49.1672 215.264 50.3922C214.731 52.5192 213.501 54.406 211.771 55.7526C210.042 57.0991 207.913 57.8279 205.722 57.823L205.781 57.8624Z" fill="#0B0B0B"/>
<path d="M186.461 43.6484C186.461 43.6484 181.709 53.0451 183.26 54.3819C184.812 55.7186 188.562 54.2442 188.562 54.2442" fill="white"/>
<path d="M185.224 55.9159C184.294 55.9697 183.375 55.6911 182.632 55.1296C180.845 53.5962 183.26 47.8167 185.577 43.2167C185.695 42.9852 185.899 42.8098 186.146 42.7287C186.392 42.6477 186.661 42.6677 186.892 42.7842C187.009 42.8405 187.113 42.9198 187.198 43.0172C187.283 43.1145 187.347 43.228 187.388 43.3509C187.428 43.4738 187.443 43.6037 187.432 43.7326C187.422 43.8615 187.385 43.9869 187.324 44.1013C185.165 48.3868 183.594 52.8688 183.967 53.7141C184.674 54.2843 186.873 53.8518 188.208 53.3406C188.45 53.2442 188.721 53.248 188.96 53.3512C189.199 53.4545 189.388 53.6486 189.484 53.891C189.581 54.1336 189.577 54.4044 189.474 54.644C189.371 54.8836 189.177 55.0724 188.935 55.1688C187.745 55.6149 186.492 55.867 185.224 55.9159Z" fill="#0B0B0B"/>
<path d="M193.944 43.4656C194.744 43.4003 195.318 42.4351 195.226 41.3098C195.135 40.1843 194.412 39.325 193.612 39.3902C192.812 39.4554 192.238 40.4207 192.33 41.546C192.421 42.6715 193.144 43.5308 193.944 43.4656Z" fill="#0B0B0B"/>
<path d="M178.956 45.5687C179.757 45.5091 180.338 44.5479 180.254 43.4219C180.17 42.2959 179.453 41.4316 178.653 41.4912C177.853 41.5509 177.272 42.5121 177.356 43.6381C177.439 44.764 178.156 45.6285 178.956 45.5687Z" fill="#0B0B0B"/>
<path d="M187.698 63.4243C184.879 63.3557 182.1 62.7484 179.51 61.6354C179.392 61.5805 179.286 61.5029 179.198 61.4067C179.11 61.3106 179.043 61.198 178.999 61.0755C178.955 60.9529 178.936 60.823 178.943 60.6929C178.949 60.5629 178.982 60.4356 179.038 60.3183C179.091 60.201 179.167 60.0954 179.261 60.0079C179.355 59.9203 179.466 59.8526 179.587 59.8086C179.708 59.7646 179.836 59.7453 179.964 59.7518C180.093 59.7583 180.219 59.7905 180.334 59.8466C180.334 59.8466 187.383 63.0115 192.292 60.4363C193.601 59.6518 194.706 58.5673 195.515 57.2719C196.324 55.9768 196.814 54.5077 196.946 52.9858C196.993 52.7252 197.141 52.4938 197.358 52.3426C197.575 52.1915 197.844 52.1329 198.104 52.1799C198.365 52.2268 198.596 52.3753 198.747 52.5928C198.898 52.8104 198.956 53.079 198.909 53.3397C198.727 55.1601 198.116 56.9113 197.126 58.4492C196.136 59.987 194.796 61.2678 193.215 62.1858C191.503 63.041 189.61 63.466 187.698 63.4243Z" fill="#0B0B0B"/>
<path d="M184.184 70.4817C184.184 70.4817 195.003 71.3859 200.658 66.9629C200.658 66.9629 195.886 82.08 185.853 82.0407L184.184 70.4817Z" fill="#0B0B0B"/>
<path d="M185.796 83.0237C185.556 83.0227 185.325 82.9375 185.142 82.7829C184.959 82.6284 184.836 82.4144 184.794 82.1783L183.106 70.6389C183.08 70.4913 183.09 70.3397 183.133 70.1962C183.176 70.0528 183.253 69.9214 183.356 69.8126C183.458 69.7038 183.585 69.6206 183.726 69.5695C183.867 69.5185 184.017 69.501 184.166 69.5185C184.264 69.5185 194.671 70.3244 199.874 66.1766C200.041 66.0506 200.245 65.9824 200.454 65.9824C200.663 65.9824 200.866 66.0506 201.033 66.1766C201.205 66.2958 201.336 66.4662 201.406 66.6637C201.476 66.8612 201.483 67.0759 201.426 67.2773C201.288 67.8672 196.399 83.0237 185.796 83.0237ZM185.226 71.5432L186.601 81.0184C192.825 80.4484 196.831 73.2929 198.598 69.2236C194.356 70.9402 189.798 71.731 185.226 71.5432Z" fill="#0B0B0B"/>
<path d="M244.032 78.5047C252.652 80.215 279.218 165.275 267.044 174.299C248.058 188.374 190.074 169.149 190.074 169.149L195.965 144.124C195.965 144.124 237.808 146.089 238.573 137.518C239.339 128.948 215.187 88.6089 218.564 82.7312C221.943 76.8534 244.032 78.5047 244.032 78.5047Z" fill="#D8A041"/>
<path d="M200.206 152.634C193.244 152.921 186.271 152.446 179.412 151.219C174.347 149.885 169.137 149.179 163.9 149.115C156.991 149.311 150.171 150.73 143.754 153.303C143.489 153.38 143.251 153.53 143.067 153.736C142.439 154.6 143.872 155.446 145.031 155.505C147.794 155.621 150.56 155.33 153.238 154.64C146.568 156.964 140.241 160.178 134.428 164.193C133.78 164.646 133.033 165.372 133.348 166.159C133.662 166.946 134.977 166.808 135.841 166.434L150.941 159.868C147.034 161.352 143.398 163.47 140.181 166.14C139.729 166.513 139.218 167.044 139.336 167.634C139.533 168.636 141.045 168.478 141.967 168.027C146.579 165.861 150.988 163.289 155.143 160.34L145.737 167.24C145.62 168.008 146.405 168.656 147.171 168.695C147.936 168.661 148.677 168.417 149.311 167.987L159.737 162.227L153.218 166.611C152.197 167.299 151.019 168.419 151.491 169.561C151.962 170.7 154.023 170.543 155.418 169.972C160.767 167.766 166.345 166.164 172.049 165.196C174.055 164.592 176.124 164.216 178.214 164.075C181.372 164.495 184.486 165.193 187.521 166.159L201.423 169.639" fill="white"/>
<path d="M153.16 171.25C152.738 171.258 152.318 171.184 151.923 171.033C151.641 170.917 151.385 170.746 151.169 170.529C150.954 170.314 150.783 170.057 150.666 169.776C150.472 169.255 150.472 168.683 150.666 168.163L149.802 168.635C149.021 169.153 148.109 169.439 147.171 169.461C146.819 169.438 146.474 169.342 146.16 169.18C145.846 169.017 145.569 168.792 145.345 168.517C145.11 168.215 144.961 167.856 144.913 167.476C144.089 167.908 143.244 168.301 142.42 168.694C141.969 168.939 141.47 169.084 140.959 169.117C140.447 169.152 139.934 169.074 139.455 168.891C139.215 168.772 139.006 168.596 138.846 168.382C138.685 168.167 138.578 167.917 138.532 167.652C138.472 167.339 138.489 167.017 138.581 166.712C138.674 166.408 138.839 166.13 139.062 165.902L136.254 167.122C135.419 167.512 134.474 167.595 133.584 167.357C133.357 167.274 133.15 167.143 132.978 166.973C132.805 166.804 132.67 166.6 132.582 166.375C132.15 165.372 132.582 164.272 133.976 163.367C137.867 160.694 141.987 158.372 146.288 156.428H144.913C144.369 156.411 143.837 156.261 143.365 155.99C142.892 155.719 142.493 155.336 142.204 154.875C142.074 154.612 142.019 154.318 142.047 154.026C142.075 153.735 142.183 153.456 142.361 153.223C142.646 152.885 143.02 152.633 143.441 152.495C149.951 149.86 156.881 148.416 163.901 148.23C168.534 148.242 173.15 148.815 177.645 149.941L179.609 150.353C186.411 151.558 193.323 152.032 200.226 151.769C200.457 151.769 200.679 151.86 200.844 152.021C201.009 152.182 201.104 152.402 201.11 152.633C201.112 152.752 201.091 152.87 201.048 152.981C201.005 153.091 200.941 153.192 200.859 153.278C200.777 153.365 200.679 153.433 200.57 153.482C200.461 153.529 200.345 153.554 200.226 153.557C193.197 153.835 186.159 153.347 179.236 152.103L177.272 151.71C172.894 150.603 168.397 150.035 163.881 150.019C157.078 150.208 150.364 151.606 144.049 154.147H143.873C144.185 154.383 144.562 154.52 144.953 154.541C147.598 154.655 150.246 154.371 152.807 153.695C153.03 153.639 153.267 153.672 153.468 153.785C153.668 153.899 153.818 154.084 153.887 154.304C153.955 154.529 153.935 154.771 153.828 154.979C153.722 155.189 153.539 155.349 153.317 155.425C146.758 157.7 140.536 160.855 134.821 164.802C134.212 165.214 134.055 165.549 134.055 165.608C134.055 165.667 134.683 165.707 135.371 165.411L147.034 160.339C148.173 159.789 149.331 159.278 150.509 158.826C150.731 158.747 150.975 158.756 151.19 158.852C151.405 158.946 151.576 159.12 151.668 159.336C151.753 159.556 151.749 159.799 151.657 160.017C151.566 160.233 151.393 160.406 151.177 160.497L147.8 161.972C145.239 163.242 142.834 164.805 140.633 166.63C140.122 167.063 140.103 167.26 140.103 167.26C140.574 167.325 141.054 167.243 141.477 167.023C146.03 164.871 150.386 162.326 154.495 159.416C154.688 159.276 154.929 159.217 155.164 159.255C155.399 159.292 155.611 159.42 155.752 159.613C155.887 159.807 155.941 160.046 155.905 160.28C155.868 160.515 155.743 160.726 155.556 160.87L146.877 167.455C146.995 167.571 147.146 167.646 147.309 167.672C147.911 167.627 148.488 167.416 148.978 167.063L159.404 161.303C159.606 161.193 159.843 161.163 160.065 161.222C160.288 161.281 160.48 161.421 160.602 161.617C160.727 161.815 160.768 162.055 160.716 162.284C160.665 162.513 160.525 162.711 160.327 162.836L153.808 167.22C153.003 167.77 152.198 168.557 152.414 169.186C152.438 169.251 152.478 169.31 152.529 169.358C152.58 169.406 152.642 169.441 152.709 169.461C153.531 169.617 154.381 169.493 155.124 169.107C160.532 166.862 166.177 165.239 171.951 164.272C172.619 164.153 173.286 163.976 173.915 163.8C175.331 163.353 176.809 163.134 178.293 163.151C180.57 163.362 182.811 163.849 184.969 164.605C185.951 164.88 186.933 165.176 187.816 165.392L201.718 168.891C201.832 168.919 201.94 168.969 202.034 169.038C202.128 169.107 202.208 169.195 202.268 169.295C202.329 169.396 202.368 169.507 202.385 169.624C202.402 169.74 202.396 169.858 202.366 169.972C202.341 170.088 202.293 170.197 202.224 170.293C202.155 170.389 202.068 170.469 201.966 170.531C201.865 170.591 201.753 170.63 201.636 170.646C201.519 170.661 201.4 170.653 201.286 170.62L187.385 167.141C186.442 166.905 185.421 166.61 184.459 166.316C182.431 165.617 180.329 165.155 178.195 164.939C176.862 164.934 175.537 165.14 174.268 165.549C173.561 165.726 172.874 165.902 172.147 166.041C166.51 166.99 160.997 168.572 155.713 170.758C154.897 171.072 154.033 171.238 153.16 171.25Z" fill="#0B0B0B"/>
<path d="M169.379 87.877C167.022 90.1769 160.464 126.918 158.01 144.277L169.379 87.877Z" fill="white"/>
<path d="M158.01 145.181H157.872C157.756 145.167 157.643 145.13 157.541 145.071C157.44 145.012 157.351 144.934 157.279 144.841C157.208 144.747 157.156 144.641 157.126 144.527C157.097 144.413 157.09 144.296 157.106 144.179C158.933 131.421 165.864 90.0599 168.75 87.1702C168.829 87.0687 168.929 86.9853 169.043 86.9256C169.157 86.8659 169.282 86.8312 169.41 86.8238C169.539 86.8164 169.667 86.8364 169.787 86.8827C169.907 86.929 170.016 87.0004 170.106 87.0921C170.196 87.1839 170.265 87.2937 170.31 87.4145C170.354 87.5353 170.372 87.6641 170.363 87.7924C170.354 87.9208 170.317 88.0456 170.256 88.1586C170.194 88.2717 170.109 88.3703 170.007 88.448C168.043 90.5906 161.662 124.796 158.893 144.337C158.879 144.562 158.78 144.774 158.616 144.931C158.452 145.087 158.236 145.177 158.01 145.181Z" fill="#0B0B0B"/>
<path d="M221.609 178.306H221.491L201.228 174.375C201.004 174.338 200.801 174.223 200.653 174.05C200.506 173.877 200.424 173.657 200.423 173.431L200.246 149.035C200.245 148.787 200.338 148.548 200.505 148.366C200.673 148.185 200.903 148.072 201.149 148.052L237.75 145.005L222.787 89.2151C222.721 88.9597 222.758 88.6886 222.89 88.4604C223.023 88.2322 223.239 88.0655 223.494 87.9963C223.619 87.9638 223.75 87.9564 223.877 87.9744C224.006 87.9924 224.128 88.0355 224.24 88.1012C224.351 88.167 224.448 88.2541 224.525 88.3574C224.603 88.4609 224.66 88.5787 224.692 88.7041L239.968 145.713C240 145.853 240.001 145.999 239.972 146.139C239.944 146.28 239.885 146.413 239.803 146.529C239.72 146.646 239.613 146.744 239.488 146.817C239.364 146.889 239.227 146.935 239.084 146.952L202.229 150.018L202.386 172.684L221.864 176.438C222.125 176.465 222.365 176.593 222.53 176.796C222.696 176.998 222.775 177.259 222.748 177.519C222.722 177.78 222.594 178.021 222.391 178.186C222.189 178.352 221.929 178.43 221.668 178.404L221.609 178.306Z" fill="#0B0B0B"/>
<path d="M108.882 184.638L91.25 137.398L163.233 138.814L179.393 192.697L108.882 184.638Z" fill="white"/>
<path d="M179.392 193.681H179.274L108.764 185.621C108.583 185.604 108.411 185.537 108.269 185.425C108.126 185.314 108.018 185.163 107.959 184.992L90.2868 137.813C90.2266 137.664 90.2058 137.503 90.2265 137.344C90.2471 137.186 90.3085 137.036 90.4046 136.908C90.4833 136.764 90.6046 136.646 90.7521 136.572C90.8996 136.498 91.0661 136.471 91.2293 136.495L163.212 137.911C163.421 137.915 163.624 137.985 163.79 138.113C163.956 138.24 164.077 138.418 164.135 138.618L180.275 192.481C180.325 192.639 180.336 192.805 180.305 192.966C180.274 193.127 180.203 193.278 180.099 193.406C179.906 193.583 179.654 193.681 179.392 193.681ZM109.569 183.714L177.998 191.577L162.584 139.779L92.7412 138.402L109.569 183.714Z" fill="#0B0B0B"/>
<path d="M112.709 185.071C112.709 185.071 93.1721 200.955 100.084 215.521C106.995 230.088 231.641 246.719 231.641 246.719L237.275 227.69C237.275 227.69 139.433 177.64 112.709 185.071Z" fill="white"/>
<path d="M231.699 247.7H231.581C226.457 247.011 106.269 230.813 99.2002 215.932C92.1315 201.05 111.276 184.971 112.101 184.302C112.206 184.22 112.326 184.16 112.454 184.125C139.237 176.655 233.761 224.759 237.766 226.803C237.975 226.905 238.14 227.077 238.233 227.289C238.327 227.501 238.343 227.74 238.276 227.963L232.642 246.992C232.586 247.198 232.462 247.379 232.291 247.506C232.121 247.634 231.912 247.702 231.699 247.7ZM113.181 185.953C111.374 187.487 94.7822 202.073 100.967 215.087C106.426 226.547 195.963 240.859 230.993 245.635L236.156 228.198C227.163 223.657 138.314 179.349 113.181 185.953Z" fill="#0B0B0B"/>
<path d="M243.817 177.756C243.817 177.756 146.877 217.072 122.844 227.354L136.824 248.978C136.824 248.978 226.341 247.228 252.004 224.7C277.668 202.172 275.959 164.722 243.817 177.756Z" fill="white"/>
<path d="M136.821 249.979C136.656 249.978 136.495 249.937 136.351 249.857C136.207 249.778 136.085 249.664 135.996 249.526L122.016 227.903C121.934 227.786 121.881 227.653 121.861 227.514C121.841 227.373 121.853 227.231 121.898 227.097C121.934 226.956 122.002 226.825 122.098 226.715C122.193 226.607 122.313 226.521 122.448 226.467C146.206 216.245 242.42 177.322 243.441 176.869C254.869 172.231 263.881 173.568 268.162 180.506C275.662 192.694 266.198 213.591 252.649 225.485C241.851 234.96 219.053 241.958 184.908 246.302C159.559 249.526 137.056 249.998 136.84 249.998L136.821 249.979ZM124.293 227.804L137.331 247.992C144.871 247.797 227.28 245.103 251.354 223.991C267.376 209.915 272.127 190.669 266.492 181.528C262.703 175.375 254.711 174.374 244.186 178.678C243.225 179.052 149.721 216.913 124.293 227.804Z" fill="#0B0B0B"/>
<path d="M108.528 165.766C108.427 166.325 108.191 166.851 107.841 167.298L105.877 170.11C105.935 169.813 106.059 169.534 106.241 169.294C106.423 169.053 106.658 168.858 106.928 168.723C107.197 168.588 107.494 168.518 107.796 168.515C108.097 168.514 108.395 168.581 108.666 168.715C109.204 169.001 109.651 169.432 109.957 169.96C110.262 170.489 110.414 171.093 110.394 171.703C110.354 172.92 110.067 174.118 109.549 175.22C108.214 178.701 105.19 183.792 100.792 181.119C97.827 179.329 97.0024 173 96.5704 169.873C95.7457 163.662 97.6307 155.72 105.583 156.94C105.351 159.987 104.216 162.895 102.324 165.294C103.678 164.056 108.901 162.109 108.528 165.766Z" fill="white"/>
<path d="M103.267 182.79C102.257 182.768 101.272 182.469 100.42 181.925C97.1015 179.959 96.2376 173.571 95.786 170.13C95.2362 166.199 95.786 160.93 98.6527 158.04C99.5904 157.149 100.733 156.503 101.98 156.16C103.227 155.817 104.539 155.788 105.8 156.074C106.026 156.109 106.23 156.226 106.372 156.405C106.514 156.584 106.583 156.81 106.566 157.037C106.401 159.092 105.841 161.095 104.916 162.936C105.945 162.57 107.068 162.57 108.097 162.936C108.6 163.189 109.005 163.602 109.246 164.111C109.488 164.62 109.554 165.196 109.433 165.746C109.338 166.46 109.061 167.138 108.628 167.712L109.099 167.869C109.798 168.221 110.382 168.765 110.785 169.436C111.188 170.108 111.393 170.881 111.376 171.664C111.342 173.021 111.035 174.359 110.473 175.594C109.629 177.777 107.783 181.493 104.799 182.593C104.303 182.744 103.785 182.81 103.267 182.79ZM104.111 157.746C103.339 157.717 102.568 157.844 101.846 158.122C101.124 158.398 100.465 158.819 99.9094 159.358C97.455 161.775 97.0819 166.336 97.5531 169.796C97.9458 172.803 98.7706 178.839 101.343 180.391C101.755 180.679 102.229 180.867 102.726 180.943C103.223 181.017 103.73 180.977 104.21 180.824C105.878 180.255 107.587 178.033 108.804 174.927C109.264 173.932 109.524 172.857 109.57 171.762C109.591 171.325 109.492 170.891 109.285 170.506C109.077 170.122 108.768 169.801 108.392 169.58C108.234 169.512 108.063 169.477 107.891 169.477C107.719 169.477 107.549 169.512 107.39 169.58L106.703 170.621C106.587 170.785 106.42 170.906 106.229 170.966C106.038 171.027 105.832 171.023 105.643 170.956C105.454 170.887 105.293 170.757 105.186 170.585C105.08 170.414 105.033 170.213 105.054 170.012C105.097 169.656 105.215 169.315 105.402 169.01C105.588 168.705 105.838 168.443 106.134 168.243L107.096 166.808C107.353 166.475 107.54 166.094 107.646 165.687C107.646 164.862 107.43 164.724 107.332 164.684C106.565 164.588 105.788 164.652 105.047 164.871C104.307 165.091 103.621 165.463 103.031 165.962C102.867 166.118 102.649 166.205 102.423 166.205C102.196 166.205 101.978 166.118 101.814 165.962C101.644 165.807 101.537 165.595 101.516 165.366C101.494 165.137 101.558 164.908 101.696 164.724C103.303 162.703 104.334 160.285 104.681 157.725L104.111 157.746Z" fill="#0B0B0B"/>
</svg>
