<svg width="130" height="48" viewBox="0 0 130 48" fill="none" xmlns="http://www.w3.org/2000/svg">
<ellipse cx="24.5" cy="24" rx="24.5" ry="24" fill="#D8A041"/>
<path fill-rule="evenodd" clip-rule="evenodd" d="M23.5638 16.1404L28.2312 17.2636L28.6025 17.4576L31.5827 20.6195L31.6283 20.957L29.0461 25.2469L31.0787 20.8368L30.7817 20.764L28.446 24.6262L30.2817 20.6438L29.9283 20.5584L27.8203 24.05L29.4797 20.4497L29.0837 20.3528L27.1104 23.6174L28.6649 20.2519L28.2302 20.1461L26.6124 22.8269L27.8866 20.0628L27.3777 19.9396L26.1708 21.9298L27.1163 19.8775L25.9915 19.6059L23.5599 23.7319V19.4924L24.5123 18.3596L24.2628 18.0783L23.5638 19.1559V18.2685L23.9688 17.7457L23.6153 17.3509L23.5628 17.4402V16.1404H23.5638ZM23.5638 28.2826L24.1094 27.4728L23.5638 28.4718V28.2826ZM23.5638 29.6357V30.0586L24.7807 27.8278L23.5638 29.6338V29.6357ZM23.5638 30.8423L23.6629 30.8529L25.1995 28.5639L23.9341 30.8801L24.5153 30.9441L25.547 29.4145L24.7004 30.9664L25.5995 31.0634L25.1351 31.8588L24.8955 31.948L23.5599 31.7016L23.5638 30.8423ZM22.9757 16.0028L23.5638 16.1444V17.444L22.9757 18.4362V17.5468L23.3391 17.056L22.9757 16.6458V16.0028ZM23.5638 23.7358L22.9757 24.7347V20.1927L23.5638 19.4924V23.7319V23.7358ZM22.9757 26.4438L22.9975 26.4117L22.9757 26.4515V26.4438ZM22.9757 27.8016L23.538 26.9675L22.9757 27.9966V27.8026V27.8016ZM22.9757 29.1594L23.5638 28.2866V28.4757L22.9757 29.5532V29.1556V29.1594ZM22.9757 30.5125L23.5638 29.6396V30.0624L23.1598 30.7947L23.5638 30.8393V31.7006L22.9757 31.592V30.5057V30.5125ZM23.5638 18.2761L22.9757 19.0366V20.0695L23.5638 19.1636V18.2761ZM21.7113 17.5487L22.5747 16.1016L22.84 15.9707L22.9757 16.0028V16.6458L22.8629 16.5177L21.7113 18.5604V17.5449V17.5487ZM22.9757 24.7347L21.7113 26.8812V20.6738L22.9757 19.0395V20.0725L22.6123 20.6321L22.9757 20.1995V24.7377V24.7347ZM21.7113 28.3235V28.7706L22.9757 26.4554V26.4476L21.7113 28.3235ZM21.7113 29.6813L22.9757 27.8055V27.9995L21.7113 30.3098V29.6764V29.6813ZM21.7113 30.6463V31.3689L22.9757 31.6017V30.5154L22.8064 30.7666L22.342 30.7152L22.9757 29.5562V29.1556L21.9569 30.6667L21.7113 30.6396V30.6463ZM22.9757 17.5526L21.7113 19.2529V20.5681L22.9757 18.4343V17.5526ZM16.4023 26.9723L16.4509 26.3749L21.7113 17.5546V18.5662L20.0835 21.4526L21.7113 19.2529V20.5681L21.448 21.0133L21.7113 20.6719V26.8792L19.632 30.4136L20.2549 30.4814L21.7143 28.3176V28.7647L20.744 30.5338L21.1054 30.5736L21.7113 29.6745V30.3098L21.5361 30.6211L21.7074 30.6396V31.3622L19.3479 30.9276L18.9944 30.7239L16.4023 26.9723Z" fill="white"/>
<path fill-rule="evenodd" clip-rule="evenodd" d="M26.9453 24.4898L27.1967 24.6906C26.7017 24.8245 26.275 25.3016 26.1136 25.7643C26.2582 25.5352 26.4498 25.338 26.6761 25.1848C26.9023 25.0318 27.1585 24.9263 27.4284 24.8749L27.8037 25.1736C27.3017 25.2978 26.8591 25.7856 26.6958 26.2551C26.8424 26.0216 27.0378 25.8211 27.2692 25.6669C27.5006 25.5128 27.7628 25.4084 28.0384 25.3608L28.4116 25.6576C27.8968 25.7711 27.4453 26.2696 27.2779 26.7449C27.4268 26.5072 27.6264 26.3039 27.8632 26.149C28.0999 25.9942 28.3681 25.8914 28.6493 25.8477L29.0196 26.1387C28.4938 26.2357 28.0294 26.7507 27.8592 27.2308C28.1483 26.7526 28.7264 26.3821 29.2601 26.3307L29.5948 26.5946C29.0176 26.7885 28.6206 27.3831 28.5364 27.7003C28.7394 27.3355 29.2948 26.872 29.8235 26.7682L30.1859 27.0455C29.5919 27.2396 29.175 27.8583 29.0879 28.1871C29.2987 27.8079 29.88 27.3258 30.4225 27.226L30.784 27.4985C30.173 27.6925 29.7502 28.3142 29.6621 28.6468C29.877 28.2589 30.473 27.7691 31.0245 27.677C31.1404 27.7643 31.2572 27.8525 31.372 27.9408C30.7532 28.125 30.3255 28.7574 30.2364 29.093C30.4533 28.7051 31.0582 28.2066 31.6136 28.1231C31.7305 28.2123 31.8473 28.3016 31.9622 28.3918C31.4671 28.5566 31.0295 29.0707 30.8731 29.5343C31.1688 29.0554 31.6457 28.7104 32.1998 28.5742L32.5889 28.8757C32.0711 29.0329 31.6433 29.5479 31.478 30.0251C31.6266 29.7863 31.8218 29.5787 32.0526 29.4141C32.2834 29.2494 32.545 29.1311 32.8226 29.0658L33.2097 29.3675C32.6948 29.5188 32.2424 30.0464 32.079 30.5217C32.229 30.2782 32.4275 30.0667 32.6628 29.9001C32.8981 29.7334 33.1652 29.6149 33.4483 29.5517L33.8335 29.8515C33.3107 29.995 32.8493 30.5304 32.6849 31.0154C32.8367 30.77 33.0379 30.5575 33.2761 30.3907C33.5145 30.224 33.7849 30.1065 34.0711 30.0454L34.4543 30.3442C33.9235 30.479 33.4523 31.028 33.2859 31.508C33.4396 31.2587 33.6444 31.0431 33.8875 30.8752C34.1305 30.7073 34.4064 30.5905 34.6978 30.5324L35.08 30.8292C34.5404 30.9552 34.0592 31.513 33.8919 31.9989C34.0471 31.7461 34.2551 31.5281 34.5021 31.3593C34.7492 31.1905 35.0297 31.0746 35.3256 31.0193L35.7048 31.3151C35.1582 31.4314 34.6671 31.9989 34.4969 32.4896C34.7939 31.9824 35.3979 31.5789 35.9523 31.5071L36.3315 31.7981C35.7761 31.9048 35.2741 32.4819 35.1028 32.9775C35.4067 32.4634 36.0197 32.0551 36.581 31.992L36.9572 32.283C36.3939 32.38 35.8811 32.962 35.7078 33.4663C36.0167 32.9454 36.6424 32.5333 37.2088 32.479L37.585 32.77C37.0127 32.8524 36.4879 33.4489 36.3127 33.9561C36.6265 33.4275 37.2642 33.0115 37.8375 32.9668L38.2127 33.2578C37.6316 33.3276 37.0949 33.9367 36.9186 34.4468C37.2354 33.9115 37.888 33.4905 38.4672 33.4557L38.8405 33.7466C38.2513 33.8019 37.7028 34.4256 37.5236 34.9386C37.8454 34.3954 38.5137 33.9687 39.0969 33.9464L39.4672 34.2374C38.8256 34.4216 38.3781 35.0764 38.29 35.4226C38.5137 35.0221 39.1405 34.508 39.7118 34.4285L40.0791 34.7194C39.4187 34.9008 38.9613 35.5749 38.8623 35.9347C39.0919 35.5225 39.7366 34.9939 40.3246 34.9124C40.5227 35.0702 40.723 35.2319 40.9256 35.3974C41.1622 35.5313 39.4216 37.8222 38.7681 38.1529L38.0563 37.538L25.1849 27.1882C24.4779 26.1339 24.9938 24.711 26.1096 24.4627C25.8425 24.6755 25.6401 24.9559 25.5244 25.2735C25.7779 24.874 26.1688 24.5761 26.6265 24.4336C26.7342 24.4435 26.8408 24.4624 26.9453 24.4898Z" fill="white"/>
<path fill-rule="evenodd" clip-rule="evenodd" d="M23.1016 12.3759L23.9085 5.40039L24.2303 12.405L23.1016 12.3759Z" fill="white"/>
<path fill-rule="evenodd" clip-rule="evenodd" d="M25.5916 35.4219L25.0649 42.4226L24.4629 35.4364L25.5916 35.4219Z" fill="white"/>
<path fill-rule="evenodd" clip-rule="evenodd" d="M20.0947 13.0861L19.0303 6.14453L21.1927 12.8281L20.0947 13.0861Z" fill="white"/>
<path fill-rule="evenodd" clip-rule="evenodd" d="M28.5891 34.7148L29.9297 41.6099L27.502 35.0145L28.5891 34.7148Z" fill="white"/>
<path fill-rule="evenodd" clip-rule="evenodd" d="M17.3936 14.5642L14.5322 8.12891L18.3857 14.0376L17.3936 14.5642Z" fill="white"/>
<path fill-rule="evenodd" clip-rule="evenodd" d="M31.3122 33.3047L34.429 39.6256L30.3418 33.8692L31.3122 33.3047Z" fill="white"/>
<path fill-rule="evenodd" clip-rule="evenodd" d="M15.1744 16.6782L10.71 11.1875L15.9932 15.9177L15.1744 16.6782Z" fill="white"/>
<path fill-rule="evenodd" clip-rule="evenodd" d="M13.5896 19.2828L7.82617 15.1113L14.1788 18.3401L13.5896 19.2828Z" fill="white"/>
<path fill-rule="evenodd" clip-rule="evenodd" d="M35.2087 28.6953L41.1345 32.6419L34.6572 29.6594L35.2087 28.6953Z" fill="white"/>
<path fill-rule="evenodd" clip-rule="evenodd" d="M12.7456 22.2011L6.07715 19.6328L13.0663 21.141L12.7456 22.2011Z" fill="white"/>
<path fill-rule="evenodd" clip-rule="evenodd" d="M36.1162 25.8105L42.8835 28.1208L35.8389 26.8823L36.1162 25.8105Z" fill="white"/>
<path fill-rule="evenodd" clip-rule="evenodd" d="M12.7039 25.2336L5.58398 24.4441L12.7335 24.1289L12.7039 25.2336Z" fill="white"/>
<path fill-rule="evenodd" clip-rule="evenodd" d="M36.2305 22.7949L43.3771 23.3109L36.2453 23.9006L36.2305 22.7949Z" fill="white"/>
<path fill-rule="evenodd" clip-rule="evenodd" d="M13.4261 28.1782L6.33984 29.2208L13.1627 27.1035L13.4261 28.1782Z" fill="white"/>
<path fill-rule="evenodd" clip-rule="evenodd" d="M35.5078 19.8592L42.5465 18.5449L35.8137 20.9231L35.5078 19.8592Z" fill="white"/>
<path fill-rule="evenodd" clip-rule="evenodd" d="M14.9375 30.8244L8.36719 33.6284L14.3989 29.8535L14.9375 30.8244Z" fill="white"/>
<path fill-rule="evenodd" clip-rule="evenodd" d="M34.0703 17.19L40.5229 14.1367L34.6475 18.1405L34.0703 17.19Z" fill="white"/>
<path fill-rule="evenodd" clip-rule="evenodd" d="M17.0953 33.0003L11.4912 37.3736L16.319 32.1973L17.0953 33.0003Z" fill="white"/>
<path fill-rule="evenodd" clip-rule="evenodd" d="M31.9717 14.9783L37.3974 10.3926L32.7796 15.7493L31.9717 14.9783Z" fill="white"/>
<path fill-rule="evenodd" clip-rule="evenodd" d="M19.7555 34.5507L15.4971 40.1965L18.7931 33.9727L19.7555 34.5507Z" fill="white"/>
<path fill-rule="evenodd" clip-rule="evenodd" d="M29.3643 13.3732L33.393 7.56836L30.3484 13.9134L29.3643 13.3732Z" fill="white"/>
<path fill-rule="evenodd" clip-rule="evenodd" d="M22.7332 35.3768L20.1123 41.9101L21.651 35.0625L22.7332 35.3768Z" fill="white"/>
<path fill-rule="evenodd" clip-rule="evenodd" d="M26.418 12.4838L28.7764 5.85547L27.512 12.7563L26.418 12.4838Z" fill="white"/>
<path d="M24.4991 3.6543C30.0072 3.6543 35.2898 5.79776 39.1846 9.61313C43.0795 13.4285 45.2676 18.6032 45.2676 23.999C45.2676 29.3948 43.0795 34.5695 39.1846 38.3849C35.2898 42.2003 30.0072 44.3437 24.4991 44.3437V43.5678C29.7979 43.5678 34.8797 41.5058 38.6266 37.8354C42.3735 34.165 44.4784 29.1869 44.4784 23.9961C44.4784 18.8054 42.3735 13.8272 38.6266 10.1568C34.8797 6.48641 29.7979 4.4244 24.4991 4.4244V3.6543ZM24.4991 44.3437C18.9908 44.3437 13.7083 42.2003 9.81344 38.3849C5.91859 34.5695 3.73047 29.3948 3.73047 23.999C3.73047 18.6032 5.91859 13.4285 9.81344 9.61313C13.7083 5.79776 18.9908 3.6543 24.4991 3.6543V4.43022C19.2002 4.43022 14.1183 6.49224 10.3714 10.1626C6.62456 13.833 4.51959 18.8112 4.51959 24.002C4.51959 29.1927 6.62456 34.1708 10.3714 37.8412C14.1183 41.5116 19.2002 43.5736 24.4991 43.5736V44.3437Z" fill="white"/>
<path d="M24.8958 2.90625H24.7769H24.4987V3.29421H24.6354H24.772H24.8907L24.8958 2.90625ZM24.1432 2.90625H24.0819H23.9432H23.8046H23.7452L23.7601 3.29421H23.8175H23.9532H24.0888H24.1512L24.1432 2.90625ZM23.3512 2.93244H23.2522L23.1194 2.94602L22.9789 2.95766H22.9502L22.9799 3.34562H23.0066L23.1413 3.33689L23.2759 3.32913H23.37L23.3472 2.94117L23.3512 2.93244ZM22.5591 2.98772L22.4392 2.99839L22.3027 3.01197L22.167 3.02555L22.2115 3.41351L22.3452 3.39993L22.4779 3.38733L22.5987 3.37665L22.5611 2.98869L22.5591 2.98772ZM21.767 3.07114H21.76L21.6254 3.0886L21.4918 3.10702L21.3719 3.12351L21.4293 3.50565L21.5462 3.48917L21.6779 3.47171L21.8095 3.45522H21.8165L21.767 3.06726V3.07114ZM20.9749 3.18461H20.9521L20.8195 3.20692L20.6868 3.22923L20.5818 3.24862L20.6541 3.62786L20.7531 3.60943L20.8838 3.58713L21.0145 3.56579H21.0363L20.972 3.18461H20.9749ZM20.1917 3.32525L20.159 3.33107L20.0273 3.35823L19.8966 3.38538L19.7977 3.40672L19.8838 3.78305L19.9769 3.76365L20.1056 3.73649L20.2343 3.71031L20.266 3.70351L20.1877 3.32525H20.1917ZM19.4145 3.49498L19.3759 3.50371L19.2462 3.53475L19.1174 3.56676L19.0283 3.59003L19.1273 3.96345L19.2145 3.94114L19.3412 3.9101L19.468 3.87906L19.5066 3.87033L19.4135 3.49498H19.4145ZM18.6432 3.68896L18.6036 3.7006L18.4759 3.73649L18.3491 3.77334L18.262 3.79856L18.3759 4.1681L18.461 4.14288L18.5858 4.107L18.7115 4.07207L18.7511 4.06141L18.6432 3.68896ZM17.8818 3.91786L17.8432 3.9295L17.7175 3.97024L17.5917 4.01097L17.5036 4.04104L17.6323 4.40572L17.7184 4.37759L17.8412 4.33686L17.9649 4.29709L18.0036 4.28545L17.8818 3.91786ZM17.1283 4.17101L17.0947 4.18264L16.9709 4.22726L16.8481 4.27284L16.755 4.30776L16.8976 4.66856L16.9878 4.63462L17.1086 4.59L17.2303 4.54538L17.2639 4.53375L17.1283 4.17101ZM16.3868 4.4513L16.36 4.46198L16.2382 4.51144L16.1174 4.56091L16.0184 4.60165L16.1739 4.95663L16.2729 4.91686L16.3917 4.8674L16.5105 4.81987L16.5372 4.8092L16.3868 4.4513ZM15.655 4.75877L15.6372 4.76652L15.5184 4.81987L15.3996 4.87321L15.2936 4.92268L15.462 5.27185L15.5669 5.22335L15.6828 5.17097L15.7996 5.1186L15.8174 5.11084L15.655 4.75877ZM14.9342 5.09145H14.9283L14.8115 5.14867L14.6946 5.20687L14.5787 5.26505L14.761 5.6084L14.8749 5.55117L14.9887 5.49395L15.1035 5.4377H15.1095L14.9342 5.09145ZM14.2263 5.45225L14.1193 5.50948L14.0105 5.57639L13.8976 5.63847L13.8837 5.64623L14.0818 5.98084L14.0927 5.97503L14.2045 5.91295L14.3164 5.85282L14.4234 5.7956L14.2322 5.45709L14.2263 5.45225ZM13.5333 5.84021L13.4421 5.89356L13.3313 5.95854L13.2204 6.02546L13.1927 6.04195L13.4016 6.36978L13.4273 6.35426L13.5362 6.28928L13.6451 6.22526L13.7362 6.17192L13.5382 5.84021H13.5333ZM12.856 6.25048L12.7817 6.29703L12.6729 6.36687L12.5649 6.4367L12.5234 6.46386L12.7441 6.7849L12.7837 6.75871L12.8897 6.68985L12.9966 6.62098L13.0709 6.57443L12.856 6.25048ZM12.1946 6.68402L12.1372 6.7238L12.0312 6.79654L11.9312 6.86831L11.8758 6.90807L12.1045 7.22523L12.158 7.1874L12.257 7.11466L12.356 7.04289L12.4134 7.00312L12.1867 6.68694L12.1946 6.68402ZM11.551 7.14182L11.5095 7.17189L11.4104 7.24851L11.3114 7.3261L11.2421 7.37944L11.4857 7.68303L11.553 7.63163L11.6521 7.555L11.751 7.48032L11.7916 7.45025L11.554 7.14182H11.551ZM10.9233 7.62678L10.8995 7.6452L10.8005 7.72571L10.7015 7.80621L10.6183 7.87507L10.8728 8.16604L10.954 8.09911L11.053 8.01959L11.152 7.94102L11.1758 7.92259L10.9263 7.6229L10.9233 7.62678ZM10.3154 8.12918L10.3074 8.13597L10.2084 8.21939L10.1094 8.30376L10.0104 8.38911L10.2758 8.67427L10.3698 8.59183L10.4688 8.50841L10.5678 8.42694L10.5758 8.42016L10.3154 8.12918ZM9.7213 8.65487L9.63616 8.73343L9.54308 8.82169L9.45001 8.90898L9.43417 8.9245L9.7114 9.19996L9.72625 9.18638L9.81734 9.09909L9.90843 9.01374L9.99358 8.9342L9.7213 8.65487ZM9.15892 9.19413L9.0906 9.26203L9.00149 9.35223L8.91139 9.4434L8.88169 9.47444L9.16882 9.73922L9.19754 9.71012L9.28467 9.62089L9.37377 9.53167L9.4411 9.46377L9.15892 9.19413ZM8.6104 9.75959L8.5599 9.81391L8.47277 9.9109L8.38663 10.0079L8.34406 10.0554L8.64109 10.3105L8.68168 10.2649L8.76684 10.1679L8.85099 10.0758L8.90248 10.0215L8.60545 9.76153L8.6104 9.75959ZM8.08366 10.3415L8.04901 10.3823L7.96485 10.4793L7.88267 10.5763L7.8292 10.6412L8.13515 10.8847L8.18664 10.8226L8.26782 10.7256L8.35 10.6286L8.38465 10.5879L8.08762 10.3386L8.08366 10.3415ZM7.57475 10.9477L7.55296 10.9739L7.47376 11.0709L7.39454 11.1679L7.33118 11.2503L7.64999 11.4928L7.71138 11.4133L7.7896 11.3163L7.86781 11.2193L7.88861 11.1931L7.57475 10.9477ZM7.09355 11.5684L7.08464 11.5801L7.01236 11.6868L6.93711 11.7838L6.86583 11.8808L7.1886 12.1029L7.2589 12.0059L7.33315 11.9089L7.40741 11.8119L7.41632 11.8002L7.09751 11.5723L7.09355 11.5684ZM6.63513 12.2076L6.56582 12.3046L6.49454 12.4103L6.42324 12.5171L6.41532 12.5287L6.748 12.7372L6.75394 12.7275L6.82424 12.6237L6.89454 12.519L6.96285 12.4219L6.63513 12.2076ZM6.20245 12.8623L6.14601 12.9506L6.0777 13.0592L6.01135 13.1678L5.99453 13.195L6.33414 13.3889L6.34899 13.3637L6.41532 13.2571L6.48167 13.1504L6.5381 13.0621L6.20245 12.8594V12.8623ZM5.79749 13.5296L5.75294 13.6062L5.69353 13.7236L5.63017 13.8361L5.6074 13.8769L5.95393 14.0611L5.97571 14.0223L6.0371 13.9128L6.10047 13.8041L6.14502 13.7265L5.80145 13.5326L5.79749 13.5296ZM5.41531 14.2086L5.37967 14.2735L5.32027 14.387L5.26086 14.5015L5.23314 14.5558L5.5866 14.7275L5.61333 14.6751L5.67175 14.5636L5.73017 14.452L5.76482 14.387L5.41531 14.2086ZM5.05888 14.9059L5.03115 14.9612L4.9757 15.0814L4.92125 15.1979L4.89056 15.2638L5.24996 15.4228L5.27967 15.3588L5.33314 15.2453L5.38759 15.1318L5.41531 15.0766L5.05888 14.9107V14.9059ZM4.72818 15.6159L4.70837 15.6614L4.65689 15.7797L4.60441 15.9049L4.57174 15.9815L4.93709 16.128L4.96779 16.0533L5.01828 15.9369L5.06878 15.8215L5.08857 15.7749L4.7262 15.6227L4.72818 15.6159ZM4.42619 16.3424L4.41035 16.3821L4.36283 16.5023L4.31629 16.6227L4.28461 16.707L4.65491 16.8409L4.68659 16.7574L4.73213 16.6391L4.77768 16.5218L4.79353 16.482L4.42619 16.3424ZM4.15094 17.0746L4.13807 17.1086L4.09549 17.2308L4.05392 17.3539L4.02321 17.4441L4.39847 17.5635L4.42818 17.4752L4.46976 17.3549L4.51134 17.2347L4.52322 17.2007L4.15094 17.0746ZM3.90341 17.8166L3.89352 17.8476L3.85589 17.9728L3.81826 18.0969L3.79054 18.1939L4.16975 18.2996L4.19648 18.2084L4.23312 18.0862L4.27074 17.964L4.28065 17.933L3.90341 17.8205V17.8166ZM3.6846 18.5664L3.67569 18.5983L3.64203 18.7254L3.60935 18.8515L3.58559 18.9485L3.96975 19.0397L3.99252 18.9495L4.02421 18.8253L4.05688 18.7011L4.06579 18.6692L3.6846 18.5721V18.5664ZM3.4945 19.3238L3.48658 19.3607L3.45687 19.4887L3.42915 19.6167L3.41034 19.705L3.79648 19.7826L3.8153 19.6972L3.84302 19.5712L3.87074 19.4451L3.87965 19.4082L3.4945 19.3238ZM3.33311 20.0881L3.32519 20.1327L3.30043 20.2627L3.27766 20.3926L3.2638 20.4721L3.65291 20.5352L3.66578 20.4586L3.68856 20.3305L3.71232 20.2035L3.72123 20.158L3.33311 20.0881ZM3.20143 20.8573L3.19252 20.9154L3.1737 21.0474L3.15489 21.1783L3.14598 21.2432L3.54203 21.2918L3.55094 21.2297L3.56876 21.1007L3.58757 20.9717L3.59648 20.9125L3.20638 20.8573H3.20143ZM3.10242 21.6332L3.09351 21.7098L3.07965 21.8426L3.06578 21.9765V22.0221L3.46182 22.056V22.0124L3.47469 21.8824L3.48856 21.7515L3.49747 21.6749L3.10143 21.6332H3.10242ZM3.02816 22.4091L3.02123 22.506L3.00835 22.6467L2.99944 22.7815V22.8019L3.39549 22.8213V22.8038L3.40341 22.6719L3.41232 22.54L3.42024 22.443L3.0242 22.4158L3.02816 22.4091ZM2.9836 23.185V23.3159V23.4518V23.5739L3.37965 23.5817V23.4615V23.3285L3.3846 23.1976L2.98855 23.185H2.9836ZM2.96875 23.9609H3.36479V24.1268V24.2606V24.344L2.96875 24.3508V24.2655V23.9658V23.9609ZM2.98162 24.7417V24.8086L2.98756 24.9434L2.99449 25.0783V25.1307L3.39054 25.1093V25.0588L3.3836 24.926L3.37865 24.7931V24.7271L2.98261 24.7417H2.98162ZM3.0242 25.5176L3.03113 25.6146L3.03806 25.7504L3.04994 25.8842V25.9104L3.44599 25.8736V25.8503L3.4341 25.7184L3.41628 25.5913L3.40935 25.4943L3.0133 25.5235L3.0242 25.5176ZM3.09548 26.2935L3.10835 26.4109L3.1242 26.5438L3.14103 26.6757V26.6806L3.53708 26.6301L3.51529 26.506L3.49945 26.376L3.48658 26.2586L3.09053 26.3023L3.09548 26.2935ZM3.1945 27.0694L3.2143 27.2004L3.23509 27.3314L3.25489 27.4506L3.644 27.3876L3.62519 27.2702L3.6044 27.1422L3.5846 27.0132L3.19351 27.0694H3.1945ZM3.31727 27.8444V27.861L3.34202 27.9909L3.36777 28.1199L3.38955 28.2275L3.77569 28.1499L3.75391 28.0452L3.72916 27.9181L3.71331 27.7872V27.7707L3.32519 27.8405L3.31727 27.8444ZM3.47668 28.6087L3.48262 28.6339L3.51133 28.7619L3.54203 28.889L3.56678 28.986L3.94995 28.8948L3.92619 28.7978L3.89648 28.6727L3.86678 28.5476L3.86183 28.5224L3.47668 28.6067V28.6087ZM3.6648 29.3672L3.67173 29.3962L3.70639 29.5214L3.74104 29.6475L3.76876 29.7445L4.14797 29.6387L4.12124 29.5418L4.08658 29.4186L4.05292 29.2954L4.04599 29.2663L3.6648 29.3633V29.3672ZM3.88461 30.115L3.89352 30.1441L3.93213 30.2682L3.97174 30.3914L4.00342 30.4884L4.37867 30.3691L4.34797 30.2721L4.30738 30.1557L4.26877 30.0344L4.25986 30.0053L3.88461 30.115ZM4.12916 30.8569L4.13807 30.8831L4.18164 31.0054L4.22619 31.1265L4.26283 31.2236L4.63313 31.0907L4.59748 30.9937L4.55391 30.8744L4.51134 30.7551L4.50243 30.7289L4.12916 30.855V30.8569ZM4.40639 31.5931L4.41431 31.6125L4.46183 31.7328L4.51035 31.852L4.55292 31.9549L4.91828 31.8094L4.8767 31.7124L4.82917 31.595L4.77768 31.4729L4.77075 31.4534L4.40639 31.5931ZM4.70342 32.3147L4.70936 32.3273L4.76085 32.4447L4.81431 32.562L4.86481 32.6716L5.22423 32.5125L5.17471 32.4049L5.12224 32.2895L5.07174 32.1741L5.0658 32.1625L4.70342 32.3147ZM5.03115 33.0247L5.08759 33.1401L5.14501 33.2555L5.20244 33.37V33.3748L5.55393 33.2002L5.49551 33.0887L5.43908 32.9752L5.38363 32.8627L5.03115 33.0247ZM5.38561 33.724L5.44006 33.8268L5.50145 33.9403L5.56383 34.0518L5.57274 34.0683L5.91829 33.8821L5.91037 33.8675L5.84898 33.7569L5.78958 33.6464L5.73413 33.5435L5.38561 33.724ZM5.76581 34.4087L5.8173 34.497L5.88265 34.6075L5.94799 34.7172L5.96581 34.7463L6.30443 34.5474L6.2876 34.5202L6.22324 34.4126L6.15988 34.3049L6.10839 34.2167L5.76581 34.4107V34.4087ZM6.17275 35.0799L6.21829 35.1517L6.2876 35.2593L6.35691 35.367L6.38463 35.4096L6.71632 35.1992L6.68958 35.1584L6.62027 35.0527L6.55295 34.947L6.50741 34.8752L6.17275 35.0799ZM6.60345 35.7404L6.64206 35.7957L6.71533 35.9014L6.78859 36.0052L6.8282 36.0614L7.15097 35.8374L7.11237 35.7831L7.04008 35.6813L6.9688 35.5774L6.93117 35.5222L6.60345 35.7404ZM7.05889 36.3796L7.0886 36.4194L7.16484 36.5212L7.24206 36.6231L7.29652 36.6928L7.61039 36.4601L7.5589 36.3912L7.48267 36.2942L7.40741 36.1972L7.37772 36.1575L7.05889 36.3854V36.3796ZM7.5391 37.0012L7.55692 37.0245L7.63712 37.1216L7.71831 37.2185L7.78663 37.302L8.09257 37.0576L8.02524 36.976L7.94603 36.8791L7.86781 36.7821L7.84901 36.7588L7.5391 37.0012ZM8.04109 37.6055L8.04802 37.6133L8.13119 37.7103L8.21534 37.8073L8.3005 37.9042L8.59753 37.6482L8.51337 37.5513L8.43119 37.4542L8.34901 37.3572L8.34208 37.3495L8.04505 37.5987L8.04109 37.6055ZM8.56485 38.1904L8.64407 38.2748L8.7312 38.3717L8.81931 38.4688L8.83516 38.4852L9.12031 38.2185L9.10743 38.204L9.0203 38.1128L8.93416 38.0217L8.85496 37.9372L8.56485 38.1904ZM9.11139 38.7568L9.17873 38.8247L9.26982 38.914L9.3609 39.0032L9.39259 39.0332L9.66784 38.7568L9.63813 38.7287L9.54903 38.6404L9.45892 38.5531L9.39159 38.4852L9.11139 38.7568ZM9.67873 39.3038L9.73318 39.3542L9.8322 39.4415L9.93121 39.5269L9.97874 39.5696L10.2441 39.2786L10.1985 39.2379L10.0995 39.1535L10.0074 39.0682L9.95298 39.0177L9.68268 39.299L9.67873 39.3038ZM10.2659 39.8305L10.3065 39.8654L10.4055 39.9488L10.5045 40.0313L10.5688 40.0856L10.8233 39.7898L10.7599 39.7374L10.6609 39.6569L10.5619 39.5745L10.5213 39.5395L10.2609 39.8305H10.2659ZM10.8728 40.3349L10.8985 40.3562L10.9976 40.4357L11.0966 40.5153L11.1787 40.5793L11.4233 40.2747L11.3421 40.2126L11.2431 40.1351L11.1441 40.0565L11.1183 40.0351L10.8688 40.3349H10.8728ZM11.4975 40.8198L11.5084 40.8275L11.6074 40.9032L11.7065 40.9788L11.8055 41.0526L12.0381 40.7402L11.9391 40.6685L11.8402 40.5938L11.7412 40.5191L11.7303 40.5113L11.4917 40.8198H11.4975ZM12.1421 41.2795L12.2411 41.3484L12.348 41.4202L12.456 41.492L12.4688 41.5006L12.6877 41.1796L12.6768 41.1718L12.5708 41.1011L12.4659 41.0312L12.3669 40.9624L12.1421 41.2795ZM12.8016 41.716L12.8897 41.7713L12.9996 41.8392L13.1094 41.907L13.1381 41.9246L13.3451 41.5957L13.3184 41.5792L13.2105 41.5133L13.1025 41.4454L13.0144 41.3901L12.8016 41.716ZM13.4778 42.1273L13.553 42.1709L13.665 42.2358L13.7778 42.2999L13.8214 42.3241L14.0194 41.9886L13.9768 41.9643L13.8669 41.9022L13.757 41.8382L13.6817 41.7945L13.4838 42.1273H13.4778ZM14.1709 42.5152L14.2343 42.5482L14.3481 42.6092L14.4639 42.6694L14.5224 42.6985L14.7036 42.3562L14.6481 42.327L14.5352 42.2679L14.4223 42.2087L14.359 42.1747L14.1709 42.5152ZM14.8758 42.876L14.9283 42.9022L15.0452 42.9584L15.163 43.0147L15.2343 43.0477L15.4026 42.6985L15.3343 42.6665L15.2184 42.6113L15.1035 42.5559L15.0521 42.5307L14.8758 42.876ZM15.5946 43.2087L15.6362 43.2271L15.756 43.2795L15.8758 43.3318L15.959 43.3668L16.1144 43.0118L16.0343 42.9778L15.9164 42.9264L15.7986 42.875L15.757 42.8566L15.5946 43.2087ZM16.3253 43.5181L16.359 43.5316L16.4808 43.5802L16.6025 43.6277L16.6957 43.6626L16.8383 43.3028L16.7471 43.2678L16.6273 43.2213L16.5076 43.1738L16.4748 43.1602L16.3253 43.5181ZM17.0679 43.8013L17.0947 43.811L17.2185 43.8546L17.3422 43.8983L17.4412 43.9322L17.5699 43.5666L17.4709 43.5336L17.3491 43.4909L17.2273 43.4482L17.2006 43.4386L17.0649 43.8013H17.0679ZM17.8204 44.0563L17.8432 44.0641L17.969 44.1029L18.0947 44.1427L18.1996 44.1737L18.3145 43.8041L18.2155 43.7732L18.0917 43.7353L17.9679 43.6965L17.9452 43.6887L17.8234 44.0563H17.8204ZM18.5818 44.2843L18.6036 44.2901L18.7313 44.326L18.86 44.3599L18.965 44.388L19.0639 44.0137L18.965 43.9875L18.8392 43.9535L18.7135 43.9186L18.6917 43.9128L18.5837 44.2843H18.5818ZM19.3511 44.4841L19.3759 44.4899L19.5056 44.521L19.6353 44.55L19.7392 44.5733L19.8253 44.196L19.7264 44.1737L19.5987 44.1446L19.4709 44.1146L19.4472 44.1087L19.3531 44.4841H19.3511ZM20.1284 44.6557L20.159 44.6626L20.2907 44.6878L20.4224 44.713L20.5214 44.7314L20.5937 44.3512L20.4947 44.3338L20.365 44.3085L20.2363 44.2833L20.2056 44.2775L20.1264 44.6557H20.1284ZM20.9105 44.7993L20.9521 44.8061L21.0858 44.8275L21.2194 44.8478L21.3046 44.8604L21.361 44.4773L21.2789 44.4656L21.1481 44.4453L21.0175 44.4249L20.9749 44.4182L20.9105 44.7993ZM21.7026 44.9138L21.76 44.9215L21.8947 44.938L22.0303 44.9545L22.0977 44.9612L22.1402 44.5733L22.0749 44.5665L21.9423 44.551L21.8095 44.5345L21.7521 44.5277L21.7026 44.9157V44.9138ZM22.4947 45L22.5739 45.0069L22.7106 45.0185L22.8472 45.0292H22.8917L22.9195 44.6412H22.8769L22.7433 44.6305L22.6086 44.6189L22.5294 44.6121L22.4947 45ZM23.2868 45.0573L23.3938 45.0631L23.5313 45.0699L23.669 45.0747H23.6848L23.6977 44.6868H23.6838H23.5492L23.4135 44.68L23.3076 44.6742L23.2868 45.0621V45.0573ZM24.0789 45.0864H24.2175H24.4739V44.6985H24.3591H24.2225H24.0858L24.0779 45.0864H24.0789ZM24.871 45.0864H24.9116H25.0502H25.1888H25.269L25.2542 44.6985H25.176H25.0403H24.9046H24.8641L24.871 45.0864ZM25.6631 45.0592H25.7363L25.874 45.0505L26.0106 45.0418H26.0611L26.0304 44.6538H25.9828L25.8483 44.6626L25.7136 44.6703H25.6412L25.6631 45.0583V45.0592ZM26.4551 45.003L26.5542 44.9943L26.6898 44.9807L26.8254 44.9671H26.8522L26.8076 44.5791H26.7839L26.6502 44.5927L26.5176 44.6053L26.4185 44.6141L26.4562 45.0021L26.4551 45.003ZM27.2473 44.9186L27.366 44.9031L27.4997 44.8846L27.6344 44.8662H27.6423L27.5819 44.4841H27.577L27.4453 44.5025L27.3136 44.52L27.1948 44.5355L27.2473 44.9234V44.9186ZM28.0394 44.8051L28.173 44.7828L28.3056 44.7606L28.4314 44.7382L28.3591 44.358L28.2364 44.3803L28.1057 44.4026L27.975 44.4239L28.0394 44.8051ZM28.8225 44.6635H28.8334L28.9651 44.6364L29.0958 44.6092L29.2116 44.584L29.1255 44.2067L29.0116 44.231L28.8829 44.2581L28.7542 44.2843H28.7433L28.8225 44.6635ZM29.5997 44.4929H29.6166L29.7462 44.4618L29.875 44.4298L29.9849 44.4016L29.8859 44.0273L29.7779 44.0554L29.6543 44.0816L29.5275 44.1127H29.5097L29.6037 44.488L29.5997 44.4929ZM30.3691 44.2988L30.3889 44.293L30.5166 44.2571L30.6434 44.2203L30.7513 44.1893L30.6443 43.8178L30.5393 43.8498L30.4146 43.8857L30.2889 43.9206L30.269 43.9264L30.377 44.2978L30.3691 44.2988ZM31.1315 44.0719L31.1493 44.067L31.275 44.0263L31.4008 43.9856L31.5087 43.9487L31.38 43.5831L31.274 43.619L31.1512 43.6597L31.0275 43.6994L31.0097 43.7043L31.1315 44.0719ZM31.8839 43.8188H31.8978L32.0216 43.7732L32.1444 43.7285L32.2572 43.6859L32.1146 43.3251L32.0047 43.3668L31.8839 43.4114L31.7621 43.456H31.7483L31.8839 43.8197V43.8188ZM32.6265 43.5374H32.6334L32.7552 43.488L32.876 43.4386L32.9938 43.3891L32.8384 43.0341L32.7225 43.0826L32.6038 43.1321L32.4839 43.1795H32.478L32.6265 43.5374ZM33.3592 43.2281L33.4751 43.1767L33.5938 43.1233L33.7117 43.069L33.7206 43.0641L33.5493 42.716H33.5424L33.4265 42.7703L33.3176 42.8207L33.2018 42.8721L33.3661 43.2232L33.3592 43.2281ZM34.079 42.8935L34.178 42.844L34.2939 42.7858L34.4107 42.7276L34.4305 42.7169L34.2464 42.3755L34.2285 42.3843L34.1147 42.4415L34.0008 42.4987L33.9018 42.5492L34.08 42.8935H34.079ZM34.785 42.5336L34.872 42.4861L34.9859 42.424L35.0998 42.3619L35.1325 42.3436L34.9345 42.0089L34.9037 42.0254L34.7929 42.0874L34.681 42.1476L34.5929 42.1951L34.784 42.5336H34.785ZM35.4781 42.1457L35.5513 42.103L35.6622 42.038L35.7731 41.971L35.8187 41.9429L35.6097 41.6151L35.5662 41.6422L35.4573 41.7073L35.3483 41.7723L35.2761 41.814L35.4741 42.1457H35.4781ZM36.1553 41.7354L36.2117 41.6995L36.3207 41.6296L36.4285 41.5598L36.488 41.5211L36.2672 41.2L36.2097 41.2379L36.1028 41.3067L35.9969 41.3755L35.9404 41.4114L36.1553 41.7354ZM36.8157 41.2999L36.8562 41.2727L36.9622 41.2L37.0672 41.1263L37.1404 41.0739L36.9078 40.7616L36.8365 40.812L36.7375 40.8848L36.6384 40.9565L36.5979 40.9837L36.8246 41.2999H36.8157ZM37.4602 40.8421L37.483 40.8246L37.582 40.748L37.681 40.6704L37.7671 40.6045L37.5345 40.299L37.4503 40.364L37.3513 40.4396L37.2524 40.5153L37.2286 40.5327L37.4672 40.8411L37.4602 40.8421ZM38.086 40.3571L38.0939 40.3513L38.1929 40.2709L38.2919 40.1893L38.391 40.1079L38.1345 39.8169L38.0355 39.8974L37.9365 39.9769L37.8375 40.0556L37.8305 40.0613L38.0791 40.3611L38.086 40.3571ZM38.6949 39.8528L38.783 39.7772L38.8821 39.6928L38.9811 39.6074L38.9978 39.5928L38.7305 39.3087L38.7157 39.3213L38.6217 39.4047L38.5227 39.4881L38.4355 39.5638L38.6969 39.8548L38.6949 39.8528ZM39.283 39.3271L39.3533 39.2631L39.4464 39.1748L39.5385 39.0865L39.5701 39.0575L39.2929 38.782L39.2632 38.8102L39.1721 38.8974L39.0811 38.9828L39.0117 39.0477L39.283 39.3271ZM39.8524 38.7859L39.9038 38.7345L39.9939 38.6433L40.0841 38.5521L40.1286 38.5056L39.8414 38.2408L39.7979 38.2854L39.7108 38.3746L39.6217 38.4639L39.5692 38.5163L39.8524 38.7859ZM40.3998 38.2204L40.4355 38.1816L40.5227 38.0847L40.6088 37.9877L40.6652 37.9246L40.3682 37.6696L40.3137 37.7307L40.2286 37.8276L40.1434 37.9198L40.1078 37.9586L40.3998 38.2185V38.2204ZM40.9256 37.6385L40.9464 37.6133L41.0295 37.5163L41.1128 37.4193L41.1801 37.3388L40.8742 37.0944L40.8088 37.173L40.7276 37.27L40.6454 37.3669L40.6247 37.3912L40.9217 37.6414L40.9256 37.6385ZM41.4296 37.0343L41.4365 37.0245L41.5167 36.9276L41.596 36.8306L41.6722 36.7336L41.3574 36.4998L41.282 36.5969L41.2049 36.6938L41.1266 36.7908L41.1187 36.8006L41.4296 37.0391V37.0343ZM41.9108 36.4116L41.9821 36.3146L42.0573 36.2118L42.1316 36.108L42.1415 36.0935L41.8177 35.8733L41.8088 35.8859L41.7355 35.9829L41.6613 36.0799L41.59 36.1769L41.9108 36.4028V36.4116ZM42.3673 35.7734L42.4247 35.6899L42.496 35.5843L42.5673 35.4776L42.587 35.4475L42.2544 35.239L42.2366 35.2671L42.1662 35.3718L42.0959 35.4756L42.0395 35.559L42.3673 35.7734ZM42.7999 35.1187L42.8445 35.0479L42.9128 34.9392L42.9791 34.8307L43.0068 34.785L42.6672 34.5911L42.6405 34.6347L42.5752 34.7414L42.5088 34.8481L42.4643 34.9189L42.7999 35.1217V35.1187ZM43.2078 34.4485L43.2415 34.3903L43.3048 34.2797L43.3682 34.1672L43.4019 34.1081L43.0554 33.9237L43.0227 33.981L42.9613 34.0906L42.898 34.1992L42.8642 34.2584L43.2078 34.4524V34.4485ZM43.589 33.7695L43.6138 33.7231L43.6742 33.6096L43.7336 33.4951L43.7702 33.4223L43.4168 33.242L43.3801 33.3137L43.3217 33.4252L43.2632 33.5368L43.2385 33.5834L43.5881 33.7618L43.589 33.7695ZM43.9454 33.0712L43.9623 33.0353L44.0188 32.9199L44.0732 32.8035L44.1128 32.7182L43.7534 32.5591L43.7138 32.6367L43.6603 32.7502L43.6048 32.8646L43.5881 32.9005L43.9445 33.0654L43.9454 33.0712ZM44.2742 32.3612L44.2861 32.335L44.3375 32.2167L44.3881 32.0984L44.4286 32.0014L44.0633 31.855L44.0246 31.9519L43.9742 32.0683L43.9237 32.1838L43.9118 32.211L44.2742 32.3632V32.3612ZM44.5762 31.6397L44.5841 31.6202L44.6316 31.5L44.6772 31.3797L44.7168 31.275L44.3465 31.1421L44.3078 31.2449L44.2623 31.3632L44.2187 31.4729L44.2118 31.4922L44.5791 31.6319L44.5762 31.6397ZM44.8505 30.9074L44.8554 30.8938L44.8989 30.7715L44.9405 30.6484L44.9771 30.5378L44.6049 30.4108L44.5693 30.5195L44.5277 30.6397L44.486 30.76L44.4811 30.7736L44.8534 30.8996L44.8505 30.9074ZM45.097 30.1654V30.1547L45.1346 30.0296L45.1722 29.9054L45.2059 29.7919L44.8267 29.6863L44.794 29.7978L44.7573 29.92L44.7197 30.0422V30.0539L45.097 30.1654ZM45.3148 29.4157V29.404L45.3485 29.277L45.3811 29.1509L45.4098 29.0374L45.0267 28.9462L45.0009 29.0481L44.9692 29.1723L44.9366 29.2963V29.308L45.3178 29.405L45.3148 29.4157ZM45.5039 28.6581V28.6417L45.5336 28.5137L45.5613 28.3857L45.595 28.2722L45.2088 28.1946L45.1861 28.3003L45.1583 28.4264L45.1306 28.5525V28.5689L45.5148 28.6533L45.5039 28.6581ZM45.6653 27.8939V27.8687L45.6901 27.7397L45.7128 27.6097L45.7306 27.5127L45.3416 27.4497L45.3237 27.5467L45.3009 27.6747L45.2782 27.8018L45.2732 27.827L45.6614 27.8968L45.6653 27.8939ZM45.7959 27.1248L45.8019 27.087L45.8207 26.955L45.8396 26.8241L45.8505 26.7377L45.4594 26.6892L45.4485 26.7727L45.4307 26.9017L45.4118 27.0306L45.4059 27.0685L45.7959 27.1248ZM45.895 26.3489L45.9019 26.2935L45.9158 26.1607L45.9296 26.0268L45.9356 25.9609L45.5395 25.9269L45.5336 25.9909L45.5207 26.1209L45.5069 26.2518L45.4999 26.3071L45.896 26.3489H45.895ZM45.9683 25.5729L45.9742 25.4933L45.9831 25.3595L45.9921 25.2247V25.184L45.596 25.1636V25.2024L45.5881 25.3343L45.5791 25.4662L45.5732 25.5457L45.9692 25.5729H45.9683ZM46.0118 24.797V24.6874V24.5516V24.4159V24.4071L45.6158 24.4023V24.409V24.5419V24.6748V24.7844L46.0118 24.797ZM46.0266 24.0211H45.6306V23.8765V23.7427V23.6379L46.0266 23.6312V23.7378V24.0045V24.0211ZM46.0128 23.2451V23.1986L46.0079 23.0637L46.0009 22.929V22.8553L45.6049 22.8766V22.9483L45.6119 23.0813V23.2131V23.2597L46.0079 23.2451H46.0128ZM45.9702 22.4692L45.9643 22.3955L45.9534 22.2616L45.9415 22.1278V22.0813L45.5455 22.1172V22.1617L45.5573 22.2937L45.5682 22.4246L45.5732 22.4993L45.9692 22.4692H45.9702ZM45.898 21.6933L45.8871 21.5963L45.8713 21.4634L45.8544 21.3315V21.3053L45.4633 21.3567V21.38L45.4802 21.51L45.496 21.6399L45.5069 21.7369L45.9029 21.6923L45.898 21.6933ZM45.7989 20.9173L45.7822 20.8049L45.7614 20.6739L45.7396 20.543V20.5323L45.3504 20.5982V20.607L45.3712 20.735L45.392 20.863L45.4089 20.9765L45.7989 20.9173ZM45.6712 20.1249L45.6475 20.0008L45.6217 19.8718L45.596 19.7438L45.2088 19.8204L45.2346 19.9465L45.2603 20.0735L45.2841 20.1977L45.6712 20.1249ZM45.5119 19.3616L45.4821 19.2336L45.4524 19.1066L45.4227 18.9863L45.0396 19.0775L45.0683 19.1958L45.0979 19.3209L45.1277 19.4461V19.4509L45.5119 19.3655V19.3616ZM45.3237 18.6042V18.5954L45.2891 18.4703L45.2544 18.3442L45.2208 18.2278L44.8415 18.3335L44.8742 18.448L44.9019 18.5731L44.9366 18.6963V18.705L45.3178 18.608L45.3237 18.6042ZM45.1069 17.8534V17.8447L45.0683 17.7206L45.0276 17.5974L44.99 17.4819L44.6119 17.6032L44.6494 17.7167L44.688 17.8379L44.7267 17.9592V17.9679L45.1049 17.8554L45.1069 17.8534ZM44.8603 17.1183V17.1124L44.8177 16.9903L44.7732 16.869L44.7297 16.7507L44.3594 16.8835L44.4019 16.9999L44.4455 17.1192L44.4881 17.2385V17.2444L44.8603 17.1183ZM44.5871 16.386L44.5395 16.2657L44.4911 16.1464L44.4415 16.0271V16.0222L44.0771 16.1706L44.1257 16.288L44.1732 16.4054L44.2197 16.5237L44.5871 16.384V16.386ZM44.2851 15.6634L44.2366 15.5538L44.1841 15.4364L44.1306 15.3191L44.1247 15.3065L43.7663 15.4694L43.7712 15.4801L43.8237 15.5955L43.8762 15.7109L43.9237 15.8196L44.2851 15.6653V15.6634ZM43.9574 14.9524L43.9098 14.8555L43.8524 14.7401L43.795 14.6256L43.7821 14.6023L43.4306 14.7759L43.4415 14.7973L43.4979 14.9098L43.5543 15.0233L43.6019 15.1203L43.9574 14.9524ZM43.6019 14.2551L43.5564 14.1707L43.496 14.0572L43.4335 13.9457L43.4148 13.9107L43.0683 14.097L43.0871 14.13L43.1474 14.2405L43.2078 14.3511L43.2524 14.4346L43.6019 14.2551ZM43.2187 13.5674L43.1781 13.4976L43.1128 13.387L43.0464 13.2775L43.0177 13.2299L42.6791 13.4239L42.7068 13.4695L42.7721 13.5771L42.8355 13.6858L42.8762 13.7546L43.2187 13.5607V13.5674ZM42.8118 12.8973L42.7772 12.8429L42.7078 12.7353L42.6385 12.6276L42.5989 12.5675L42.2682 12.7779L42.3058 12.8361L42.3741 12.9418L42.4425 13.0476L42.4771 13.1019L42.8118 12.8973ZM42.3791 12.2416L42.3534 12.2037L42.2801 12.098L42.2068 11.9943L42.1544 11.9206L41.8325 12.1426L41.8841 12.2135L41.9554 12.3163L42.0276 12.42L42.0533 12.4579L42.3801 12.2416H42.3791ZM41.9237 11.6024L41.9068 11.5801L41.8325 11.4783L41.7553 11.3812L41.689 11.295L41.3752 11.5277L41.4395 11.6121L41.5157 11.7091L41.591 11.8061L41.6078 11.8284L41.9267 11.6005L41.9237 11.6024ZM41.4435 10.9807L41.4375 10.9739L41.3583 10.8769L41.2771 10.7799L41.1959 10.6829L40.892 10.9293L40.9721 11.0263L41.0514 11.1233L41.1296 11.2203L41.1355 11.227L41.4454 10.9885L41.4435 10.9807ZM40.9415 10.3755L40.8663 10.2892L40.7821 10.1922L40.6969 10.0952L40.6811 10.0787L40.384 10.3347L40.3979 10.3503L40.481 10.4472L40.5643 10.5442L40.6395 10.6315L40.9365 10.3803L40.9415 10.3755ZM40.4157 9.79354L40.3514 9.72468L40.2642 9.62768L40.1751 9.53069L40.1454 9.49966L39.8592 9.76638L39.888 9.79547L39.9751 9.88665L40.0612 9.97782L40.1256 10.0467L40.4157 9.78481V9.79354ZM39.8692 9.22711L39.8167 9.17474L39.7256 9.08551L39.6345 8.99628L39.588 8.95166L39.3118 9.22808L39.3573 9.27076L39.4464 9.35902L39.5365 9.44632L39.588 9.49869L39.8692 9.22711ZM39.3008 8.68009L39.2623 8.64323L39.1633 8.55691L39.0642 8.47156L39.0008 8.41433L38.7355 8.70531L38.7969 8.76059L38.89 8.84497L38.983 8.93032L39.0216 8.96621L39.2919 8.68494L39.3008 8.68009ZM38.7137 8.1544L38.6889 8.13306L38.59 8.04965L38.491 7.96721L38.4098 7.89932L38.1553 8.19029L38.2345 8.25721L38.3335 8.33771L38.4325 8.42016L38.4572 8.44052L38.7177 8.14955L38.7137 8.1544ZM38.1058 7.65005L38.0969 7.64229L37.9979 7.56276L37.8988 7.48323L37.7999 7.40661L37.5514 7.71018L37.6503 7.78584L37.7493 7.86343L37.8484 7.94199L37.8573 7.94975L38.1068 7.65005H38.1058ZM37.479 7.1651L37.3801 7.0943L37.2781 7.01864L37.179 6.94299L37.1592 6.93426L36.9296 7.24754L36.9424 7.25724L37.0414 7.33095L37.1404 7.40564L37.2394 7.47644L37.4761 7.1651H37.479ZM36.8354 6.70536L36.7523 6.64911L36.6463 6.57733L36.5385 6.50556L36.5077 6.4852L36.2879 6.80623L36.3167 6.82564L36.4226 6.89643L36.5266 6.96627L36.6097 7.02349L36.8345 6.70536H36.8354ZM36.1751 6.26988L36.1057 6.22623L35.9958 6.15834L35.8859 6.09045L35.8384 6.06135L35.6325 6.39112L35.6771 6.41827L35.785 6.48422L35.8929 6.55212L35.9622 6.59577L36.1751 6.26988ZM35.4959 5.85864L35.4394 5.82663L35.3275 5.76165L35.2147 5.69764L35.1523 5.66272L34.9543 5.99928L35.0147 6.03322L35.1256 6.09529L35.2355 6.15834L35.2919 6.19132L35.4899 5.85864H35.4959ZM34.8028 5.47068L34.7582 5.4474L34.6434 5.3863L34.5285 5.32713L34.4563 5.28542L34.274 5.6278L34.3493 5.6666L34.4622 5.72576L34.5751 5.78492L34.6186 5.8082L34.8077 5.46874L34.8028 5.47068ZM34.0968 5.10987L34.0641 5.09338L33.9473 5.03713L33.8295 4.98088L33.7394 4.9382L33.5701 5.28834L33.6582 5.32907L33.7741 5.38435L33.8889 5.43964L33.9216 5.45516L34.0968 5.10987ZM33.378 4.77428L33.3562 4.76459L33.2365 4.71222L33.1196 4.66178L33.0206 4.61814L32.8651 4.97312L32.9641 5.01579L33.082 5.0672L33.1998 5.1186L33.2215 5.1283L33.3839 4.77623L33.378 4.77428ZM32.6464 4.46489H32.6334L32.5117 4.41639L32.3899 4.36887L32.277 4.32619L32.1345 4.68602L32.2453 4.7287L32.3652 4.77525L32.4839 4.82278L32.4978 4.82763L32.6464 4.46974V4.46489ZM31.9047 4.18362H31.8978L31.774 4.13997L31.6503 4.09632L31.5354 4.05461L31.4067 4.42027L31.5245 4.46003L31.6463 4.50271L31.7681 4.54538H31.775L31.9107 4.18264L31.9047 4.18362ZM31.1572 3.92755L31.0315 3.88876L30.9047 3.849L30.78 3.81117L30.6651 4.18167L30.7879 4.21853L30.9116 4.25636L31.0354 4.29516L31.1572 3.92755ZM30.3948 3.7006L30.2671 3.66472L30.1384 3.63077L30.0116 3.59779L29.9126 3.97121L30.0364 4.00321L30.1621 4.03716L30.2879 4.07207L30.3958 3.7006H30.3948ZM29.6255 3.50178L29.4958 3.47073L29.3621 3.44261L29.2373 3.41545L29.1512 3.79274L29.273 3.8199L29.4007 3.849L29.5284 3.87906L29.6226 3.50371L29.6255 3.50178ZM28.8483 3.33107H28.8383L28.7067 3.30585L28.575 3.28064L28.4572 3.25832L28.3859 3.63659L28.5007 3.65792L28.6305 3.68314L28.7592 3.70836H28.7691L28.8483 3.3301V3.33107ZM28.07 3.1914H28.0492L27.9166 3.17007L27.7829 3.1497L27.674 3.13029L27.6166 3.51244L27.7205 3.52796L27.8513 3.54832L27.9819 3.56869H28.0027L28.067 3.18752L28.07 3.1914ZM27.278 3.07695L27.2423 3.07211L27.1066 3.05465L26.971 3.03913L26.8819 3.02943L26.8393 3.41739L26.9265 3.42612L27.0591 3.44163L27.1918 3.45812H27.2274L27.2769 3.07501L27.278 3.07695ZM26.4859 2.9916H26.4285L26.2878 2.97511L26.1512 2.96444L26.0898 2.95766L26.0621 3.34562H26.1265L26.2601 3.35628L26.3947 3.36792L26.4522 3.37277L26.4868 2.98481L26.4859 2.9916ZM25.6937 2.93438H25.6086L25.471 2.92759L25.3334 2.92177H25.2977L25.2848 3.30973H25.3195L25.4551 3.31458L25.5908 3.32137H25.6759L25.6937 2.93438Z" fill="white"/>
<path d="M24.4985 2.08594C30.4313 2.08594 36.121 4.39462 40.3162 8.50412C44.5112 12.6136 46.868 18.1873 46.868 23.999C46.868 29.8107 44.5112 35.3844 40.3162 39.4939C36.121 43.6033 30.4313 45.912 24.4985 45.912V45.5241C27.4017 45.5511 30.2815 45.0142 32.9716 43.9446C35.6617 42.875 38.1089 41.2938 40.1714 39.2923C42.2341 37.2908 43.8714 34.9088 44.9889 32.2838C46.1063 29.6588 46.6816 26.843 46.6816 23.999C46.6816 21.1549 46.1063 18.3391 44.9889 15.7141C43.8714 13.0892 42.2341 10.7072 40.1714 8.70568C38.1089 6.70422 35.6617 5.12298 32.9716 4.05335C30.2815 2.98373 27.4017 2.4469 24.4985 2.4739V2.08594ZM24.4985 45.912C18.5657 45.912 12.8759 43.6033 8.6808 39.4939C4.48569 35.3844 2.12891 29.8107 2.12891 23.999C2.12891 18.1873 4.48569 12.6136 8.6808 8.50412C12.8759 4.39462 18.5657 2.08594 24.4985 2.08594V2.4739C18.6705 2.4739 13.0811 4.74182 8.96014 8.77874C4.83913 12.8157 2.52396 18.2909 2.52396 24C2.52396 29.709 4.83913 35.1842 8.96014 39.2211C13.0811 43.2581 18.6705 45.526 24.4985 45.526V45.912Z" fill="white"/>
<path d="M74.652 32H71.572L64.598 21.462V32H61.518V16.622H64.598L71.572 27.182V16.622H74.652V32ZM89.2017 19.812V32H86.0997V30.46C85.7037 30.988 85.1831 31.406 84.5377 31.714C83.9071 32.0073 83.2177 32.154 82.4697 32.154C81.5164 32.154 80.6731 31.956 79.9397 31.56C79.2064 31.1493 78.6271 30.5553 78.2017 29.778C77.7911 28.986 77.5857 28.0473 77.5857 26.962V19.812H80.6657V26.522C80.6657 27.49 80.9077 28.238 81.3917 28.766C81.8757 29.2793 82.5357 29.536 83.3717 29.536C84.2224 29.536 84.8897 29.2793 85.3737 28.766C85.8577 28.238 86.0997 27.49 86.0997 26.522V19.812H89.2017ZM107.377 19.636C108.873 19.636 110.075 20.098 110.985 21.022C111.909 21.9313 112.371 23.2073 112.371 24.85V32H109.291V25.268C109.291 24.3147 109.049 23.5887 108.565 23.09C108.081 22.5767 107.421 22.32 106.585 22.32C105.749 22.32 105.081 22.5767 104.583 23.09C104.099 23.5887 103.857 24.3147 103.857 25.268V32H100.777V25.268C100.777 24.3147 100.535 23.5887 100.051 23.09C99.5667 22.5767 98.9067 22.32 98.0707 22.32C97.22 22.32 96.5453 22.5767 96.0467 23.09C95.5627 23.5887 95.3207 24.3147 95.3207 25.268V32H92.2407V19.812H95.3207V21.286C95.7167 20.7727 96.2227 20.3693 96.8387 20.076C97.4693 19.7827 98.1587 19.636 98.9067 19.636C99.86 19.636 100.711 19.8413 101.459 20.252C102.207 20.648 102.786 21.22 103.197 21.968C103.593 21.264 104.165 20.6993 104.913 20.274C105.675 19.8487 106.497 19.636 107.377 19.636ZM116.855 18.36C116.313 18.36 115.858 18.1913 115.491 17.854C115.139 17.502 114.963 17.0693 114.963 16.556C114.963 16.0427 115.139 15.6173 115.491 15.28C115.858 14.928 116.313 14.752 116.855 14.752C117.398 14.752 117.845 14.928 118.197 15.28C118.564 15.6173 118.747 16.0427 118.747 16.556C118.747 17.0693 118.564 17.502 118.197 17.854C117.845 18.1913 117.398 18.36 116.855 18.36ZM118.373 19.812V32H115.293V19.812H118.373ZM124.232 29.47H129.666V32H120.734V29.514L126.058 22.342H120.756V19.812H129.6V22.298L124.232 29.47Z" fill="#0B0B0B"/>
</svg>
