<svg width="6" height="20" viewBox="0 0 6 20" fill="none" xmlns="http://www.w3.org/2000/svg">
<path d="M3.00046 7.88304C4.17001 7.88304 5.11811 8.82362 5.11811 9.98387C5.11811 11.1441 4.17001 12.0847 3.00046 12.0847C1.83092 12.0847 0.882813 11.1441 0.882812 9.98387C0.882812 8.82362 1.83092 7.88304 3.00046 7.88304Z" fill="#9D9D9D" fill-opacity="0.35"/>
<path d="M3.00046 0.824219C4.17001 0.824219 5.11811 1.76479 5.11811 2.92505C5.11811 4.0853 4.17001 5.02588 3.00046 5.02588C1.83092 5.02588 0.882813 4.0853 0.882812 2.92505C0.882812 1.76479 1.83092 0.824219 3.00046 0.824219Z" fill="#9D9D9D" fill-opacity="0.35"/>
<path d="M3.00046 14.9419C4.17001 14.9419 5.11811 15.8824 5.11811 17.0427C5.11811 18.2029 4.17001 19.1435 3.00046 19.1435C1.83092 19.1435 0.882813 18.2029 0.882812 17.0427C0.882812 15.8824 1.83092 14.9419 3.00046 14.9419Z" fill="#9D9D9D" fill-opacity="0.35"/>
</svg>
